<?xml version="1.0" encoding="utf-8"?>
<svg width="164px" height="60px" viewBox="0 0 164 60" version="1.1" xmlns:xlink="http://www.w3.org/1999/xlink" xmlns="http://www.w3.org/2000/svg">
  <defs>
    <filter filterUnits="userSpaceOnUse" color-interpolation-filters="sRGB" id="filter_1">
      <feFlood flood-opacity="0" result="BackgroundImageFix" />
      <feColorMatrix in="SourceAlpha" type="matrix" values="0 0 0 0 0 0 0 0 0 0 0 0 0 0 0 0 0 0 127 0" />
      <feOffset dx="0" dy="1" />
      <feGaussianBlur stdDeviation="0.5" />
      <feColorMatrix type="matrix" values="0 0 0 0 1 0 0 0 0 0.5176471 0 0 0 0 0.2784314 0 0 0 1 0" />
      <feBlend mode="normal" in2="BackgroundImageFix" result="effect0_dropShadow" />
      <feBlend mode="normal" in="SourceGraphic" in2="effect0_dropShadow" result="shape" />
    </filter>
  </defs>
  <g filter="url(#filter_1)">
    <g id="Add-Product" transform="translate(2 1)">
      <path d="M26.499 0L133.501 0Q134.152 0 134.801 0.0319192Q135.451 0.0638384 136.098 0.1276Q136.746 0.191361 137.389 0.286812Q138.033 0.382262 138.671 0.509171Q139.309 0.63608 139.94 0.794142Q140.571 0.952204 141.193 1.14104Q141.816 1.32987 142.428 1.54902Q143.041 1.76818 143.642 2.01712Q144.243 2.26606 144.831 2.54419Q145.419 2.82232 145.993 3.12897Q146.566 3.43562 147.124 3.77005Q147.682 4.10448 148.223 4.46589Q148.764 4.82729 149.286 5.2148Q149.809 5.60231 150.312 6.015Q150.815 6.42768 151.297 6.86454Q151.779 7.30139 152.239 7.76138Q152.699 8.22136 153.135 8.70336Q153.572 9.18536 153.985 9.68821Q154.398 10.1911 154.785 10.7136Q155.173 11.2361 155.534 11.7769Q155.895 12.3178 156.23 12.8758Q156.564 13.4338 156.871 14.0075Q157.178 14.5812 157.456 15.1692Q157.734 15.7573 157.983 16.3583Q158.232 16.9593 158.451 17.5718Q158.67 18.1842 158.859 18.8067Q159.048 19.4292 159.206 20.0603Q159.364 20.6913 159.491 21.3293Q159.618 21.9673 159.713 22.6108Q159.809 23.2543 159.872 23.9016Q159.936 24.549 159.968 25.1988Q160 25.8485 160 26.499L160 29.501Q160 30.1515 159.968 30.8012Q159.936 31.451 159.872 32.0984Q159.809 32.7457 159.713 33.3892Q159.618 34.0327 159.491 34.6707Q159.364 35.3087 159.206 35.9397Q159.048 36.5707 158.859 37.1932Q158.67 37.8158 158.451 38.4282Q158.232 39.0407 157.983 39.6417Q157.734 40.2427 157.456 40.8308Q157.178 41.4188 156.871 41.9925Q156.564 42.5662 156.23 43.1242Q155.895 43.6822 155.534 44.2231Q155.173 44.7639 154.785 45.2864Q154.398 45.8089 153.985 46.3118Q153.572 46.8146 153.135 47.2966Q152.699 47.7786 152.239 48.2386Q151.779 48.6986 151.297 49.1355Q150.815 49.5723 150.312 49.985Q149.809 50.3977 149.286 50.7852Q148.764 51.1727 148.223 51.5341Q147.682 51.8955 147.124 52.2299Q146.566 52.5644 145.993 52.871Q145.419 53.1777 144.831 53.4558Q144.243 53.7339 143.642 53.9829Q143.041 54.2318 142.428 54.451Q141.816 54.6701 141.193 54.859Q140.571 55.0478 139.94 55.2059Q139.309 55.3639 138.671 55.4908Q138.033 55.6177 137.389 55.7132Q136.746 55.8086 136.098 55.8724Q135.451 55.9362 134.801 55.9681Q134.152 56 133.501 56L26.499 56Q25.8485 56 25.1988 55.9681Q24.549 55.9362 23.9016 55.8724Q23.2543 55.8086 22.6108 55.7132Q21.9673 55.6177 21.3293 55.4908Q20.6913 55.3639 20.0603 55.2059Q19.4292 55.0478 18.8067 54.859Q18.1842 54.6701 17.5718 54.451Q16.9593 54.2318 16.3583 53.9829Q15.7573 53.7339 15.1692 53.4558Q14.5812 53.1777 14.0075 52.871Q13.4338 52.5644 12.8758 52.2299Q12.3178 51.8955 11.7769 51.5341Q11.2361 51.1727 10.7136 50.7852Q10.1911 50.3977 9.68821 49.985Q9.18536 49.5723 8.70336 49.1355Q8.22136 48.6986 7.76138 48.2386Q7.30139 47.7786 6.86454 47.2966Q6.42768 46.8146 6.015 46.3118Q5.60231 45.8089 5.2148 45.2864Q4.82729 44.7639 4.46589 44.2231Q4.10448 43.6822 3.77005 43.1242Q3.43562 42.5662 3.12897 41.9925Q2.82232 41.4188 2.54419 40.8308Q2.26606 40.2427 2.01712 39.6417Q1.76818 39.0407 1.54902 38.4282Q1.32987 37.8158 1.14104 37.1932Q0.952204 36.5707 0.794142 35.9397Q0.63608 35.3087 0.509171 34.6707Q0.382262 34.0327 0.286812 33.3892Q0.191361 32.7457 0.1276 32.0984Q0.0638384 31.451 0.0319192 30.8012Q-2.06719e-13 30.1515 -2.11922e-13 29.501L-2.3593e-13 26.499Q-2.41132e-13 25.8485 0.0319192 25.1988Q0.0638384 24.549 0.1276 23.9016Q0.191361 23.2543 0.286812 22.6108Q0.382262 21.9673 0.509171 21.3293Q0.63608 20.6913 0.794142 20.0603Q0.952204 19.4292 1.14104 18.8067Q1.32987 18.1842 1.54902 17.5718Q1.76818 16.9593 2.01712 16.3583Q2.26606 15.7573 2.54419 15.1692Q2.82232 14.5812 3.12897 14.0075Q3.43562 13.4338 3.77005 12.8758Q4.10448 12.3178 4.46589 11.7769Q4.82729 11.2361 5.2148 10.7136Q5.60231 10.1911 6.015 9.68821Q6.42768 9.18536 6.86454 8.70336Q7.30139 8.22136 7.76138 7.76138Q8.22136 7.30139 8.70336 6.86454Q9.18536 6.42768 9.68821 6.015Q10.1911 5.60231 10.7136 5.2148Q11.2361 4.82729 11.7769 4.46589Q12.3178 4.10448 12.8758 3.77005Q13.4338 3.43562 14.0075 3.12897Q14.5812 2.82232 15.1692 2.54419Q15.7573 2.26606 16.3583 2.01712Q16.9593 1.76818 17.5718 1.54902Q18.1842 1.32987 18.8067 1.14104Q19.4292 0.952204 20.0603 0.794142Q20.6913 0.63608 21.3293 0.509171Q21.9673 0.382262 22.6108 0.286812Q23.2543 0.191361 23.9016 0.1276Q24.549 0.0638384 25.1988 0.0319192Q25.8485 0 26.499 0Z" id="Rectangle-Copy" fill="#FFFFFF" stroke="#FC8B56" stroke-width="1" stroke-dasharray="5 5" />
      <g id="Add-Product" fill="#FC8B56" transform="translate(27.619047 19.528301)">
        <path d="M5.69226 14.4545L7.0772 14.4545L8.17451 11.3651L12.585 11.3651L13.6823 14.4545L15.0673 14.4545L11.0616 3.54545L9.69794 3.54545L5.69226 14.4545ZM18.3151 14.1056Q19.0981 14.625 20.1208 14.625Q20.9092 14.625 21.3833 14.3613Q21.8573 14.0977 22.113 13.7594Q22.3687 13.4212 22.5072 13.1974L22.6564 13.1974L22.6564 14.4545L23.8708 14.4545L23.8708 3.54545L22.6137 3.54545L22.6137 7.57244L22.5072 7.57244Q22.3687 7.35938 22.121 7.02646Q21.8733 6.69354 21.4072 6.42987Q20.9412 6.16619 20.1421 6.16619Q19.1088 6.16619 18.3204 6.68288Q17.5321 7.19957 17.0899 8.14773Q16.6478 9.09588 16.6478 10.3849Q16.6478 11.6847 17.0899 12.6355Q17.5321 13.5863 18.3151 14.1056ZM29.8619 14.625Q28.8392 14.625 28.0562 14.1056Q27.2731 13.5863 26.831 12.6355Q26.3889 11.6847 26.3889 10.3849Q26.3889 9.09588 26.831 8.14773Q27.2731 7.19957 28.0615 6.68288Q28.8498 6.16619 29.8832 6.16619Q30.6822 6.16619 31.1483 6.42987Q31.6144 6.69354 31.8621 7.02646Q32.1098 7.35938 32.2483 7.57244L32.3548 7.57244L32.3548 3.54545L33.6119 3.54545L33.6119 14.4545L32.3974 14.4545L32.3974 13.1974L32.2483 13.1974Q32.1098 13.4212 31.8541 13.7594Q31.5984 14.0977 31.1244 14.3613Q30.6503 14.625 29.8619 14.625ZM40.9027 3.54545L40.9027 14.4545L42.2237 14.4545L42.2237 10.4702L44.6101 10.4702Q45.8832 10.4702 46.6982 10.0041Q47.5132 9.538 47.9047 8.74965Q48.2962 7.96129 48.2962 6.99716Q48.2962 6.03303 47.902 5.25Q47.5078 4.46698 46.6902 4.00621Q45.8725 3.54545 44.5888 3.54545L40.9027 3.54545ZM69.1672 14.625Q68.1444 14.625 67.3614 14.1056Q66.5784 13.5863 66.1363 12.6355Q65.6941 11.6847 65.6941 10.3849Q65.6941 9.09588 66.1363 8.14773Q66.5784 7.19957 67.3667 6.68288Q68.1551 6.16619 69.1885 6.16619Q69.9875 6.16619 70.4536 6.42987Q70.9196 6.69354 71.1673 7.02646Q71.415 7.35938 71.5535 7.57244L71.66 7.57244L71.66 3.54545L72.9172 3.54545L72.9172 14.4545L71.7027 14.4545L71.7027 13.1974L71.5535 13.1974Q71.415 13.4212 71.1593 13.7594Q70.9037 14.0977 70.4296 14.3613Q69.9555 14.625 69.1672 14.625ZM97.3251 7.33807L97.3251 6.27273L95.5779 6.27273L95.5779 4.3125L94.3208 4.3125L94.3208 6.27273L93.085 6.27273L93.085 7.33807L94.3208 7.33807L94.3208 12.4517Q94.3208 13.1655 94.6537 13.6342Q94.9866 14.103 95.4953 14.332Q96.004 14.5611 96.5367 14.5611Q96.8883 14.5611 97.1173 14.5105Q97.3464 14.4599 97.4742 14.4119L97.2185 13.2827Q97.1386 13.2987 97.0054 13.3226Q96.8723 13.3466 96.6645 13.3466Q96.3876 13.3466 96.1399 13.2587Q95.8922 13.1708 95.735 12.9071Q95.5779 12.6435 95.5779 12.1108L95.5779 7.33807L97.3251 7.33807ZM44.5675 9.2983L42.2237 9.2983L42.2237 4.71733L44.5462 4.71733Q45.8779 4.71733 46.4372 5.36452Q46.9965 6.01172 46.9965 6.99716Q46.9965 7.97727 46.4398 8.63778Q45.8832 9.2983 44.5675 9.2983ZM12.1695 10.1932L8.58999 10.1932L10.3371 5.27131L10.4224 5.27131L12.1695 10.1932ZM50.6864 6.27273L51.9009 6.27273L51.9009 7.50852L51.9861 7.50852Q52.2098 6.90128 52.7958 6.52308Q53.3817 6.14489 54.1168 6.14489Q54.2553 6.14489 54.463 6.15021Q54.6708 6.15554 54.7773 6.16619L54.7773 7.4446Q54.7134 7.42862 54.487 7.394Q54.2606 7.35938 54.0103 7.35938Q53.1154 7.35938 52.5294 7.9027Q51.9435 8.44602 51.9435 9.27699L51.9435 14.4545L50.6864 14.4545L50.6864 6.27273ZM58.0811 14.0977Q58.9147 14.625 60.0227 14.625Q61.1306 14.625 61.9642 14.0977Q62.7979 13.5703 63.264 12.6222Q63.73 11.674 63.73 10.4063Q63.73 9.12784 63.264 8.17436Q62.7979 7.22088 61.9642 6.69354Q61.1306 6.16619 60.0227 6.16619Q58.9147 6.16619 58.0811 6.69354Q57.2474 7.22088 56.7814 8.17436Q56.3153 9.12784 56.3153 10.4063Q56.3153 11.674 56.7814 12.6222Q57.2474 13.5703 58.0811 14.0977ZM88.2871 14.625Q87.1365 14.625 86.3056 14.0817Q85.4746 13.5384 85.0271 12.5849Q84.5797 11.6314 84.5797 10.4063Q84.5797 9.1598 85.0405 8.20366Q85.5012 7.24752 86.3295 6.70685Q87.1578 6.16619 88.2658 6.16619Q89.1287 6.16619 89.8212 6.4858Q90.5137 6.8054 90.9558 7.38068Q91.3979 7.95597 91.5044 8.72301L90.2473 8.72301Q90.1035 8.16371 89.6108 7.72958Q89.1181 7.29545 88.2871 7.29545Q87.1845 7.29545 86.5106 8.13441Q85.8368 8.97337 85.8368 10.3636Q85.8368 11.7859 86.5026 12.6408Q87.1685 13.4957 88.2871 13.4957Q89.0222 13.4957 89.5469 13.1175Q90.0715 12.7393 90.2473 12.0682L91.5044 12.0682Q91.3979 12.7926 90.9797 13.3706Q90.5616 13.9485 89.8771 14.2868Q89.1926 14.625 88.2871 14.625ZM80.975 6.27273L80.975 11.1094Q80.975 11.8764 80.6421 12.3718Q80.3092 12.8672 79.8218 13.1069Q79.3344 13.3466 78.8656 13.3466Q78.0826 13.3466 77.5792 12.8139Q77.0758 12.2813 77.0758 11.3864L77.0758 6.27273L75.8187 6.27273L75.8187 11.4716Q75.8187 13.0376 76.5645 13.7994Q77.3102 14.5611 78.4608 14.5611Q79.3876 14.5611 79.9949 14.127Q80.6021 13.6928 80.8898 13.0696L80.975 13.0696L80.975 14.4545L82.2321 14.4545L82.2321 6.27273L80.975 6.27273ZM22.0305 12.6248Q21.4259 13.4957 20.2913 13.4957Q19.5029 13.4957 18.9729 13.0776Q18.4429 12.6594 18.1739 11.9483Q17.9049 11.2372 17.9049 10.3636Q17.9049 9.50071 18.1686 8.80558Q18.4323 8.11044 18.9623 7.70295Q19.4923 7.29545 20.2913 7.29545Q21.4419 7.29545 22.0385 8.1424Q22.635 8.98935 22.635 10.3636Q22.635 11.7539 22.0305 12.6248ZM30.0324 13.4957Q31.167 13.4957 31.7715 12.6248Q32.3761 11.7539 32.3761 10.3636Q32.3761 8.98935 31.7795 8.1424Q31.1829 7.29545 30.0324 7.29545Q29.2334 7.29545 28.7034 7.70295Q28.1734 8.11044 27.9097 8.80558Q27.646 9.50071 27.646 10.3636Q27.646 11.2372 27.915 11.9483Q28.184 12.6594 28.714 13.0776Q29.244 13.4957 30.0324 13.4957ZM61.4076 13.0643Q60.8643 13.4957 60.0227 13.4957Q59.181 13.4957 58.6377 13.0643Q58.0944 12.6328 57.8334 11.9297Q57.5724 11.2266 57.5724 10.4063Q57.5724 9.58594 57.8334 8.87749Q58.0944 8.16903 58.6377 7.73224Q59.181 7.29545 60.0227 7.29545Q60.8643 7.29545 61.4076 7.73224Q61.9509 8.16903 62.2119 8.87749Q62.4729 9.58594 62.4729 10.4063Q62.4729 11.2266 62.2119 11.9297Q61.9509 12.6328 61.4076 13.0643ZM69.3376 13.4957Q70.4722 13.4957 71.0768 12.6248Q71.6814 11.7539 71.6814 10.3636Q71.6814 8.98935 71.0848 8.1424Q70.4882 7.29545 69.3376 7.29545Q68.5386 7.29545 68.0086 7.70295Q67.4786 8.11044 67.2149 8.80558Q66.9512 9.50071 66.9512 10.3636Q66.9512 11.2372 67.2202 11.9483Q67.4892 12.6594 68.0192 13.0776Q68.5493 13.4957 69.3376 13.4957Z" />
      </g>
    </g>
  </g>
</svg>