<?xml version="1.0" encoding="utf-8"?>
<svg width="121px" height="121px" viewBox="0 0 121 121" version="1.1" xmlns:xlink="http://www.w3.org/1999/xlink" xmlns="http://www.w3.org/2000/svg">
  <defs>
    <linearGradient x1="0" y1="0" x2="1" y2="1" id="gradient_1">
      <stop offset="0%" stop-color="#F86D2B" />
      <stop offset="100%" stop-color="#FB9362" />
    </linearGradient>
    <filter filterUnits="userSpaceOnUse" color-interpolation-filters="sRGB" id="filter_1">
      <feFlood flood-opacity="0" result="BackgroundImageFix" />
      <feColorMatrix in="SourceAlpha" type="matrix" values="0 0 0 0 0 0 0 0 0 0 0 0 0 0 0 0 0 0 127 0" />
      <feOffset dx="0" dy="10" />
      <feGaussianBlur stdDeviation="10" />
      <feColorMatrix type="matrix" values="0 0 0 0 1 0 0 0 0 0.3137255 0 0 0 0 0.33333334 0 0 0 0.29803923 0" />
      <feBlend mode="normal" in2="BackgroundImageFix" result="effect0_dropShadow" />
      <feBlend mode="normal" in="SourceGraphic" in2="effect0_dropShadow" result="shape" />
    </filter>
    <path d="M29.999 0L30.001 0Q30.7374 0 31.473 0.0361351Q32.2085 0.0722702 32.9414 0.144453Q33.6743 0.216636 34.4028 0.324694Q35.1312 0.432751 35.8535 0.576422Q36.5758 0.720093 37.2902 0.899032Q38.0045 1.07797 38.7093 1.29175Q39.414 1.50552 40.1074 1.75362Q40.8007 2.00172 41.4811 2.28354Q42.1615 2.56536 42.8272 2.88022Q43.493 3.19509 44.1424 3.54224Q44.7919 3.8894 45.4236 4.268Q46.0552 4.6466 46.6676 5.05574Q47.2799 5.46488 47.8714 5.90358Q48.4629 6.34227 49.0322 6.80946Q49.6014 7.27665 50.1471 7.77121Q50.6928 8.26577 51.2135 8.7865Q51.7342 9.30724 52.2288 9.8529Q52.7234 10.3986 53.1905 10.9678Q53.6577 11.5371 54.0964 12.1286Q54.5351 12.7201 54.9443 13.3324Q55.3534 13.9448 55.732 14.5764Q56.1106 15.2081 56.4578 15.8576Q56.8049 16.507 57.1198 17.1728Q57.4346 17.8385 57.7165 18.5189Q57.9983 19.1993 58.2464 19.8926Q58.4945 20.586 58.7083 21.2908Q58.922 21.9955 59.101 22.7098Q59.2799 23.4242 59.4236 24.1465Q59.5672 24.8688 59.6753 25.5972Q59.7834 26.3257 59.8555 27.0586Q59.9277 27.7915 59.9639 28.527Q60 29.2626 60 29.999L60 30.001Q60 30.7374 59.9639 31.473Q59.9277 32.2085 59.8555 32.9414Q59.7834 33.6743 59.6753 34.4028Q59.5672 35.1312 59.4236 35.8535Q59.2799 36.5758 59.101 37.2902Q58.922 38.0045 58.7083 38.7093Q58.4945 39.414 58.2464 40.1074Q57.9983 40.8007 57.7165 41.4811Q57.4346 42.1615 57.1198 42.8272Q56.8049 43.493 56.4578 44.1424Q56.1106 44.7919 55.732 45.4236Q55.3534 46.0552 54.9443 46.6676Q54.5351 47.2799 54.0964 47.8714Q53.6577 48.4629 53.1905 49.0322Q52.7234 49.6014 52.2288 50.1471Q51.7342 50.6928 51.2135 51.2135Q50.6928 51.7342 50.1471 52.2288Q49.6014 52.7234 49.0322 53.1905Q48.4629 53.6577 47.8714 54.0964Q47.2799 54.5351 46.6675 54.9443Q46.0552 55.3534 45.4236 55.732Q44.7919 56.1106 44.1424 56.4578Q43.493 56.8049 42.8272 57.1198Q42.1615 57.4346 41.4811 57.7165Q40.8007 57.9983 40.1074 58.2464Q39.414 58.4945 38.7092 58.7083Q38.0045 58.922 37.2902 59.101Q36.5758 59.2799 35.8535 59.4236Q35.1312 59.5672 34.4028 59.6753Q33.6743 59.7834 32.9414 59.8555Q32.2085 59.9277 31.473 59.9639Q30.7374 60 30.001 60L29.999 60Q29.2626 60 28.527 59.9639Q27.7915 59.9277 27.0586 59.8555Q26.3257 59.7834 25.5972 59.6753Q24.8688 59.5672 24.1465 59.4236Q23.4242 59.2799 22.7098 59.101Q21.9955 58.922 21.2907 58.7083Q20.586 58.4945 19.8926 58.2464Q19.1993 57.9983 18.5189 57.7165Q17.8385 57.4346 17.1728 57.1198Q16.507 56.8049 15.8576 56.4578Q15.2081 56.1106 14.5764 55.732Q13.9448 55.3534 13.3324 54.9443Q12.7201 54.5351 12.1286 54.0964Q11.5371 53.6577 10.9678 53.1905Q10.3986 52.7234 9.8529 52.2288Q9.30724 51.7342 8.7865 51.2135Q8.26577 50.6928 7.77121 50.1471Q7.27665 49.6014 6.80946 49.0322Q6.34227 48.4629 5.90358 47.8714Q5.46488 47.2799 5.05574 46.6675Q4.6466 46.0552 4.268 45.4236Q3.8894 44.7919 3.54224 44.1424Q3.19509 43.493 2.88022 42.8272Q2.56536 42.1615 2.28354 41.4811Q2.00172 40.8007 1.75362 40.1074Q1.50552 39.414 1.29175 38.7092Q1.07797 38.0045 0.899032 37.2902Q0.720093 36.5758 0.576422 35.8535Q0.432751 35.1312 0.324694 34.4028Q0.216636 33.6743 0.144453 32.9414Q0.0722702 32.2085 0.0361351 31.473Q0 30.7374 0 30.001L0 29.999Q0 29.2626 0.0361351 28.527Q0.0722702 27.7915 0.144453 27.0586Q0.216636 26.3257 0.324694 25.5972Q0.432751 24.8688 0.576422 24.1465Q0.720093 23.4242 0.899032 22.7098Q1.07797 21.9955 1.29175 21.2907Q1.50552 20.586 1.75362 19.8926Q2.00172 19.1993 2.28354 18.5189Q2.56536 17.8385 2.88022 17.1728Q3.19509 16.507 3.54224 15.8576Q3.8894 15.2081 4.268 14.5764Q4.6466 13.9448 5.05574 13.3324Q5.46488 12.7201 5.90358 12.1286Q6.34227 11.5371 6.80946 10.9678Q7.27665 10.3986 7.77121 9.8529Q8.26577 9.30724 8.7865 8.7865Q9.30724 8.26577 9.8529 7.77121Q10.3986 7.27665 10.9678 6.80946Q11.5371 6.34227 12.1286 5.90358Q12.7201 5.46488 13.3324 5.05574Q13.9448 4.6466 14.5764 4.268Q15.2081 3.8894 15.8576 3.54224Q16.507 3.19509 17.1728 2.88022Q17.8385 2.56536 18.5189 2.28354Q19.1993 2.00172 19.8926 1.75362Q20.586 1.50552 21.2908 1.29175Q21.9955 1.07797 22.7098 0.899032Q23.4242 0.720093 24.1465 0.576422Q24.8688 0.432751 25.5972 0.324694Q26.3257 0.216636 27.0586 0.144453Q27.7915 0.0722702 28.527 0.0361351Q29.2626 0 29.999 0Z" id="path_1" />
    <clipPath id="mask_1">
      <use xlink:href="#path_1" />
    </clipPath>
  </defs>
  <g id="Icon" transform="translate(30.5 20.5)">
    <path d="M29.999 0L30.001 0Q30.7374 0 31.473 0.0361351Q32.2085 0.0722702 32.9414 0.144453Q33.6743 0.216636 34.4028 0.324694Q35.1312 0.432751 35.8535 0.576422Q36.5758 0.720093 37.2902 0.899032Q38.0045 1.07797 38.7093 1.29175Q39.414 1.50552 40.1074 1.75362Q40.8007 2.00172 41.4811 2.28354Q42.1615 2.56536 42.8272 2.88022Q43.493 3.19509 44.1424 3.54224Q44.7919 3.8894 45.4236 4.268Q46.0552 4.6466 46.6676 5.05574Q47.2799 5.46488 47.8714 5.90358Q48.4629 6.34227 49.0322 6.80946Q49.6014 7.27665 50.1471 7.77121Q50.6928 8.26577 51.2135 8.7865Q51.7342 9.30724 52.2288 9.8529Q52.7234 10.3986 53.1905 10.9678Q53.6577 11.5371 54.0964 12.1286Q54.5351 12.7201 54.9443 13.3324Q55.3534 13.9448 55.732 14.5764Q56.1106 15.2081 56.4578 15.8576Q56.8049 16.507 57.1198 17.1728Q57.4346 17.8385 57.7165 18.5189Q57.9983 19.1993 58.2464 19.8926Q58.4945 20.586 58.7083 21.2908Q58.922 21.9955 59.101 22.7098Q59.2799 23.4242 59.4236 24.1465Q59.5672 24.8688 59.6753 25.5972Q59.7834 26.3257 59.8555 27.0586Q59.9277 27.7915 59.9639 28.527Q60 29.2626 60 29.999L60 30.001Q60 30.7374 59.9639 31.473Q59.9277 32.2085 59.8555 32.9414Q59.7834 33.6743 59.6753 34.4028Q59.5672 35.1312 59.4236 35.8535Q59.2799 36.5758 59.101 37.2902Q58.922 38.0045 58.7083 38.7093Q58.4945 39.414 58.2464 40.1074Q57.9983 40.8007 57.7165 41.4811Q57.4346 42.1615 57.1198 42.8272Q56.8049 43.493 56.4578 44.1424Q56.1106 44.7919 55.732 45.4236Q55.3534 46.0552 54.9443 46.6676Q54.5351 47.2799 54.0964 47.8714Q53.6577 48.4629 53.1905 49.0322Q52.7234 49.6014 52.2288 50.1471Q51.7342 50.6928 51.2135 51.2135Q50.6928 51.7342 50.1471 52.2288Q49.6014 52.7234 49.0322 53.1905Q48.4629 53.6577 47.8714 54.0964Q47.2799 54.5351 46.6675 54.9443Q46.0552 55.3534 45.4236 55.732Q44.7919 56.1106 44.1424 56.4578Q43.493 56.8049 42.8272 57.1198Q42.1615 57.4346 41.4811 57.7165Q40.8007 57.9983 40.1074 58.2464Q39.414 58.4945 38.7092 58.7083Q38.0045 58.922 37.2902 59.101Q36.5758 59.2799 35.8535 59.4236Q35.1312 59.5672 34.4028 59.6753Q33.6743 59.7834 32.9414 59.8555Q32.2085 59.9277 31.473 59.9639Q30.7374 60 30.001 60L29.999 60Q29.2626 60 28.527 59.9639Q27.7915 59.9277 27.0586 59.8555Q26.3257 59.7834 25.5972 59.6753Q24.8688 59.5672 24.1465 59.4236Q23.4242 59.2799 22.7098 59.101Q21.9955 58.922 21.2907 58.7083Q20.586 58.4945 19.8926 58.2464Q19.1993 57.9983 18.5189 57.7165Q17.8385 57.4346 17.1728 57.1198Q16.507 56.8049 15.8576 56.4578Q15.2081 56.1106 14.5764 55.732Q13.9448 55.3534 13.3324 54.9443Q12.7201 54.5351 12.1286 54.0964Q11.5371 53.6577 10.9678 53.1905Q10.3986 52.7234 9.8529 52.2288Q9.30724 51.7342 8.7865 51.2135Q8.26577 50.6928 7.77121 50.1471Q7.27665 49.6014 6.80946 49.0322Q6.34227 48.4629 5.90358 47.8714Q5.46488 47.2799 5.05574 46.6675Q4.6466 46.0552 4.268 45.4236Q3.8894 44.7919 3.54224 44.1424Q3.19509 43.493 2.88022 42.8272Q2.56536 42.1615 2.28354 41.4811Q2.00172 40.8007 1.75362 40.1074Q1.50552 39.414 1.29175 38.7092Q1.07797 38.0045 0.899032 37.2902Q0.720093 36.5758 0.576422 35.8535Q0.432751 35.1312 0.324694 34.4028Q0.216636 33.6743 0.144453 32.9414Q0.0722702 32.2085 0.0361351 31.473Q0 30.7374 0 30.001L0 29.999Q0 29.2626 0.0361351 28.527Q0.0722702 27.7915 0.144453 27.0586Q0.216636 26.3257 0.324694 25.5972Q0.432751 24.8688 0.576422 24.1465Q0.720093 23.4242 0.899032 22.7098Q1.07797 21.9955 1.29175 21.2907Q1.50552 20.586 1.75362 19.8926Q2.00172 19.1993 2.28354 18.5189Q2.56536 17.8385 2.88022 17.1728Q3.19509 16.507 3.54224 15.8576Q3.8894 15.2081 4.268 14.5764Q4.6466 13.9448 5.05574 13.3324Q5.46488 12.7201 5.90358 12.1286Q6.34227 11.5371 6.80946 10.9678Q7.27665 10.3986 7.77121 9.8529Q8.26577 9.30724 8.7865 8.7865Q9.30724 8.26577 9.8529 7.77121Q10.3986 7.27665 10.9678 6.80946Q11.5371 6.34227 12.1286 5.90358Q12.7201 5.46488 13.3324 5.05574Q13.9448 4.6466 14.5764 4.268Q15.2081 3.8894 15.8576 3.54224Q16.507 3.19509 17.1728 2.88022Q17.8385 2.56536 18.5189 2.28354Q19.1993 2.00172 19.8926 1.75362Q20.586 1.50552 21.2908 1.29175Q21.9955 1.07797 22.7098 0.899032Q23.4242 0.720093 24.1465 0.576422Q24.8688 0.432751 25.5972 0.324694Q26.3257 0.216636 27.0586 0.144453Q27.7915 0.0722702 28.527 0.0361351Q29.2626 0 29.999 0Z" id="Mask" fill="url(#gradient_1)" fill-rule="evenodd" stroke="#FC8B56" stroke-width="1" filter="url(#filter_1)" />
    <g clip-path="url(#mask_1)">
      <path d="M30 23L30 37" id="Shape" fill="none" fill-rule="evenodd" stroke="#FFFFFF" stroke-width="2" stroke-linecap="round" stroke-linejoin="round" />
      <path d="M23 30L37 30" id="Shape" fill="none" fill-rule="evenodd" stroke="#FFFFFF" stroke-width="2" stroke-linecap="round" stroke-linejoin="round" />
    </g>
  </g>
</svg>