<?xml version="1.0" encoding="utf-8"?>
<svg width="164px" height="60px" viewBox="0 0 164 60" version="1.1" xmlns:xlink="http://www.w3.org/1999/xlink" xmlns="http://www.w3.org/2000/svg">
  <defs>
    <linearGradient x1="0" y1="0" x2="1" y2="1" id="gradient_1">
      <stop offset="0%" stop-color="#FC8B56" />
      <stop offset="100%" stop-color="#FF7569" />
    </linearGradient>
    <filter filterUnits="userSpaceOnUse" color-interpolation-filters="sRGB" id="filter_1">
      <feFlood flood-opacity="0" result="BackgroundImageFix" />
      <feColorMatrix in="SourceAlpha" type="matrix" values="0 0 0 0 0 0 0 0 0 0 0 0 0 0 0 0 0 0 127 0" />
      <feOffset dx="0" dy="3" />
      <feGaussianBlur stdDeviation="5" />
      <feColorMatrix type="matrix" values="0 0 0 0 1 0 0 0 0 0.3137255 0 0 0 0 0.33333334 0 0 0 0.6 0" />
      <feBlend mode="normal" in2="BackgroundImageFix" result="effect0_dropShadow" />
      <feBlend mode="normal" in="SourceGraphic" in2="effect0_dropShadow" result="shape" />
    </filter>
  </defs>
  <g id="Best-Prices" transform="translate(2 1)">
    <path d="M27.999 0L132.001 0Q132.688 0 133.375 0.033726Q134.061 0.067452 134.745 0.134823Q135.429 0.202194 136.109 0.303047Q136.789 0.4039 137.463 0.537993Q138.137 0.672086 138.804 0.839095Q139.471 1.0061 140.129 1.20563Q140.786 1.40515 141.434 1.63671Q142.081 1.86826 142.716 2.1313Q143.351 2.39433 143.972 2.6882Q144.593 2.98208 145.2 3.30609Q145.806 3.63009 146.395 3.98346Q146.985 4.33682 147.556 4.71868Q148.128 5.10055 148.68 5.50999Q149.232 5.91944 149.763 6.35548Q150.295 6.79152 150.804 7.25311Q151.313 7.7147 151.799 8.20072Q152.285 8.68674 152.747 9.19602Q153.208 9.7053 153.645 10.2366Q154.081 10.7679 154.49 11.32Q154.899 11.8721 155.281 12.4436Q155.663 13.0151 156.017 13.6046Q156.37 14.1942 156.694 14.8004Q157.018 15.4065 157.312 16.0279Q157.606 16.6492 157.869 17.2842Q158.132 17.9193 158.363 18.5664Q158.595 19.2136 158.794 19.8713Q158.994 20.5291 159.161 21.1958Q159.328 21.8625 159.462 22.5367Q159.596 23.2108 159.697 23.8907Q159.798 24.5706 159.865 25.2546Q159.933 25.9386 159.966 26.6252Q160 27.3117 160 27.999L160 28.001Q160 28.6883 159.966 29.3748Q159.933 30.0614 159.865 30.7454Q159.798 31.4294 159.697 32.1093Q159.596 32.7892 159.462 33.4633Q159.328 34.1375 159.161 34.8042Q158.994 35.4709 158.794 36.1287Q158.595 36.7864 158.363 37.4336Q158.132 38.0807 157.869 38.7157Q157.606 39.3508 157.312 39.9721Q157.018 40.5935 156.694 41.1996Q156.37 41.8058 156.017 42.3954Q155.663 42.9849 155.281 43.5564Q154.899 44.1279 154.49 44.68Q154.081 45.2321 153.645 45.7634Q153.208 46.2947 152.747 46.804Q152.285 47.3133 151.799 47.7993Q151.313 48.2853 150.804 48.7469Q150.295 49.2085 149.763 49.6445Q149.232 50.0806 148.68 50.49Q148.128 50.8994 147.556 51.2813Q146.985 51.6632 146.395 52.0165Q145.806 52.3699 145.2 52.6939Q144.593 53.0179 143.972 53.3118Q143.351 53.6057 142.716 53.8687Q142.081 54.1317 141.434 54.3633Q140.786 54.5948 140.129 54.7944Q139.471 54.9939 138.804 55.1609Q138.137 55.3279 137.463 55.462Q136.789 55.5961 136.109 55.6969Q135.429 55.7978 134.745 55.8652Q134.061 55.9325 133.375 55.9663Q132.688 56 132.001 56L27.999 56Q27.3117 56 26.6252 55.9663Q25.9386 55.9325 25.2546 55.8652Q24.5706 55.7978 23.8907 55.6969Q23.2108 55.5961 22.5367 55.462Q21.8625 55.3279 21.1958 55.1609Q20.5291 54.9939 19.8713 54.7944Q19.2136 54.5948 18.5664 54.3633Q17.9193 54.1317 17.2842 53.8687Q16.6492 53.6057 16.0279 53.3118Q15.4065 53.0179 14.8004 52.6939Q14.1942 52.3699 13.6046 52.0165Q13.0151 51.6632 12.4436 51.2813Q11.8721 50.8994 11.32 50.49Q10.7679 50.0806 10.2366 49.6445Q9.7053 49.2085 9.19602 48.7469Q8.68674 48.2853 8.20072 47.7993Q7.7147 47.3133 7.25311 46.804Q6.79152 46.2947 6.35548 45.7634Q5.91944 45.2321 5.50999 44.68Q5.10055 44.1279 4.71868 43.5564Q4.33682 42.9849 3.98346 42.3954Q3.63009 41.8058 3.30609 41.1996Q2.98208 40.5935 2.6882 39.9721Q2.39433 39.3508 2.1313 38.7157Q1.86826 38.0807 1.63671 37.4336Q1.40515 36.7864 1.20563 36.1287Q1.0061 35.4709 0.839095 34.8042Q0.672086 34.1375 0.537993 33.4633Q0.4039 32.7892 0.303047 32.1093Q0.202194 31.4294 0.134823 30.7454Q0.067452 30.0614 0.033726 29.3748Q0 28.6883 0 28.001L0 27.999Q0 27.3117 0.033726 26.6252Q0.067452 25.9386 0.134823 25.2546Q0.202194 24.5706 0.303047 23.8907Q0.4039 23.2108 0.537993 22.5367Q0.672086 21.8625 0.839095 21.1958Q1.0061 20.5291 1.20563 19.8713Q1.40515 19.2136 1.63671 18.5664Q1.86826 17.9193 2.1313 17.2842Q2.39433 16.6492 2.6882 16.0279Q2.98208 15.4065 3.30609 14.8004Q3.63009 14.1942 3.98346 13.6046Q4.33682 13.0151 4.71868 12.4436Q5.10055 11.8721 5.50999 11.32Q5.91944 10.7679 6.35548 10.2366Q6.79152 9.7053 7.25311 9.19602Q7.7147 8.68674 8.20072 8.20072Q8.68674 7.7147 9.19602 7.25311Q9.7053 6.79152 10.2366 6.35548Q10.7679 5.91944 11.32 5.50999Q11.8721 5.10055 12.4436 4.71868Q13.0151 4.33682 13.6046 3.98346Q14.1942 3.63009 14.8004 3.30609Q15.4065 2.98208 16.0279 2.6882Q16.6492 2.39433 17.2842 2.1313Q17.9193 1.86826 18.5664 1.63671Q19.2136 1.40515 19.8713 1.20563Q20.5291 1.0061 21.1958 0.839095Q21.8625 0.672086 22.5367 0.537993Q23.2108 0.4039 23.8907 0.303047Q24.5706 0.202194 25.2546 0.134823Q25.9386 0.067452 26.6252 0.033726Q27.3117 0 27.999 0L27.999 0Z" id="Base" fill="url(#gradient_1)" fill-rule="evenodd" stroke="none" filter="url(#filter_1)" />
    <g id="Best-Prices" fill="#FFFFFF" transform="translate(40 17)">
      <path d="M60.8811 6.09091Q60.44 6.09091 60.1236 5.79048Q59.8072 5.49006 59.8072 5.06818Q59.8072 4.64631 60.1236 4.34588Q60.44 4.04546 60.8811 4.04545Q61.3221 4.04545 61.6386 4.34588Q61.955 4.64631 61.955 5.06818Q61.955 5.49006 61.6386 5.79048Q61.3221 6.09091 60.8811 6.09091ZM1.58523 4.45454L1.58523 17.5455L6.31534 17.5455Q7.86222 17.5455 8.82741 17.0852Q9.79261 16.625 10.2401 15.8388Q10.6875 15.0526 10.6875 14.0682Q10.6875 13.0327 10.2784 12.3168Q9.86932 11.6009 9.26207 11.2173Q8.65483 10.8338 8.05398 10.7955L8.05398 10.6676Q8.61648 10.5142 9.09908 10.1946Q9.58168 9.875 9.87891 9.32528Q10.1761 8.77557 10.1761 7.93182Q10.1761 6.97301 9.74148 6.18359Q9.30682 5.39418 8.41832 4.92436Q7.52983 4.45454 6.16193 4.45454L1.58523 4.45454ZM43.059 17.5455L43.059 4.45454L47.4823 4.45454Q49.0228 4.45454 50.0039 5.00746Q50.9851 5.56037 51.4581 6.5Q51.9311 7.43963 51.9311 8.59659Q51.9311 9.75355 51.4613 10.6996Q50.9915 11.6456 50.0135 12.2049Q49.0355 12.7642 47.5079 12.7642L44.6442 12.7642L44.6442 17.5455L43.059 17.5455ZM35.9505 9.00568L35.9505 7.72727L33.8539 7.72727L33.8539 5.375L32.3454 5.375L32.3454 7.72727L30.8624 7.72727L30.8624 9.00568L32.3454 9.00568L32.3454 15.142Q32.3454 15.9986 32.7449 16.5611Q33.1444 17.1236 33.7548 17.3984Q34.3653 17.6733 35.0045 17.6733Q35.4263 17.6733 35.7012 17.6126Q35.9761 17.5518 36.1295 17.4943L35.8226 16.1392Q35.7268 16.1584 35.567 16.1871Q35.4072 16.2159 35.1579 16.2159Q34.8255 16.2159 34.5283 16.1104Q34.231 16.005 34.0425 15.6886Q33.8539 15.3722 33.8539 14.733L33.8539 9.00568L35.9505 9.00568ZM6.1108 10.2074L3.17045 10.2074L3.17045 5.86079L6.16193 5.86079Q7.46591 5.8608 8.06676 6.46484Q8.66761 7.06889 8.66761 7.93182Q8.66761 8.96733 7.92614 9.58736Q7.18466 10.2074 6.1108 10.2074ZM44.6442 11.358L47.4567 11.358Q49.0355 11.358 49.7035 10.5653Q50.3715 9.77273 50.3715 8.59659Q50.3715 7.41406 49.7003 6.63743Q49.0292 5.86079 47.4311 5.86079L44.6442 5.86079L44.6442 11.358ZM53.8493 7.72727L53.8493 17.5455L55.3578 17.5455L55.3578 11.3324Q55.3578 10.3352 56.061 9.68324Q56.7641 9.03125 57.8379 9.03125Q58.1384 9.03125 58.41 9.0728Q58.6817 9.11435 58.7584 9.13352L58.7584 7.59943Q58.6306 7.58665 58.3813 7.58025Q58.132 7.57386 57.9658 7.57386Q57.0837 7.57386 56.3806 8.0277Q55.6774 8.48153 55.409 9.21023L55.3067 9.21023L55.3067 7.72727L53.8493 7.72727ZM14.3283 17.1204Q15.3542 17.75 16.7733 17.75Q18.269 17.75 19.3045 17.0661Q20.34 16.3821 20.6852 15.2699L19.2278 14.8608Q18.9402 15.6278 18.301 16.0114Q17.6618 16.3949 16.7733 16.3949Q15.4437 16.3949 14.6032 15.5575Q13.7626 14.7202 13.7115 13.1477L20.8386 13.1477L20.8386 12.5085Q20.8386 11.1342 20.4743 10.1946Q20.1099 9.25497 19.4963 8.68288Q18.8826 8.11079 18.1348 7.85511Q17.3869 7.59943 16.6199 7.59943Q15.2903 7.59943 14.2964 8.24822Q13.3024 8.89702 12.7495 10.0508Q12.1966 11.2045 12.1966 12.7131Q12.1966 14.2216 12.7495 15.3562Q13.3024 16.4908 14.3283 17.1204ZM29.6602 9.92614L28.3051 10.3097Q28.1069 9.7983 27.6403 9.35085Q27.1737 8.90341 26.1829 8.90341Q25.2816 8.90341 24.684 9.3157Q24.0863 9.72798 24.0863 10.3608Q24.0863 10.9233 24.4954 11.2493Q24.9045 11.5753 25.7738 11.7926L27.2312 12.1506Q29.8392 12.7898 29.8392 14.8097Q29.8392 15.6534 29.3566 16.3182Q28.874 16.983 28.011 17.3665Q27.1481 17.75 26.0039 17.75Q24.5018 17.75 23.5174 17.098Q22.533 16.446 22.271 15.1932L23.7028 14.8352Q24.1055 16.4205 25.9784 16.4205Q27.033 16.4205 27.6563 15.9698Q28.2795 15.5192 28.2795 14.8864Q28.2795 13.8445 26.8221 13.5057L25.1857 13.1222Q23.837 12.8026 23.2074 12.1282Q22.5778 11.4538 22.5778 10.4375Q22.5778 9.60653 23.0476 8.96733Q23.5174 8.32812 24.3324 7.96378Q25.1474 7.59943 26.1829 7.59943Q27.6403 7.59943 28.4745 8.23864Q29.3086 8.87784 29.6602 9.92614ZM65.5606 17.098Q66.5578 17.75 67.9385 17.75Q69.0251 17.75 69.8465 17.3441Q70.6679 16.9382 71.1696 16.2447Q71.6714 15.5511 71.7993 14.6818L70.2907 14.6818Q70.0798 15.4872 69.4502 15.9411Q68.8206 16.3949 67.9385 16.3949Q66.5961 16.3949 65.7971 15.369Q64.9981 14.343 64.9981 12.6364Q64.9981 10.968 65.8067 9.96129Q66.6153 8.95454 67.9385 8.95454Q68.9356 8.95455 69.5269 9.4755Q70.1181 9.99645 70.2907 10.6676L71.7993 10.6676Q71.6714 9.74716 71.1409 9.05682Q70.6103 8.36648 69.7794 7.98295Q68.9484 7.59943 67.9129 7.59943Q66.5833 7.59943 65.5894 8.24822Q64.5954 8.89702 64.0425 10.0444Q63.4896 11.1918 63.4896 12.6875Q63.4896 14.1577 64.0265 15.3018Q64.5635 16.446 65.5606 17.098ZM77.6805 17.75Q76.2614 17.75 75.2355 17.1204Q74.2096 16.4908 73.6567 15.3562Q73.1038 14.2216 73.1038 12.7131Q73.1038 11.2045 73.6567 10.0508Q74.2096 8.89702 75.2036 8.24822Q76.1975 7.59943 77.5271 7.59943Q78.2941 7.59943 79.042 7.85511Q79.7899 8.11079 80.4035 8.68288Q81.0171 9.25497 81.3815 10.1946Q81.7458 11.1342 81.7458 12.5085L81.7458 13.1477L74.6187 13.1477Q74.6698 14.7202 75.5104 15.5575Q76.3509 16.3949 77.6805 16.3949Q78.569 16.3949 79.2082 16.0114Q79.8474 15.6278 80.135 14.8608L81.5924 15.2699Q81.2472 16.3821 80.2117 17.0661Q79.1762 17.75 77.6805 17.75ZM89.2123 10.3097L90.5674 9.92614Q90.2158 8.87784 89.3817 8.23864Q88.5475 7.59943 87.0901 7.59943Q86.0546 7.59943 85.2396 7.96378Q84.4246 8.32812 83.9548 8.96733Q83.485 9.60653 83.485 10.4375Q83.485 11.4538 84.1146 12.1282Q84.7442 12.8026 86.0929 13.1222L87.7293 13.5057Q89.1867 13.8445 89.1867 14.8864Q89.1867 15.5192 88.5635 15.9698Q87.9403 16.4205 86.8856 16.4205Q85.0127 16.4205 84.61 14.8352L83.1782 15.1932Q83.4403 16.446 84.4246 17.098Q85.409 17.75 86.9111 17.75Q88.0553 17.75 88.9182 17.3665Q89.7812 16.983 90.2638 16.3182Q90.7464 15.6534 90.7464 14.8097Q90.7464 12.7898 88.1384 12.1506L86.681 11.7926Q85.8117 11.5753 85.4026 11.2493Q84.9935 10.9233 84.9935 10.3608Q84.9935 9.72798 85.5912 9.3157Q86.1888 8.90341 87.0901 8.90341Q88.0809 8.90341 88.5475 9.35085Q89.0141 9.7983 89.2123 10.3097ZM60.114 17.5455L60.114 7.72727L61.6226 7.72727L61.6226 17.5455L60.114 17.5455ZM19.3045 11.8437L13.7115 11.8437Q13.7626 11.0831 14.127 10.4215Q14.4913 9.75994 15.1241 9.35724Q15.7569 8.95454 16.6199 8.95454Q17.8471 8.95454 18.5758 9.77592Q19.3045 10.5973 19.3045 11.8437ZM74.6187 11.8437L80.2117 11.8437Q80.2117 10.5973 79.483 9.77592Q78.7543 8.95454 77.5271 8.95454Q76.6641 8.95454 76.0313 9.35724Q75.3985 9.75994 75.0342 10.4215Q74.6698 11.0831 74.6187 11.8437ZM6.31534 16.1392L3.17045 16.1392L3.17045 11.5881L6.39205 11.5881Q7.24858 11.5881 7.875 11.93Q8.50142 12.272 8.8402 12.8377Q9.17898 13.4034 9.17898 14.0682Q9.17898 14.9311 8.52379 15.5352Q7.86861 16.1392 6.31534 16.1392Z" />
    </g>
  </g>
</svg>