<svg width="20" height="20" viewBox="0 0 20 20" xmlns="http://www.w3.org/2000/svg">
    <g fill-rule="nonzero" fill="none">
        <path d="M5.435 7.286V3.915H2.063A9.924 9.924 0 0 0 0 10c0 2.23.725 4.348 2.063 6.085h3.372v-3.371A5.28 5.28 0 0 1 4.687 10c0-.99.274-1.92.748-2.714z" fill="#FBBD00"/>
        <path d="M7.656 17.656 10 20c2.23 0 4.348-.725 6.085-2.063v-3.368h-3.367a5.312 5.312 0 0 1-2.718.744l-2.344 2.343z" fill="#0F9D58"/>
        <path d="M2.063 16.085c.265.344.554.674.866.986A9.935 9.935 0 0 0 9.999 20v-4.688a5.315 5.315 0 0 1-4.564-2.598l-3.372 3.371z" fill="#31AA52"/>
        <path d="m19.836 8.188-.088-.48H10v4.688h4.744a5.288 5.288 0 0 1-2.027 2.173l3.368 3.368c.344-.265.674-.554.986-.866A9.935 9.935 0 0 0 20 10c0-.608-.055-1.218-.164-1.812z" fill="#3C79E6"/>
        <path d="m14.17 6.658 3.315-3.315-.414-.414A9.935 9.935 0 0 0 10 0L7.656 2.344 10 4.688c1.419 0 2.753.552 3.757 1.555l.414.415z" fill="#CF2D48"/>
        <path d="M10 0a9.935 9.935 0 0 0-7.071 2.929c-.312.312-.6.642-.866.986l3.372 3.371A5.315 5.315 0 0 1 10 4.688V0z" fill="#EB4132"/>
    </g>
</svg>
