<?xml version="1.0" encoding="utf-8"?>
<svg width="340px" height="254px" viewBox="0 0 340 254" version="1.1" xmlns:xlink="http://www.w3.org/1999/xlink" xmlns="http://www.w3.org/2000/svg">
  <g id="Card---NoItems">
    <g id="EmptyState" transform="translate(45 0)" opacity="0.632285">
      <path d="M63 134L154 134C154.515 134 155.017 133.944 155.5 133.839C155.983 133.944 156.485 134 157 134L209 134C212.866 134 216 130.866 216 127C216 123.134 212.866 120 209 120L203 120C199.134 120 196 116.866 196 113C196 109.134 199.134 106 203 106L222 106C225.866 106 229 102.866 229 99C229 95.134 225.866 92 222 92L200 92C203.866 92 207 88.866 207 85C207 81.134 203.866 78 200 78L136 78C139.866 78 143 74.866 143 71C143 67.134 139.866 64 136 64L79 64C75.134 64 72 67.134 72 71C72 74.866 75.134 78 79 78L39 78C35.134 78 32 81.134 32 85C32 88.866 35.134 92 39 92L64 92C67.866 92 71 95.134 71 99C71 102.866 67.866 106 64 106L24 106C20.134 106 17 109.134 17 113C17 116.866 20.134 120 24 120L63 120C59.134 120 56 123.134 56 127C56 130.866 59.134 134 63 134ZM233 127C233 130.866 229.866 134 226 134C222.134 134 219 130.866 219 127C219 123.134 222.134 120 226 120C229.866 120 233 123.134 233 127Z" id="Background" fill="#F8EBE5" fill-rule="evenodd" stroke="none" />
      <path d="M96 66L163 66L157 75L165 81L94 81L103 75L96 66Z" id="Rectangle" fill="#FCE4D8" fill-rule="evenodd" stroke="none" />
      <path d="M93.0061 123.215L93.0061 83C93.0061 81.3431 94.3658 80 96.043 80L165.523 80C166.615 80 167.5 80.8954 167.5 82L167.5 155C167.5 157.209 165.729 159 163.545 159L96.9611 159C94.7768 159 93.0061 157.209 93.0061 155L93.0061 140.055L93.0061 136M93.0061 131.897L93.0061 127.394" id="bag" fill="#FFFFFF" fill-rule="evenodd" stroke="#FC8B56" stroke-width="2.5" stroke-linecap="round" />
      <path d="M95 80L95 68C95 66.8954 95.8036 66 96.7949 66L163.205 66C164.196 66 165 66.8954 165 68L165 80" id="Rectangle" fill="none" fill-rule="evenodd" stroke="#FC8B56" stroke-width="2.5" />
      <path d="M113.5 101C115.433 101 117 99.433 117 97.5C117 95.567 115.433 94 113.5 94C111.567 94 110 95.567 110 97.5C110 99.433 111.567 101 113.5 101Z" id="Oval" fill="#FFFFFF" fill-rule="evenodd" stroke="#FC8B56" stroke-width="2.5" />
      <path d="M146.5 101C148.433 101 150 99.433 150 97.5C150 95.567 148.433 94 146.5 94C144.567 94 143 95.567 143 97.5C143 99.433 144.567 101 146.5 101Z" id="Oval" fill="#FFFFFF" fill-rule="evenodd" stroke="#FC8B56" stroke-width="2.5" />
      <path d="M146 101C146 109.837 138.837 117 130 117C121.163 117 114 109.837 114 101" id="Oval" fill="none" fill-rule="evenodd" stroke="#FC8B56" stroke-width="2.5" stroke-linecap="round" />
      <path d="M96.061 66.9968L103.169 74.013Q103.21 74.0538 103.246 74.0991Q103.283 74.1444 103.314 74.1936Q103.344 74.2427 103.369 74.2952Q103.394 74.3476 103.413 74.4025Q103.432 74.4575 103.444 74.5142Q103.456 74.571 103.461 74.6287Q103.467 74.6865 103.466 74.7445Q103.465 74.8026 103.457 74.8601Q103.449 74.9176 103.434 74.9738Q103.42 75.03 103.399 75.0841Q103.378 75.1382 103.351 75.1896Q103.324 75.2409 103.291 75.2888Q103.258 75.3367 103.22 75.3804Q103.182 75.4242 103.139 75.4632Q103.096 75.5023 103.049 75.5361Q103.002 75.5699 102.951 75.598L95 80" id="Path-3" fill="none" fill-rule="evenodd" stroke="#FC8B56" stroke-width="2.5" stroke-linecap="round" />
      <path d="M164.109 67.0693L157.306 74.0076Q157.266 74.0488 157.23 74.0944Q157.195 74.14 157.165 74.1894Q157.135 74.2387 157.111 74.2912Q157.087 74.3437 157.069 74.3986Q157.051 74.4535 157.04 74.5101Q157.029 74.5667 157.024 74.6242Q157.019 74.6818 157.021 74.7394Q157.023 74.7971 157.031 74.8542Q157.04 74.9113 157.055 74.9671Q157.07 75.0228 157.091 75.0764Q157.112 75.13 157.14 75.1809Q157.167 75.2317 157.2 75.279Q157.233 75.3263 157.272 75.3695Q157.31 75.4127 157.353 75.4512Q157.396 75.4897 157.443 75.523Q157.49 75.5563 157.541 75.584L165.636 80" id="Path-3" fill="none" fill-rule="evenodd" stroke="#FC8B56" stroke-width="2.5" stroke-linecap="round" />
      <path d="M156.1 41.3027L145 53.7559M130 37L130 53.7559M104 41.3027L115.1 53.7559" id="lines" fill="none" fill-rule="evenodd" stroke="#F5BCA2" stroke-width="2.5" stroke-linecap="round" stroke-linejoin="round" />
    </g>
    <g id="Your-list-is-empty" fill="#4A4A4A" transform="translate(0 200)">
      <path d="M145.44 6.54546Q144.95 6.54546 144.599 6.21165Q144.247 5.87784 144.247 5.40909Q144.247 4.94034 144.599 4.60653Q144.95 4.27273 145.44 4.27273Q145.93 4.27273 146.282 4.60653Q146.634 4.94034 146.634 5.40909Q146.634 5.87784 146.282 6.21165Q145.93 6.54546 145.44 6.54546ZM172.695 6.21165Q173.047 6.54546 173.537 6.54546Q174.027 6.54546 174.379 6.21165Q174.73 5.87784 174.73 5.40909Q174.73 4.94034 174.379 4.60653Q174.027 4.27273 173.537 4.27273Q173.047 4.27273 172.695 4.60653Q172.344 4.94034 172.344 5.40909Q172.344 5.87784 172.695 6.21165ZM88.9063 4.72727L90.9233 4.72727L94.9574 11.517L95.1278 11.517L99.1619 4.72727L101.179 4.72727L95.9233 13.2784L95.9233 19.2727L94.1619 19.2727L94.1619 13.2784L88.9063 4.72727ZM141.52 19.2727L141.52 4.72727L139.844 4.72727L139.844 19.2727L141.52 19.2727ZM164.531 8.36364L164.531 9.78409L162.202 9.78409L162.202 16.1477Q162.202 16.858 162.411 17.2095Q162.621 17.5611 162.951 17.6783Q163.281 17.7955 163.651 17.7955Q163.928 17.7955 164.105 17.7635Q164.283 17.7315 164.389 17.7102L164.73 19.2159Q164.56 19.2798 164.254 19.3473Q163.949 19.4148 163.48 19.4148Q162.77 19.4148 162.092 19.1094Q161.413 18.804 160.969 18.179Q160.526 17.554 160.526 16.6023L160.526 9.78409L158.878 9.78409L158.878 8.36364L160.526 8.36364L160.526 5.75L162.202 5.75L162.202 8.36364L164.531 8.36364ZM239.474 8.36364L239.474 9.78409L237.145 9.78409L237.145 16.1477Q237.145 16.858 237.354 17.2095Q237.564 17.5611 237.894 17.6783Q238.224 17.7955 238.594 17.7955Q238.871 17.7955 239.048 17.7635Q239.226 17.7315 239.332 17.7102L239.673 19.2159Q239.503 19.2798 239.197 19.3473Q238.892 19.4148 238.423 19.4148Q237.713 19.4148 237.035 19.1094Q236.357 18.804 235.913 18.179Q235.469 17.554 235.469 16.6023L235.469 9.78409L233.821 9.78409L233.821 8.36364L235.469 8.36364L235.469 5.75L237.145 5.75L237.145 8.36364L239.474 8.36364ZM126.776 19.2727L126.776 8.36364L128.395 8.36364L128.395 10.0114L128.509 10.0114Q128.807 9.20171 129.588 8.69744Q130.369 8.19318 131.349 8.19318Q131.534 8.19318 131.811 8.20028Q132.088 8.20739 132.23 8.22159L132.23 9.92614Q132.145 9.90483 131.843 9.85867Q131.541 9.8125 131.207 9.8125Q130.014 9.8125 129.233 10.5369Q128.452 11.2614 128.452 12.3693L128.452 19.2727L126.776 19.2727ZM107.656 19.5Q106.179 19.5 105.067 18.7969Q103.956 18.0938 103.335 16.8295Q102.713 15.5653 102.713 13.875Q102.713 12.1705 103.335 10.8991Q103.956 9.62784 105.067 8.92472Q106.179 8.22159 107.656 8.22159Q109.134 8.22159 110.245 8.92472Q111.357 9.62784 111.978 10.8991Q112.599 12.1705 112.599 13.875Q112.599 15.5653 111.978 16.8295Q111.357 18.0938 110.245 18.7969Q109.134 19.5 107.656 19.5ZM155.554 11.233L157.06 10.8068Q156.669 9.64205 155.742 8.93182Q154.815 8.22159 153.196 8.22159Q152.045 8.22159 151.14 8.62642Q150.234 9.03125 149.712 9.74148Q149.19 10.4517 149.19 11.375Q149.19 12.5043 149.89 13.2536Q150.589 14.0028 152.088 14.358L153.906 14.7841Q155.526 15.1605 155.526 16.3182Q155.526 17.0213 154.833 17.522Q154.141 18.0227 152.969 18.0227Q150.888 18.0227 150.44 16.2614L148.849 16.6591Q149.141 18.0511 150.234 18.7756Q151.328 19.5 152.997 19.5Q154.268 19.5 155.227 19.0739Q156.186 18.6477 156.722 17.9091Q157.259 17.1705 157.259 16.233Q157.259 13.9886 154.361 13.2784L152.741 12.8807Q151.776 12.6392 151.321 12.277Q150.866 11.9148 150.866 11.2898Q150.866 10.5866 151.531 10.1286Q152.195 9.67046 153.196 9.67045Q154.297 9.67046 154.815 10.1676Q155.334 10.6648 155.554 11.233ZM185.156 10.8068L183.651 11.233Q183.43 10.6648 182.912 10.1676Q182.393 9.67046 181.293 9.67045Q180.291 9.67046 179.627 10.1286Q178.963 10.5866 178.963 11.2898Q178.963 11.9148 179.418 12.277Q179.872 12.6392 180.838 12.8807L182.457 13.2784Q185.355 13.9886 185.355 16.233Q185.355 17.1705 184.819 17.9091Q184.283 18.6477 183.324 19.0739Q182.365 19.5 181.094 19.5Q179.425 19.5 178.331 18.7756Q177.237 18.0511 176.946 16.6591L178.537 16.2614Q178.984 18.0227 181.065 18.0227Q182.237 18.0227 182.93 17.522Q183.622 17.0213 183.622 16.3182Q183.622 15.1605 182.003 14.7841L180.185 14.358Q178.686 14.0028 177.986 13.2536Q177.287 12.5043 177.287 11.375Q177.287 10.4517 177.809 9.74148Q178.331 9.03125 179.236 8.62642Q180.142 8.22159 181.293 8.22159Q182.912 8.22159 183.839 8.93182Q184.766 9.64205 185.156 10.8068ZM195.366 18.8004Q196.506 19.5 198.082 19.5Q199.744 19.5 200.895 18.7401Q202.045 17.9801 202.429 16.7443L200.81 16.2898Q200.49 17.142 199.78 17.5682Q199.07 17.9943 198.082 17.9943Q196.605 17.9943 195.671 17.0639Q194.737 16.1335 194.68 14.3864L202.599 14.3864L202.599 13.6761Q202.599 12.1491 202.195 11.1051Q201.79 10.0611 201.108 9.42543Q200.426 8.78977 199.595 8.50568Q198.764 8.22159 197.912 8.22159Q196.435 8.22159 195.33 8.94247Q194.226 9.66335 193.611 10.9453Q192.997 12.2273 192.997 13.9034Q192.997 15.5795 193.611 16.8402Q194.226 18.1009 195.366 18.8004ZM205.156 19.2727L205.156 8.36364L206.776 8.36364L206.776 10.0682L206.918 10.0682Q207.259 9.1946 208.018 8.7081Q208.778 8.22159 209.844 8.22159Q210.923 8.22159 211.644 8.7081Q212.365 9.1946 212.77 10.0682L212.884 10.0682Q213.303 9.22301 214.141 8.7223Q214.979 8.22159 216.151 8.22159Q217.614 8.22159 218.544 9.13423Q219.474 10.0469 219.474 11.9716L219.474 19.2727L217.798 19.2727L217.798 11.9716Q217.798 10.7642 217.138 10.2457Q216.477 9.72727 215.582 9.72727Q214.432 9.72727 213.8 10.4197Q213.168 11.1122 213.168 12.1705L213.168 19.2727L211.463 19.2727L211.463 11.8011Q211.463 10.8707 210.859 10.299Q210.256 9.72727 209.304 9.72727Q208.651 9.72727 208.086 10.0753Q207.521 10.4233 207.177 11.0376Q206.832 11.652 206.832 12.4545L206.832 19.2727L205.156 19.2727ZM222.543 8.36364L222.543 23.3636L224.219 23.3636L224.219 17.5966L224.361 17.5966Q224.545 17.8949 224.886 18.3459Q225.227 18.7969 225.859 19.1484Q226.491 19.5 227.543 19.5Q228.906 19.5 229.95 18.8075Q230.994 18.1151 231.584 16.8473Q232.173 15.5795 232.173 13.8466Q232.173 12.1278 231.584 10.8636Q230.994 9.59943 229.943 8.91051Q228.892 8.22159 227.514 8.22159Q226.449 8.22159 225.827 8.57315Q225.206 8.92472 224.876 9.36861Q224.545 9.8125 224.361 10.0966L224.162 10.0966L224.162 8.36364L222.543 8.36364ZM122.031 8.36364L122.031 14.8125Q122.031 15.8352 121.587 16.4957Q121.143 17.1563 120.494 17.4759Q119.844 17.7955 119.219 17.7955Q118.175 17.7955 117.504 17.0852Q116.832 16.375 116.832 15.1818L116.832 8.36364L115.156 8.36364L115.156 15.2955Q115.156 17.3835 116.151 18.3991Q117.145 19.4148 118.679 19.4148Q119.915 19.4148 120.724 18.8359Q121.534 18.2571 121.918 17.4261L122.031 17.4261L122.031 19.2727L123.707 19.2727L123.707 8.36364L122.031 8.36364ZM144.588 19.2727L144.588 8.36364L146.264 8.36364L146.264 19.2727L144.588 19.2727ZM172.685 8.36364L172.685 19.2727L174.361 19.2727L174.361 8.36364L172.685 8.36364ZM242.322 23.2962Q242.656 23.3636 243.082 23.3636Q245.362 23.3636 246.293 20.8636L250.923 8.36364L249.105 8.36364L246.094 17.0568L245.98 17.0568L242.969 8.36364L241.151 8.36364L245.185 19.3295L244.872 20.1818Q244.567 21.0128 244.201 21.3857Q243.835 21.7585 243.366 21.8011Q242.898 21.8438 242.287 21.6875L241.861 23.1648Q241.989 23.2287 242.322 23.2962ZM107.656 17.9943Q108.778 17.9943 109.503 17.419Q110.227 16.8438 110.575 15.9063Q110.923 14.9688 110.923 13.875Q110.923 12.7813 110.575 11.8366Q110.227 10.892 109.503 10.3097Q108.778 9.72727 107.656 9.72727Q106.534 9.72727 105.81 10.3097Q105.085 10.892 104.737 11.8366Q104.389 12.7813 104.389 13.875Q104.389 14.9688 104.737 15.9063Q105.085 16.8438 105.81 17.419Q106.534 17.9943 107.656 17.9943ZM200.895 12.9375L194.68 12.9375Q194.737 12.0923 195.142 11.3572Q195.547 10.6222 196.25 10.1747Q196.953 9.72727 197.912 9.72727Q199.276 9.72727 200.085 10.6399Q200.895 11.5526 200.895 12.9375ZM224.996 16.8331Q224.19 15.6719 224.19 13.8182Q224.19 11.9858 224.986 10.8565Q225.781 9.72727 227.315 9.72727Q228.381 9.72727 229.087 10.2706Q229.794 10.8139 230.146 11.7408Q230.497 12.6676 230.497 13.8182Q230.497 14.983 230.138 15.9311Q229.78 16.8793 229.073 17.4368Q228.366 17.9943 227.315 17.9943Q225.803 17.9943 224.996 16.8331Z" />
    </g>
  </g>
</svg>