<?xml version="1.0" encoding="utf-8"?>
<svg width="339.5px" height="220.09985px" viewBox="0 0 339.5 220.09985" version="1.1" xmlns:xlink="http://www.w3.org/1999/xlink" xmlns="http://www.w3.org/2000/svg">
  <defs>
    <linearGradient x1="1.2209529" y1="-0.70975596" x2="-0.38163933" y2="2.2259018" id="gradient_1">
      <stop offset="0%" stop-color="#FFB481" />
      <stop offset="100%" stop-color="#FFCE70" />
    </linearGradient>
    <filter filterUnits="userSpaceOnUse" color-interpolation-filters="sRGB" id="filter_1">
      <feFlood flood-opacity="0" result="BackgroundImageFix" />
      <feColorMatrix in="SourceAlpha" type="matrix" values="0 0 0 0 0 0 0 0 0 0 0 0 0 0 0 0 0 0 127 0" />
      <feOffset dx="0" dy="2" />
      <feGaussianBlur stdDeviation="7.5" />
      <feColorMatrix type="matrix" values="0 0 0 0 0.2901961 0 0 0 0 0.5647059 0 0 0 0 0.8862745 0 0 0 0.6 0" />
      <feBlend mode="normal" in2="BackgroundImageFix" result="effect0_dropShadow" />
      <feBlend mode="normal" in="SourceGraphic" in2="effect0_dropShadow" result="shape" />
    </filter>
  </defs>
  <g id="Group" transform="translate(22.5 0)">
    <g id="Rectangle" transform="translate(0 50.599854)">
      <path d="M7.999 0L281.001 0Q281.197 0 281.393 0.00963514Q281.59 0.0192703 281.785 0.0385174Q281.98 0.0577644 282.175 0.0865771Q282.369 0.11539 282.561 0.153699Q282.754 0.192007 282.945 0.23972Q283.135 0.287433 283.323 0.344434Q283.511 0.401436 283.696 0.467589Q283.881 0.533742 284.062 0.608888Q284.243 0.684033 284.421 0.76799Q284.598 0.851946 284.772 0.944512Q284.945 1.03708 285.113 1.13803Q285.282 1.23898 285.445 1.34807Q285.608 1.45717 285.766 1.57414Q285.924 1.69112 286.076 1.81569Q286.227 1.94026 286.373 2.07213Q286.518 2.204 286.657 2.34285Q286.796 2.4817 286.928 2.6272Q287.06 2.7727 287.184 2.92449Q287.309 3.07628 287.426 3.234Q287.543 3.39172 287.652 3.55499Q287.761 3.71826 287.862 3.88669Q287.963 4.05512 288.055 4.2283Q288.148 4.40148 288.232 4.57899Q288.316 4.7565 288.391 4.93791Q288.466 5.11933 288.532 5.30422Q288.599 5.4891 288.656 5.67701Q288.713 5.86492 288.76 6.0554Q288.808 6.24588 288.846 6.43847Q288.885 6.63106 288.913 6.8253Q288.942 7.01954 288.961 7.21496Q288.981 7.41038 288.99 7.60651Q289 7.80264 289 7.999L289 137.001Q289 137.197 288.99 137.394Q288.981 137.59 288.961 137.785Q288.942 137.98 288.913 138.175Q288.885 138.369 288.846 138.562Q288.808 138.754 288.76 138.945Q288.713 139.135 288.656 139.323Q288.599 139.511 288.532 139.696Q288.466 139.881 288.391 140.062Q288.316 140.243 288.232 140.421Q288.148 140.599 288.055 140.772Q287.963 140.945 287.862 141.113Q287.761 141.282 287.652 141.445Q287.543 141.608 287.426 141.766Q287.309 141.924 287.184 142.076Q287.06 142.227 286.928 142.373Q286.796 142.518 286.657 142.657Q286.518 142.796 286.373 142.928Q286.227 143.06 286.076 143.184Q285.924 143.309 285.766 143.426Q285.608 143.543 285.445 143.652Q285.282 143.761 285.113 143.862Q284.945 143.963 284.772 144.055Q284.598 144.148 284.421 144.232Q284.243 144.316 284.062 144.391Q283.881 144.466 283.696 144.532Q283.511 144.599 283.323 144.656Q283.135 144.713 282.945 144.76Q282.754 144.808 282.561 144.846Q282.369 144.885 282.175 144.913Q281.98 144.942 281.785 144.961Q281.59 144.981 281.393 144.99Q281.197 145 281.001 145L7.999 145Q7.80264 145 7.60651 144.99Q7.41038 144.981 7.21496 144.961Q7.01954 144.942 6.8253 144.913Q6.63106 144.885 6.43847 144.846Q6.24588 144.808 6.0554 144.76Q5.86492 144.713 5.67701 144.656Q5.4891 144.599 5.30422 144.532Q5.11933 144.466 4.93791 144.391Q4.7565 144.316 4.57899 144.232Q4.40148 144.148 4.2283 144.055Q4.05512 143.963 3.88669 143.862Q3.71826 143.761 3.55499 143.652Q3.39172 143.543 3.234 143.426Q3.07628 143.309 2.92449 143.184Q2.7727 143.06 2.6272 142.928Q2.4817 142.796 2.34285 142.657Q2.204 142.518 2.07213 142.373Q1.94026 142.227 1.81569 142.076Q1.69112 141.924 1.57414 141.766Q1.45717 141.608 1.34807 141.445Q1.23898 141.282 1.13803 141.113Q1.03708 140.945 0.944512 140.772Q0.851946 140.599 0.76799 140.421Q0.684033 140.243 0.608888 140.062Q0.533742 139.881 0.467589 139.696Q0.401436 139.511 0.344434 139.323Q0.287433 139.135 0.23972 138.945Q0.192007 138.754 0.153699 138.562Q0.11539 138.369 0.0865771 138.175Q0.0577644 137.98 0.0385174 137.785Q0.0192703 137.59 0.00963514 137.394Q0 137.197 0 137.001L0 7.999Q0 7.80264 0.00963514 7.60651Q0.0192703 7.41038 0.0385174 7.21496Q0.0577644 7.01954 0.0865771 6.8253Q0.11539 6.63106 0.153699 6.43847Q0.192007 6.24588 0.23972 6.0554Q0.287433 5.86492 0.344434 5.67701Q0.401436 5.4891 0.467589 5.30422Q0.533742 5.11933 0.608888 4.93791Q0.684033 4.7565 0.76799 4.57899Q0.851946 4.40148 0.944512 4.2283Q1.03708 4.05512 1.13803 3.88669Q1.23898 3.71826 1.34807 3.55499Q1.45717 3.39172 1.57414 3.234Q1.69112 3.07628 1.81569 2.92449Q1.94026 2.7727 2.07213 2.6272Q2.204 2.4817 2.34285 2.34285Q2.4817 2.204 2.6272 2.07213Q2.7727 1.94026 2.92449 1.81569Q3.07628 1.69112 3.234 1.57414Q3.39172 1.45717 3.55499 1.34807Q3.71826 1.23898 3.88669 1.13803Q4.05512 1.03708 4.2283 0.944512Q4.40148 0.851946 4.57899 0.76799Q4.7565 0.684033 4.93791 0.608888Q5.11933 0.533742 5.30422 0.467589Q5.4891 0.401436 5.67701 0.344434Q5.86492 0.287433 6.0554 0.23972Q6.24588 0.192007 6.43847 0.153699Q6.63106 0.11539 6.8253 0.0865771Q7.01954 0.0577644 7.21496 0.0385174Q7.41038 0.0192703 7.60651 0.00963514Q7.80264 0 7.999 0L7.999 0Z" id="Rectangle" fill="url(#gradient_1)" fill-rule="evenodd" stroke="none" filter="url(#filter_1)" />
    </g>
    <g id="Actionic_receipt" transform="translate(156.40784 0)">
      <g id="Actionic_receipt" transform="matrix(0.8571673 -0.5150381 0.5150381 0.8571673 0 70.56018)" opacity="0.2">
        <g id="ic_receipt">
          <path d="M0 0L137 0L137 137L0 137L0 0Z" id="Bounds" fill="none" fill-rule="evenodd" stroke="none" />
          <path d="M102.75 97.0417L34.25 97.0417L34.25 85.625L102.75 85.625L102.75 97.0417L102.75 97.0417ZM102.75 74.2083L34.2499 74.2083L34.2499 62.7916L102.75 62.7916L102.75 74.2083L102.75 74.2083ZM102.75 51.3749L34.25 51.3749L34.25 39.9583L102.75 39.9583L102.75 51.3749L102.75 51.3749ZM17.1249 125.583L25.6874 117.021L34.2499 125.583L42.8124 117.021L51.3749 125.583L59.9374 117.021L68.4999 125.583L77.0624 117.021L85.6249 125.583L94.1874 117.021L102.75 125.583L111.312 117.021L119.875 125.583L119.875 11.4166L111.312 19.9791L102.75 11.4166L94.1874 19.9791L85.6249 11.4166L77.0624 19.9791L68.4999 11.4166L59.9374 19.9791L51.3749 11.4166L42.8124 19.9791L34.2499 11.4166L25.6874 19.9791L17.1249 11.4166C17.1249 11.4166 17.1249 46.8419 17.1249 75.3835C17.1249 103.925 17.1249 125.583 17.1249 125.583L17.1249 125.583Z" id="Icon" fill="#FFFFFF" fill-rule="evenodd" stroke="none" />
        </g>
      </g>
    </g>
  </g>
</svg>