<?xml version="1.0" encoding="utf-8"?>
<svg width="355.14722px" height="218.14722px" viewBox="0 0 355.14722 218.14722" version="1.1" xmlns:xlink="http://www.w3.org/1999/xlink" xmlns="http://www.w3.org/2000/svg">
  <defs>
    <path d="M93.9412 80L90.0588 80L90.0588 89.8824L81 89.8824L81 94.1176L90.0588 94.1176L90.0588 104L93.9412 104L93.9412 94.1176L103 94.1176L103 89.8824L93.9412 89.8824L93.9412 80Z" id="path_1" />
    <path d="M126.412 189L123.588 189L123.588 196.412L117 196.412L117 199.588L123.588 199.588L123.588 207L126.412 207L126.412 199.588L133 199.588L133 196.412L126.412 196.412L126.412 189Z" id="path_2" />
    <path d="M47.4444 156L43.7778 156L43.7778 166.667L34 166.667L34 170.667L43.7778 170.667L43.7778 180L47.4444 180L47.4444 170.667L56 170.667L56 166.667L47.4444 166.667L47.4444 156Z" id="path_3" />
    <path d="M276.529 111L275.471 111L275.471 113.882L273 113.882L273 115.118L275.471 115.118L275.471 118L276.529 118L276.529 115.118L279 115.118L279 113.882L276.529 113.882L276.529 111Z" id="path_4" />
    <path d="M254.706 189L250.294 189L250.294 200.529L240 200.529L240 205.471L250.294 205.471L250.294 217L254.706 217L254.706 205.471L265 205.471L265 200.529L254.706 200.529L254.706 189Z" id="path_5" />
    <path d="M293.706 159L292.294 159L292.294 163.529L289 163.529L289 165.471L292.294 165.471L292.294 170L293.706 170L293.706 165.471L297 165.471L297 163.529L293.706 163.529L293.706 159Z" id="path_6" />
    <path d="M326.706 86L325.294 86L325.294 90.5294L322 90.5294L322 92.4706L325.294 92.4706L325.294 97L326.706 97L326.706 92.4706L330 92.4706L330 90.5294L326.706 90.5294L326.706 86Z" id="path_7" />
    <clipPath id="clip_1">
      <use xlink:href="#path_1" />
    </clipPath>
    <clipPath id="clip_2">
      <use xlink:href="#path_2" />
    </clipPath>
    <clipPath id="clip_3">
      <use xlink:href="#path_3" />
    </clipPath>
    <clipPath id="clip_4">
      <use xlink:href="#path_4" />
    </clipPath>
    <clipPath id="clip_5">
      <use xlink:href="#path_5" />
    </clipPath>
    <clipPath id="clip_6">
      <use xlink:href="#path_6" />
    </clipPath>
    <clipPath id="clip_7">
      <use xlink:href="#path_7" />
    </clipPath>
  </defs>
  <g id="Illustration-" transform="translate(0.57362366 0.5736084)">
    <path d="M111.236 11.1099C121.045 1.37209 136.436 -0.624169 150.444 0.151113C194.449 2.58932 234.171 26.2935 268.528 53.1062C280.968 62.8103 293.214 73.271 301.287 86.6381C317.736 113.844 312.848 151.541 289.995 173.953C282.217 181.582 272.791 187.436 263.113 192.608C245.906 201.825 227.339 209.222 207.813 211.335C193.885 212.833 179.786 211.616 165.943 209.522C127.262 203.661 89.2928 190.717 57.47 168.593C43.5123 158.878 30.3535 146.807 24.5999 131.091C18.8463 115.376 22.5287 95.4695 36.7819 86.1699C42.6765 82.3234 49.7258 80.5856 56.6241 78.9564C66.7819 76.5557 77.1008 74.1886 86.2683 69.3085C95.7346 64.2673 106.943 54.5144 105.067 43.3571C103.059 31.3646 101.445 20.8478 111.236 11.1099Z" id="Shape" fill="#FBA346" fill-opacity="0.1" stroke="none" />
    <path d="M70.5 51C76.299 51 81 45.6274 81 39C81 32.3726 76.299 27 70.5 27C64.701 27 60 32.3726 60 39C60 45.6274 64.701 51 70.5 51Z" id="Oval" fill="#50E3C2" fill-opacity="0.1" stroke="none" />
    <path d="M47.5 19C51.0899 19 54 15.6421 54 11.5C54 7.35786 51.0899 4 47.5 4C43.9101 4 41 7.35786 41 11.5C41 15.6421 43.9101 19 47.5 19Z" id="Oval" fill="#50E3C2" fill-opacity="0.1" stroke="none" />
    <path d="M14 32C16.2091 32 18 29.9853 18 27.5C18 25.0147 16.2091 23 14 23C11.7909 23 10 25.0147 10 27.5C10 29.9853 11.7909 32 14 32Z" id="Oval" fill="#50E3C2" fill-opacity="0.1" stroke="none" />
    <path d="M0.794118 142.118L25.9063 114.215" id="Line-20" fill="#A44200" fill-rule="evenodd" stroke="#A44200" stroke-width="1.1472603" stroke-linecap="square" />
    <path d="M336.75 168.167L353.521 149.533" id="Line-21" fill="#A44200" fill-rule="evenodd" stroke="#A44200" stroke-width="1.1472603" stroke-linecap="square" />
    <path d="M324.75 128.141L336 118" id="Line-21-Copy" fill="#FBA346" fill-rule="evenodd" stroke="#FBA346" stroke-width="1.1472603" stroke-linecap="square" />
    <path d="M81.7857 200.143L90.4642 190.675" id="Line-22" fill="#FBA346" fill-rule="evenodd" stroke="#FBA346" stroke-width="1.1472603" stroke-linecap="square" />
    <g id="Combined-Shape">
      <use stroke="none" fill="#FBA346" xlink:href="#path_1" fill-rule="evenodd" />
      <g clip-path="url(#clip_1)">
        <use xlink:href="#path_1" fill="none" stroke="#FBA346" stroke-width="2.2945206" />
      </g>
    </g>
    <g id="Combined-Shape-Copy-5">
      <use stroke="none" fill="#FBA346" xlink:href="#path_2" fill-rule="evenodd" />
      <g clip-path="url(#clip_2)">
        <use xlink:href="#path_2" fill="none" stroke="#FBA346" stroke-width="2.2945206" />
      </g>
    </g>
    <g id="shopping-basket" transform="translate(118 29)">
      <path d="M131.683 57.987L111.524 127.204C110.664 130.156 108.201 132.156 105.42 132.156L33.8414 132.156C31.0716 132.156 28.6147 130.172 27.7462 127.236L7.2486 57.987L131.683 57.987Z" id="Path" fill="#FBA346" fill-rule="evenodd" stroke="none" />
      <path d="M131.683 57.987L111.525 127.204C110.664 130.156 108.202 132.156 105.421 132.156L45.919 132.156C43.1492 132.156 40.6924 130.172 39.8239 127.236L19.3296 57.987L131.683 57.987Z" id="Path" fill="#FBA346" fill-rule="evenodd" stroke="none" />
      <path d="M132.489 56.2554C132.093 55.649 131.459 55.2899 130.785 55.2899L19.0704 55.2899C17.9076 55.2899 16.9648 56.3387 16.9648 57.6322C16.9648 58.9258 17.9076 59.9746 19.0704 59.9746L127.887 59.9746L120.297 85.9323L107.851 85.9323L111.254 68.1467C111.496 66.8812 110.77 65.6372 109.633 65.368C108.496 65.0983 107.377 65.9057 107.135 67.1712L103.546 85.9323L89.3607 85.9323L90.7985 67.8652C90.901 66.5765 90.0453 65.4396 88.8866 65.3255C87.7312 65.2108 86.7062 66.1634 86.6037 67.4524L85.1331 85.9323L70.967 85.9323L70.967 67.6588C70.967 66.3653 70.0242 65.3165 68.8614 65.3165C67.6987 65.3165 66.7559 66.3653 66.7559 67.6588L66.7559 85.9323L53.0587 85.9323L51.5881 67.4524C51.4856 66.1637 50.4609 65.2133 49.3052 65.3255C48.1468 65.4396 47.291 66.5765 47.3933 67.8652L48.8311 85.9323L46.2552 85.9323C45.0925 85.9323 44.1497 86.9811 44.1497 88.2746C44.1497 89.5682 45.0925 90.617 46.2552 90.617L49.2038 90.617L50.5298 107.281L38.7308 107.281L35.5424 90.617L37.8333 90.617C38.996 90.617 39.9388 89.5682 39.9388 88.2746C39.9388 86.9811 38.996 85.9323 37.8333 85.9323L34.6463 85.9323L31.0568 67.1712C30.8146 65.906 29.6974 65.0971 28.5591 65.368C27.4218 65.6372 26.696 66.8812 26.9382 68.1467L30.3411 85.9323L17.5645 85.9323L9.85126 59.9746L10.6484 59.9746C11.8112 59.9746 12.754 58.9258 12.754 57.6322C12.754 56.3387 11.8112 55.2899 10.6484 55.2899L6.93798 55.2899C6.26207 55.2899 5.62739 55.6511 5.2314 56.2603C4.83567 56.8698 4.72664 57.6534 4.93874 58.3673L25.3382 127.02C26.4907 130.898 29.7319 133.505 33.4035 133.505L41.1406 133.505C41.1423 133.505 41.1436 133.505 41.1455 133.505C41.148 133.505 41.1509 133.505 41.1534 133.505L54.5388 133.505C54.5397 133.505 54.5407 133.505 54.5416 133.505C54.5426 133.505 54.5435 133.505 54.5445 133.505L83.647 133.505C83.6481 133.505 83.6489 133.505 83.65 133.505C83.6508 133.505 83.6519 133.505 83.6527 133.505L97.0382 133.505C97.0406 133.505 97.0436 133.505 97.046 133.505C97.0477 133.505 97.049 133.505 97.0509 133.505L104.646 133.505C108.337 133.505 111.583 130.882 112.725 126.978L118.975 105.599C119.335 104.368 118.73 103.047 117.624 102.647C116.518 102.247 115.33 102.92 114.971 104.15L114.055 107.281L103.766 107.281L106.955 90.6176L118.928 90.6176L117.576 95.2401C117.216 96.4703 117.821 97.7919 118.927 98.192C119.144 98.2701 119.363 98.3075 119.579 98.3075C120.466 98.3075 121.291 97.6784 121.581 96.689L132.788 58.3573C132.996 57.6434 132.885 56.8625 132.489 56.2554ZM84.7604 90.617L83.4343 107.281L70.967 107.281L70.967 90.617L84.7604 90.617ZM85.9478 128.82L87.2888 111.965L98.5644 111.965L95.3394 128.82L85.9478 128.82ZM81.7204 128.82L70.967 128.82L70.967 111.965L83.0614 111.965L81.7204 128.82ZM56.4714 128.82L55.1304 111.965L66.7564 111.965L66.7564 128.82L56.4714 128.82ZM53.4314 90.617L66.7561 90.617L66.7561 107.281L54.7577 107.281L53.4314 90.617ZM50.903 111.965L52.244 128.82L42.8518 128.82L39.6272 111.965L50.903 111.965ZM31.2372 90.617L34.4255 107.281L23.908 107.281L18.9567 90.617L31.2372 90.617ZM29.3364 125.55L25.3 111.965L35.3219 111.965L38.5469 128.819L33.4038 128.819C31.5521 128.82 29.9177 127.506 29.3364 125.55ZM112.686 111.965L108.721 125.528C108.145 127.497 106.508 128.819 104.647 128.819L99.6458 128.819L102.871 111.965L112.686 111.965L112.686 111.965ZM99.4611 107.281L87.662 107.281L88.9881 90.617L102.65 90.617L99.4611 107.281Z" id="Shape" fill="#A44200" stroke="none" />
      <path d="M138.931 57.3141C138.931 60.0959 137.917 62.6254 136.283 64.4558C134.648 66.2893 132.393 67.4267 129.913 67.4267L9.01861 67.4267C4.05859 67.4267 0 62.8777 0 57.3144C0 54.5325 1.01404 52.003 2.64865 50.1695C4.28327 48.3361 6.53846 47.1987 9.01861 47.1987L129.913 47.1987C134.704 47.1987 138.656 51.4485 138.917 56.7504C138.926 56.9361 138.931 57.1251 138.931 57.3141Z" id="Path" fill="#A44200" fill-rule="evenodd" stroke="none" />
      <path d="M138.931 56.6384L18.6227 56.6384C13.8544 56.6384 9.92457 52.4385 9.6648 47.1987L129.971 47.1987C134.739 47.1987 138.671 51.3986 138.931 56.6384Z" id="Path" fill="#FBA346" fill-rule="evenodd" stroke="none" />
      <path d="M76.1103 6.74021L76.1103 53.9405C76.1103 55.6898 75.5058 57.2875 74.5184 58.4887C73.4117 59.8354 71.8254 60.684 70.0698 60.684C66.7472 60.684 64.0293 57.6497 64.0293 53.9408L64.0293 6.74021C64.0293 3.03404 66.7474 0 70.0698 0C71.7311 0 73.2426 0.758584 74.3354 1.98141C74.3965 2.04961 74.4573 2.1208 74.5184 2.19499C75.5058 3.39329 76.1103 4.99421 76.1103 6.74021Z" id="Path" fill="#FBA346" fill-rule="evenodd" stroke="none" />
      <path d="M76.1103 5.92159L76.1103 53.4109C76.1103 55.1709 75.4228 56.7783 74.2998 57.987C73.1738 56.7783 72.486 55.1709 72.486 53.4109L72.486 5.92159C72.486 4.1646 73.1735 2.55417 74.2998 1.34853C75.4228 2.55417 76.1103 4.1649 76.1103 5.92159Z" id="Path" fill="#A44200" fill-rule="evenodd" stroke="none" />
      <path d="M69.4657 56.6384C70.4666 56.6384 71.2779 55.7328 71.2779 54.6156C71.2779 53.4985 70.4666 52.5928 69.4657 52.5928C68.4649 52.5928 67.6536 53.4985 67.6536 54.6156C67.6536 55.7328 68.4649 56.6384 69.4657 56.6384Z" id="Oval" fill="#00EEFD" fill-rule="evenodd" stroke="none" />
    </g>
    <g id="Combined-Shape-Copy-6">
      <use stroke="none" fill="#A44200" xlink:href="#path_3" fill-rule="evenodd" />
      <g clip-path="url(#clip_3)">
        <use xlink:href="#path_3" fill="none" stroke="#A44200" stroke-width="2.2945206" />
      </g>
    </g>
    <g id="Combined-Shape-Copy-7">
      <use stroke="none" fill="#FBA346" xlink:href="#path_4" fill-rule="evenodd" />
      <g clip-path="url(#clip_4)">
        <use xlink:href="#path_4" fill="none" stroke="#FBA346" stroke-width="2.2945206" />
      </g>
    </g>
    <g id="Combined-Shape-Copy-8">
      <use stroke="none" fill="#A44200" xlink:href="#path_5" fill-rule="evenodd" />
      <g clip-path="url(#clip_5)">
        <use xlink:href="#path_5" fill="none" stroke="#A44200" stroke-width="2.2945206" />
      </g>
    </g>
    <g id="Combined-Shape-Copy-9">
      <use stroke="none" fill="#FBA346" xlink:href="#path_6" fill-rule="evenodd" />
      <g clip-path="url(#clip_6)">
        <use xlink:href="#path_6" fill="none" stroke="#FBA346" stroke-width="2.2945206" />
      </g>
    </g>
    <g id="Combined-Shape-Copy-10">
      <use stroke="none" fill="#A44200" xlink:href="#path_7" fill-rule="evenodd" />
      <g clip-path="url(#clip_7)">
        <use xlink:href="#path_7" fill="none" stroke="#A44200" stroke-width="2.2945206" />
      </g>
    </g>
  </g>
</svg>