
<svg width="24px" height="24px" viewBox="0 0 24 24" version="1.1" xmlns="http://www.w3.org/2000/svg" xmlns:xlink="http://www.w3.org/1999/xlink">
    <g id="Page-1" stroke="none" stroke-width="1" fill="none" fill-rule="evenodd">
        <g id="High-Priority-List" transform="translate(-320.000000, -352.000000)">
            <g id="Group-5" transform="translate(49.000000, 313.000000)">
                <g id="Group-2" transform="translate(240.000000, 37.000000)">
                    <g id="Document-Found-Duotone" transform="translate(31.000000, 2.000000)">
                        <rect id="Rectangle" x="0" y="0" width="24" height="24"></rect>
                        <path d="M17.88,14.59 C17.5864874,14.4729684 17.2756094,14.4053863 16.96,14.39 L16.73,14.39 C15.9243355,14.3901137 15.1474312,14.6894713 14.55,15.23 C13.9750209,15.7829073 13.6197762,16.5253688 13.55,17.32 C13.4775573,18.1249061 13.7094833,18.9277266 14.2,19.57 C14.941559,20.5449861 16.1708336,21.0165921 17.3742254,20.7877782 C18.5776173,20.5589642 19.5480225,19.6691093 19.88,18.49 C20.33663,16.8694864 19.4636443,15.1715294 17.88,14.6 L17.88,14.59 Z M18.75,17.11 L17,18.84 C16.9138991,18.930198 16.8076695,18.9987333 16.69,19.04 C16.5796951,19.088137 16.4603342,19.1120092 16.34,19.11 C16.2175416,19.1096389 16.0959561,19.0893746 15.98,19.05 C15.8666652,19.0012989 15.7645518,18.9298195 15.68,18.84 L14.87,18 C14.7867453,17.9142692 14.7401218,17.7995036 14.74,17.68 C14.7373097,17.5562771 14.7845836,17.4366888 14.8711437,17.348247 C14.9577037,17.2598052 15.0762479,17.2099708 15.2,17.21 C15.3246421,17.2089489 15.4441368,17.2596436 15.53,17.35 L16.35,18.17 L18.11,16.43 C18.2883706,16.2572723 18.5716294,16.2572723 18.75,16.43 C18.7901389,16.4751123 18.8237959,16.5255978 18.85,16.58 C18.90265,16.6942249 18.90265,16.8257751 18.85,16.94 C18.8285336,17.0028588 18.7945112,17.0606969 18.75,17.11 Z" id="Shape" fill="#FFA77E" fill-rule="nonzero"></path>
                        <path d="M15.58,3.15 L5.42,3.15 C5.0443421,3.14266324 4.68238649,3.29106504 4.42,3.56 C4.15403231,3.82437789 4.00617442,4.18500687 4.00992757,4.56 L4.00992757,17.46 C4.00731259,17.826816 4.1518419,18.179388 4.41122694,18.4387731 C4.67061199,18.6981581 5.02318399,18.8426874 5.39,18.8400368 L12.78,18.8400368 C12.5810667,18.2201153 12.536442,17.5610429 12.65,16.92 C12.9867618,14.9177894 14.7196664,13.4511604 16.75,13.45 L17.0001171,13.45 L17.0001171,4.54 C17.0023818,4.35518556 16.9684041,4.17170595 16.9,4 C16.826421,3.82611603 16.7174414,3.66945791 16.58,3.54 C16.4478115,3.41081702 16.291514,3.3088839 16.12,3.24 C15.9462673,3.18014014 15.7637558,3.14974032 15.58,3.15 Z M13.58,12.86 L7.07,12.86 C6.95049642,12.8598782 6.83573081,12.8132547 6.75,12.73 C6.6608018,12.6433782 6.61046841,12.5243369 6.61046841,12.4 C6.61046841,12.2756631 6.6608018,12.1566218 6.75,12.07 C6.83573081,11.9867453 6.95049642,11.9401218 7.07,11.94 L13.54,11.94 C13.6595036,11.9401218 13.7742692,11.9867453 13.86,12.07 C13.9491982,12.1566218 13.9995316,12.2756631 13.9995316,12.4 C13.9995316,12.5243369 13.9491982,12.6433782 13.86,12.73 C13.7742692,12.8132547 13.6595036,12.8598782 13.54,12.86 L13.58,12.86 Z M13.58,9.99 L7.07,9.99 C6.95049642,9.98987825 6.83573081,9.94325472 6.75,9.86 C6.6608018,9.77337816 6.61046841,9.65433689 6.61046841,9.53 C6.61046841,9.40566311 6.6608018,9.28662184 6.75,9.2 C6.83573081,9.11674528 6.95049642,9.07012175 7.07,9.07 L13.54,9.07 C13.6595036,9.07012175 13.7742692,9.11674528 13.86,9.2 C13.9491982,9.28662184 13.9995316,9.40566311 13.9995316,9.53 C13.9995316,9.65433689 13.9491982,9.77337816 13.86,9.86 C13.7758883,9.94692352 13.6609246,9.99722014 13.54,10 L13.58,9.99 Z M13.58,7.13 L7.07,7.13 C6.95049642,7.12987825 6.83573081,7.08325472 6.75,7 C6.6608018,6.91337816 6.61046841,6.79433689 6.61046841,6.67 C6.61046841,6.54566311 6.6608018,6.42662184 6.75,6.34 C6.83573081,6.25674528 6.95049642,6.21012175 7.07,6.21 L13.54,6.21 C13.6595036,6.21012175 13.7742692,6.25674528 13.86,6.34 C13.9491982,6.42662184 13.9995316,6.54566311 13.9995316,6.67 C13.9995316,6.79433689 13.9491982,6.91337816 13.86,7 C13.7742692,7.08325472 13.6595036,7.12987825 13.54,7.13 L13.58,7.13 Z" id="Shape" fill="#828282" fill-rule="nonzero"></path>
                    </g>
                </g>
            </g>
        </g>
    </g>
</svg>