<?xml version="1.0" encoding="utf-8"?>
<svg width="83px" height="27px" viewBox="0 0 83 27" version="1.1" xmlns:xlink="http://www.w3.org/1999/xlink" xmlns="http://www.w3.org/2000/svg">
  <defs>
    <path d="M12.499 0L69.501 0Q69.8078 0 70.1143 0.0150556Q70.4208 0.0301112 70.7261 0.0601861Q71.0315 0.090261 71.335 0.135283Q71.6385 0.180305 71.9394 0.240165Q72.2404 0.300025 72.538 0.374579Q72.8356 0.449134 73.1293 0.538203Q73.4229 0.627272 73.7118 0.730641Q74.0007 0.83401 74.2841 0.95143Q74.5676 1.06885 74.845 1.20004Q75.1224 1.33123 75.393 1.47587Q75.6636 1.62051 75.9268 1.77825Q76.1899 1.93599 76.4451 2.10646Q76.7002 2.27693 76.9466 2.45971Q77.1931 2.64249 77.4303 2.83714Q77.6675 3.0318 77.8948 3.23785Q78.1222 3.44391 78.3391 3.66087Q78.5561 3.87784 78.7621 4.10518Q78.9682 4.33253 79.1628 4.56972Q79.3575 4.8069 79.5403 5.05335Q79.7231 5.2998 79.8935 5.55493Q80.064 5.81005 80.2217 6.07323Q80.3795 6.33641 80.5241 6.60701Q80.6688 6.87761 80.7999 7.15499Q80.9311 7.43236 81.0486 7.71584Q81.166 7.99932 81.2693 8.28821Q81.3727 8.57711 81.4618 8.87073Q81.5508 9.16435 81.6254 9.46199Q81.7 9.75963 81.7598 10.0606Q81.8197 10.3615 81.8647 10.665Q81.9097 10.9685 81.9398 11.2739Q81.9699 11.5792 81.9849 11.8857Q82 12.1922 82 12.499L82 12.501Q82 12.8078 81.9849 13.1143Q81.9699 13.4208 81.9398 13.7261Q81.9097 14.0315 81.8647 14.335Q81.8197 14.6385 81.7598 14.9394Q81.7 15.2404 81.6254 15.538Q81.5508 15.8356 81.4618 16.1293Q81.3727 16.4229 81.2693 16.7118Q81.166 17.0007 81.0486 17.2842Q80.9311 17.5676 80.7999 17.845Q80.6688 18.1224 80.5241 18.393Q80.3795 18.6636 80.2217 18.9268Q80.064 19.1899 79.8935 19.4451Q79.7231 19.7002 79.5403 19.9466Q79.3575 20.1931 79.1629 20.4303Q78.9682 20.6675 78.7621 20.8948Q78.5561 21.1222 78.3391 21.3391Q78.1222 21.5561 77.8948 21.7621Q77.6675 21.9682 77.4303 22.1629Q77.1931 22.3575 76.9466 22.5403Q76.7002 22.7231 76.4451 22.8935Q76.1899 23.064 75.9268 23.2217Q75.6636 23.3795 75.393 23.5241Q75.1224 23.6688 74.845 23.8Q74.5676 23.9311 74.2841 24.0486Q74.0007 24.166 73.7118 24.2694Q73.4229 24.3727 73.1293 24.4618Q72.8356 24.5509 72.538 24.6254Q72.2404 24.7 71.9394 24.7598Q71.6385 24.8197 71.335 24.8647Q71.0315 24.9097 70.7261 24.9398Q70.4208 24.9699 70.1143 24.9849Q69.8078 25 69.501 25L12.499 25Q12.1922 25 11.8857 24.9849Q11.5792 24.9699 11.2739 24.9398Q10.9685 24.9097 10.665 24.8647Q10.3615 24.8197 10.0606 24.7598Q9.75963 24.7 9.46199 24.6254Q9.16435 24.5509 8.87073 24.4618Q8.57711 24.3727 8.28821 24.2694Q7.99932 24.166 7.71584 24.0486Q7.43236 23.9311 7.15499 23.8Q6.87761 23.6688 6.60701 23.5241Q6.33641 23.3795 6.07323 23.2217Q5.81005 23.064 5.55493 22.8935Q5.2998 22.7231 5.05335 22.5403Q4.8069 22.3575 4.56972 22.1629Q4.33253 21.9682 4.10518 21.7621Q3.87784 21.5561 3.66087 21.3391Q3.44391 21.1222 3.23785 20.8948Q3.0318 20.6675 2.83714 20.4303Q2.64249 20.1931 2.45971 19.9466Q2.27693 19.7002 2.10646 19.4451Q1.93599 19.1899 1.77825 18.9268Q1.62051 18.6636 1.47587 18.393Q1.33123 18.1224 1.20004 17.845Q1.06885 17.5676 0.95143 17.2842Q0.83401 17.0007 0.730641 16.7118Q0.627272 16.4229 0.538203 16.1293Q0.449134 15.8356 0.374579 15.538Q0.300025 15.2404 0.240165 14.9394Q0.180305 14.6385 0.135283 14.335Q0.090261 14.0315 0.0601861 13.7261Q0.0301112 13.4208 0.0150556 13.1143Q0 12.8078 0 12.501L0 12.499Q0 12.1922 0.0150556 11.8857Q0.0301112 11.5792 0.0601861 11.2739Q0.090261 10.9685 0.135283 10.665Q0.180305 10.3615 0.240165 10.0606Q0.300025 9.75963 0.374579 9.46199Q0.449134 9.16435 0.538203 8.87073Q0.627272 8.57711 0.730641 8.28821Q0.83401 7.99932 0.95143 7.71584Q1.06885 7.43236 1.20004 7.15499Q1.33123 6.87761 1.47587 6.60701Q1.62051 6.33641 1.77825 6.07323Q1.93599 5.81005 2.10646 5.55493Q2.27693 5.2998 2.45971 5.05335Q2.64249 4.8069 2.83714 4.56972Q3.0318 4.33253 3.23785 4.10518Q3.44391 3.87784 3.66087 3.66087Q3.87784 3.44391 4.10518 3.23785Q4.33253 3.0318 4.56972 2.83714Q4.8069 2.64249 5.05335 2.45971Q5.2998 2.27693 5.55493 2.10646Q5.81005 1.93599 6.07323 1.77825Q6.33641 1.62051 6.60701 1.47587Q6.87761 1.33123 7.15499 1.20004Q7.43236 1.06885 7.71584 0.95143Q7.99932 0.83401 8.28821 0.730641Q8.57711 0.627272 8.87073 0.538203Q9.16435 0.449134 9.46199 0.374579Q9.75963 0.300025 10.0606 0.240165Q10.3615 0.180305 10.665 0.135283Q10.9685 0.090261 11.2739 0.0601861Q11.5792 0.0301112 11.8857 0.0150556Q12.1922 0 12.499 0L12.499 0Z" id="path_1" />
    <clipPath id="clip_1">
      <use xlink:href="#path_1" />
    </clipPath>
  </defs>
  <g id="Group-2" transform="translate(0.5 0.5)">
    <g id="Group">
      <g id="Rectangle">
        <g clip-path="url(#clip_1)">
          <use xlink:href="#path_1" fill="none" stroke="#979797" stroke-opacity="0.3" stroke-width="2" />
        </g>
      </g>
      <path d="M25.5 1.5L25.5 23.5" id="Line" fill="none" fill-rule="evenodd" stroke="#979797" stroke-opacity="0.3" stroke-width="1" stroke-linecap="square" />
      <path d="M56.5 1.5L56.5 23.5" id="Line-Copy" fill="none" fill-rule="evenodd" stroke="#979797" stroke-opacity="0.3" stroke-width="1" stroke-linecap="square" />
      <path d="M71 12.6588L67.6902 12.6588L67.6902 16L66.2941 16L66.2941 12.6588L63 12.6588L63 11.3569L66.2941 11.3569L66.2941 8L67.6902 8L67.6902 11.3569L71 11.3569L71 12.6588Z" id="+" fill="#4A4A4A" fill-rule="evenodd" stroke="none" />
      <path d="M10 12L18.8889 12L18.8889 13.3333L10 13.3333L10 12Z" id="Rectangle" fill="#4A4A4A" fill-rule="evenodd" stroke="none" />
    </g>
    <g id="Document-Found-Duotone" transform="translate(31 2)">
      <path d="M0 0L24 0L24 24L0 24L0 0Z" id="Rectangle" fill="none" fill-rule="evenodd" stroke="none" />
      <path d="M17.88 14.59C17.5865 14.473 17.2756 14.4054 16.96 14.39L16.73 14.39C15.9243 14.3901 15.1474 14.6895 14.55 15.23C13.975 15.7829 13.6198 16.5254 13.55 17.32C13.4776 18.1249 13.7095 18.9277 14.2 19.57C14.9416 20.545 16.1708 21.0166 17.3742 20.7878C18.5776 20.559 19.548 19.6691 19.88 18.49C20.3366 16.8695 19.4636 15.1715 17.88 14.6L17.88 14.59ZM18.75 17.11L17 18.84C16.9139 18.9302 16.8077 18.9987 16.69 19.04C16.5797 19.0881 16.4603 19.112 16.34 19.11C16.2175 19.1096 16.096 19.0894 15.98 19.05C15.8667 19.0013 15.7646 18.9298 15.68 18.84L14.87 18C14.7867 17.9143 14.7401 17.7995 14.74 17.68C14.7373 17.5563 14.7846 17.4367 14.8711 17.3482C14.9577 17.2598 15.0762 17.21 15.2 17.21C15.3246 17.209 15.4441 17.2596 15.53 17.35L16.35 18.17L18.11 16.43C18.2884 16.2573 18.5716 16.2573 18.75 16.43C18.7901 16.4751 18.8238 16.5256 18.85 16.58C18.9026 16.6942 18.9026 16.8258 18.85 16.94C18.8285 17.0029 18.7945 17.0607 18.75 17.11Z" id="Shape" fill="#FFA77E" stroke="none" />
      <path d="M15.58 3.15L5.42 3.15C5.04434 3.14266 4.68239 3.29106 4.42 3.56C4.15403 3.82438 4.00617 4.18501 4.01 4.56L4.01 17.46C4.00731 17.8268 4.15184 18.1794 4.41123 18.4388C4.67061 18.6982 5.02318 18.8427 5.39 18.84L12.78 18.84C12.5811 18.2201 12.5364 17.561 12.65 16.92C12.9868 14.9178 14.7197 13.4512 16.75 13.45L17 13.45L17 4.54C17.0024 4.35519 16.9684 4.17171 16.9 4C16.8264 3.82612 16.7174 3.66946 16.58 3.54C16.4478 3.41082 16.2915 3.30888 16.12 3.24C15.9463 3.18014 15.7638 3.14972 15.58 3.15ZM13.58 12.86L7.07 12.86C6.9505 12.8599 6.83573 12.8133 6.75 12.73C6.6608 12.6434 6.61047 12.5243 6.61047 12.4C6.61047 12.2757 6.6608 12.1566 6.75 12.07C6.83573 11.9867 6.9505 11.9401 7.07 11.94L13.54 11.94C13.6595 11.9401 13.7743 11.9867 13.86 12.07C13.9492 12.1566 13.9995 12.2757 13.9995 12.4C13.9995 12.5243 13.9492 12.6434 13.86 12.73C13.7743 12.8133 13.6595 12.8599 13.54 12.86L13.58 12.86ZM13.58 9.99L7.07 9.99C6.9505 9.98988 6.83573 9.94325 6.75 9.86C6.6608 9.77338 6.61047 9.65434 6.61047 9.53C6.61047 9.40566 6.6608 9.28662 6.75 9.2C6.83573 9.11674 6.9505 9.07012 7.07 9.07L13.54 9.07C13.6595 9.07012 13.7743 9.11674 13.86 9.2C13.9492 9.28662 13.9995 9.40566 13.9995 9.53C13.9995 9.65434 13.9492 9.77338 13.86 9.86C13.7759 9.94692 13.6609 9.99722 13.54 10L13.58 9.99ZM13.58 7.13L7.07 7.13C6.9505 7.12988 6.83573 7.08325 6.75 7C6.6608 6.91338 6.61047 6.79434 6.61047 6.67C6.61047 6.54566 6.6608 6.42662 6.75 6.34C6.83573 6.25675 6.9505 6.21012 7.07 6.21L13.54 6.21C13.6595 6.21012 13.7743 6.25675 13.86 6.34C13.9492 6.42662 13.9995 6.54566 13.9995 6.67C13.9995 6.79434 13.9492 6.91338 13.86 7C13.7743 7.08325 13.6595 7.12988 13.54 7.13L13.58 7.13Z" id="Shape" fill="#828282" stroke="none" />
    </g>
  </g>
</svg>