<?xml version="1.0" encoding="utf-8"?>
<svg width="342px" height="92px" viewBox="0 0 342 92" version="1.1" xmlns:xlink="http://www.w3.org/1999/xlink" xmlns="http://www.w3.org/2000/svg">
  <defs>
    <linearGradient x1="0" y1="0.5" x2="1" y2="0.5" id="gradient_1">
      <stop offset="0%" stop-color="#FC8B56" />
      <stop offset="100%" stop-color="#FB9D58" />
    </linearGradient>
    <filter filterUnits="userSpaceOnUse" color-interpolation-filters="sRGB" id="filter_1">
      <feFlood flood-opacity="0" result="BackgroundImageFix" />
      <feColorMatrix in="SourceAlpha" type="matrix" values="0 0 0 0 0 0 0 0 0 0 0 0 0 0 0 0 0 0 127 0" />
      <feOffset dx="0" dy="3" />
      <feGaussianBlur stdDeviation="5" />
      <feColorMatrix type="matrix" values="0 0 0 0 1 0 0 0 0 0.7764706 0 0 0 0 0.5647059 0 0 0 1 0" />
      <feBlend mode="normal" in2="BackgroundImageFix" result="effect0_dropShadow" />
      <feBlend mode="normal" in="SourceGraphic" in2="effect0_dropShadow" result="shape" />
    </filter>
  </defs>
  <g id="Scan-Barcode" transform="translate(15 12)">
    <g id="Group-7" transform="translate(46 4)">
      <path d="M11.999 0L269.001 0Q269.296 0 269.59 0.0144533Q269.884 0.0289066 270.177 0.0577785Q270.47 0.0866503 270.762 0.129871Q271.053 0.173092 271.342 0.230557Q271.631 0.288023 271.917 0.359595Q272.202 0.431167 272.484 0.516673Q272.766 0.602179 273.043 0.701413Q273.321 0.800647 273.593 0.913369Q273.865 1.02609 274.131 1.15203Q274.397 1.27797 274.657 1.41683Q274.917 1.55568 275.17 1.70711Q275.422 1.85855 275.667 2.0222Q275.912 2.18584 276.149 2.36131Q276.385 2.53678 276.613 2.72365Q276.841 2.91051 277.059 3.10833Q277.277 3.30614 277.486 3.51443Q277.694 3.72271 277.892 3.94096Q278.089 4.15922 278.276 4.38691Q278.463 4.61461 278.639 4.8512Q278.814 5.0878 278.978 5.33271Q279.141 5.57763 279.293 5.83028Q279.444 6.08293 279.583 6.34271Q279.722 6.60249 279.848 6.86877Q279.974 7.13504 280.087 7.40718Q280.199 7.67932 280.299 7.95666Q280.398 8.234 280.483 8.51587Q280.569 8.79775 280.64 9.08348Q280.712 9.36921 280.769 9.65811Q280.827 9.94701 280.87 10.2384Q280.913 10.5298 280.942 10.8229Q280.971 11.116 280.986 11.4102Q281 11.7044 281 11.999L281 42.001Q281 42.2956 280.986 42.5898Q280.971 42.884 280.942 43.1771Q280.913 43.4702 280.87 43.7616Q280.827 44.053 280.769 44.3419Q280.712 44.6308 280.64 44.9165Q280.569 45.2022 280.483 45.4841Q280.398 45.766 280.299 46.0433Q280.199 46.3207 280.087 46.5928Q279.974 46.8649 279.848 47.1312Q279.722 47.3975 279.583 47.6573Q279.444 47.9171 279.293 48.1697Q279.141 48.4224 278.978 48.6673Q278.814 48.9122 278.639 49.1488Q278.463 49.3854 278.276 49.6131Q278.089 49.8408 277.892 50.059Q277.694 50.2773 277.486 50.4856Q277.277 50.6939 277.059 50.8917Q276.841 51.0895 276.613 51.2763Q276.385 51.4632 276.149 51.6387Q275.912 51.8141 275.667 51.9778Q275.422 52.1414 275.17 52.2929Q274.917 52.4443 274.657 52.5832Q274.397 52.722 274.131 52.848Q273.865 52.9739 273.593 53.0866Q273.321 53.1993 273.043 53.2986Q272.766 53.3978 272.484 53.4833Q272.202 53.5688 271.917 53.6404Q271.631 53.712 271.342 53.7694Q271.053 53.8269 270.762 53.8701Q270.47 53.9133 270.177 53.9422Q269.884 53.9711 269.59 53.9855Q269.296 54 269.001 54L11.999 54Q11.7044 54 11.4102 53.9855Q11.116 53.9711 10.8229 53.9422Q10.5298 53.9133 10.2384 53.8701Q9.94701 53.8269 9.65811 53.7694Q9.36921 53.712 9.08348 53.6404Q8.79775 53.5688 8.51587 53.4833Q8.234 53.3978 7.95666 53.2986Q7.67932 53.1993 7.40718 53.0866Q7.13504 52.9739 6.86877 52.848Q6.60249 52.722 6.34271 52.5832Q6.08293 52.4443 5.83028 52.2929Q5.57763 52.1414 5.33271 51.9778Q5.0878 51.8141 4.8512 51.6387Q4.61461 51.4632 4.38691 51.2763Q4.15922 51.0895 3.94096 50.8917Q3.72271 50.6939 3.51443 50.4856Q3.30614 50.2773 3.10833 50.059Q2.91051 49.8408 2.72365 49.6131Q2.53678 49.3854 2.36131 49.1488Q2.18584 48.9122 2.0222 48.6673Q1.85855 48.4224 1.70711 48.1697Q1.55568 47.9171 1.41683 47.6573Q1.27797 47.3975 1.15203 47.1312Q1.02609 46.8649 0.913369 46.5928Q0.800647 46.3207 0.701413 46.0433Q0.602179 45.766 0.516673 45.4841Q0.431167 45.2022 0.359595 44.9165Q0.288023 44.6308 0.230557 44.3419Q0.173092 44.053 0.129871 43.7616Q0.0866503 43.4702 0.0577785 43.1771Q0.0289066 42.884 0.0144533 42.5898Q0 42.2956 0 42.001L0 11.999Q0 11.7044 0.0144533 11.4102Q0.0289066 11.116 0.0577785 10.8229Q0.0866503 10.5298 0.129871 10.2384Q0.173092 9.94701 0.230557 9.65811Q0.288023 9.36921 0.359595 9.08348Q0.431167 8.79775 0.516673 8.51587Q0.602179 8.234 0.701413 7.95666Q0.800647 7.67932 0.913369 7.40718Q1.02609 7.13504 1.15203 6.86877Q1.27797 6.60249 1.41683 6.34271Q1.55568 6.08293 1.70711 5.83028Q1.85855 5.57763 2.0222 5.33271Q2.18584 5.0878 2.36131 4.8512Q2.53678 4.61461 2.72365 4.38691Q2.91051 4.15922 3.10833 3.94096Q3.30614 3.72271 3.51443 3.51443Q3.72271 3.30614 3.94096 3.10833Q4.15922 2.91051 4.38691 2.72365Q4.61461 2.53678 4.8512 2.36131Q5.0878 2.18584 5.33271 2.0222Q5.57763 1.85855 5.83028 1.70711Q6.08293 1.55568 6.34271 1.41683Q6.60249 1.27797 6.86877 1.15203Q7.13504 1.02609 7.40718 0.913369Q7.67932 0.800647 7.95666 0.701413Q8.234 0.602179 8.51587 0.516673Q8.79775 0.431167 9.08348 0.359595Q9.36921 0.288023 9.65811 0.230557Q9.94701 0.173092 10.2384 0.129871Q10.5298 0.0866503 10.8229 0.0577785Q11.116 0.0289066 11.4102 0.0144533Q11.7044 0 11.999 0L11.999 0Z" id="Rectangle" fill="url(#gradient_1)" fill-rule="evenodd" stroke="none" />
      <g id="Group-6" transform="translate(219.5668 18)">
        <path d="M3.64049 0L0 0L7.28097 8.94545L0 18L3.64049 18L10.9215 8.94545L3.64049 0Z" id="Path" fill="#FFFFFF" fill-opacity="0.3" stroke="none" />
        <path d="M11.1743 0L7.53378 0L14.8148 8.94545L7.53378 18L11.1743 18L18.4552 8.94545L11.1743 0Z" id="Path" fill="#FFFFFF" fill-opacity="0.5" stroke="none" />
        <path d="M18.7081 0L15.0676 0L22.3485 8.94545L15.0676 18L18.7081 18L25.989 8.94545L18.7081 0Z" id="Path" fill="#FFFFFF" fill-opacity="0.7" stroke="none" />
        <path d="M26.2418 0L22.6013 0L29.8823 8.94545L22.6013 18L26.2418 18L33.5228 8.94545L26.2418 0Z" id="Path-Copy" fill="#FFFFFF" stroke="none" />
      </g>
    </g>
    <g id="Scan--Barcode" fill="#FFFFFF" transform="translate(73 17)">
      <path d="M60.0946 11.4545Q60.0051 10.6989 59.3687 10.2812Q58.7324 9.86364 57.8077 9.86364Q56.7935 9.86364 56.177 10.3434Q55.5605 10.8232 55.5605 11.554Q55.5605 12.1009 55.8961 12.4364Q56.2317 12.772 56.6915 12.9585Q57.1514 13.1449 57.5293 13.2443L58.5634 13.5227Q58.9611 13.6271 59.4508 13.8111Q59.9405 13.995 60.3904 14.3107Q60.8403 14.6264 61.1337 15.1186Q61.427 15.6108 61.427 16.3267Q61.427 17.152 60.9969 17.8182Q60.5669 18.4844 59.7441 18.8771Q58.9213 19.2699 57.748 19.2699Q56.1074 19.2699 55.1429 18.4943Q54.1784 17.7188 54.0889 16.4659L55.3616 16.4659Q55.4114 17.0426 55.7519 17.418Q56.0925 17.7933 56.617 17.9748Q57.1415 18.1563 57.748 18.1562Q58.454 18.1563 59.0158 17.9251Q59.5776 17.6939 59.9057 17.2788Q60.2338 16.8636 60.2338 16.3068Q60.2338 15.7997 59.9504 15.4815Q59.667 15.1634 59.2047 14.9645Q58.7423 14.7656 58.2054 14.6165L56.9526 14.2585Q55.7594 13.9155 55.0634 13.2791Q54.3673 12.6428 54.3673 11.6136Q54.3673 10.7585 54.8322 10.1197Q55.297 9.48082 56.085 9.12535Q56.873 8.76989 57.8474 8.76989Q58.8318 8.76989 59.5974 9.12038Q60.3631 9.47088 60.813 10.0774Q61.2629 10.6839 61.2878 11.4545L60.0946 11.4545ZM95.4088 8.90909L95.4088 19.0909L99.0878 19.0909Q100.291 19.0909 101.042 18.733Q101.792 18.375 102.14 17.7635Q102.488 17.152 102.488 16.3864Q102.488 15.581 102.17 15.0241Q101.852 14.4673 101.38 14.169Q100.907 13.8707 100.44 13.8409L100.44 13.7415Q100.878 13.6222 101.253 13.3736Q101.628 13.125 101.859 12.6974Q102.091 12.2699 102.091 11.6136Q102.091 10.8679 101.753 10.2539Q101.414 9.63991 100.723 9.2745Q100.032 8.90909 98.9685 8.90909L95.4088 8.90909ZM136.733 19.25Q135.778 19.25 135.047 18.7653Q134.316 18.2805 133.904 17.3931Q133.491 16.5057 133.491 15.2926Q133.491 14.0895 133.904 13.2045Q134.316 12.3196 135.052 11.8374Q135.788 11.3551 136.753 11.3551Q137.498 11.3551 137.933 11.6012Q138.368 11.8473 138.599 12.158Q138.831 12.4687 138.96 12.6676L139.059 12.6676L139.059 8.90909L140.233 8.90909L140.233 19.0909L139.099 19.0909L139.099 17.9176L138.96 17.9176Q138.831 18.1264 138.592 18.4421Q138.353 18.7578 137.911 19.0039Q137.468 19.25 136.733 19.25ZM98.9287 13.3835L96.6418 13.3835L96.6418 10.0028L98.9685 10.0028Q99.9827 10.0028 100.45 10.4727Q100.917 10.9425 100.917 11.6136Q100.917 12.419 100.341 12.9013Q99.7639 13.3835 98.9287 13.3835ZM113.474 11.4545L112.34 11.4545L112.34 19.0909L113.513 19.0909L113.513 14.2585Q113.513 13.483 114.06 12.9759Q114.607 12.4687 115.442 12.4687Q115.676 12.4687 115.887 12.5011Q116.099 12.5334 116.158 12.5483L116.158 11.3551Q116.059 11.3452 115.865 11.3402Q115.671 11.3352 115.542 11.3352Q114.856 11.3352 114.309 11.6882Q113.762 12.0412 113.553 12.608L113.474 12.608L113.474 11.4545ZM66.4423 19.25Q65.3685 19.25 64.5929 18.7429Q63.8173 18.2358 63.3997 17.3459Q62.9821 16.456 62.9821 15.3125Q62.9821 14.1491 63.4121 13.2567Q63.8422 12.3643 64.6153 11.8597Q65.3884 11.3551 66.4224 11.3551Q67.2278 11.3551 67.8741 11.6534Q68.5204 11.9517 68.9331 12.4886Q69.3457 13.0256 69.4452 13.7415L68.2719 13.7415Q68.1376 13.2195 67.6778 12.8143Q67.2179 12.4091 66.4423 12.4091Q65.4132 12.4091 64.7843 13.1921Q64.1554 13.9751 64.1554 15.2727Q64.1554 16.6001 64.7768 17.3981Q65.3983 18.196 66.4423 18.196Q67.1284 18.196 67.6181 17.843Q68.1078 17.4901 68.2719 16.8636L69.4452 16.8636Q69.3457 17.5398 68.9555 18.0792Q68.5652 18.6186 67.9263 18.9343Q67.2875 19.25 66.4423 19.25ZM72.1288 18.994Q72.7205 19.2699 73.4463 19.2699Q74.1125 19.2699 74.5749 19.071Q75.0372 18.8722 75.3156 18.5888Q75.594 18.3054 75.7133 18.0568L75.773 18.0568L75.773 19.0909L76.9463 19.0909L76.9463 14.0597Q76.9463 13.1499 76.648 12.608Q76.3497 12.066 75.8998 11.7976Q75.4499 11.5291 74.9701 11.4421Q74.4903 11.3551 74.1224 11.3551Q73.5457 11.3551 72.9516 11.5117Q72.3575 11.6683 71.8579 12.0586Q71.3582 12.4489 71.0599 13.1449L72.1736 13.5426Q72.3675 13.125 72.8447 12.7571Q73.322 12.3892 74.1622 12.3892Q74.9726 12.3892 75.3728 12.7969Q75.773 13.2045 75.773 13.9403L75.773 13.9801Q75.773 14.2635 75.5717 14.3778Q75.3703 14.4922 74.9353 14.5394Q74.5003 14.5866 73.8043 14.6761Q73.2723 14.7457 72.7478 14.8626Q72.2233 14.9794 71.7908 15.2131Q71.3582 15.4467 71.0997 15.8569Q70.8412 16.267 70.8412 16.9233Q70.8412 17.669 71.1892 18.1935Q71.5372 18.718 72.1288 18.994ZM80.3111 14.4972L80.3111 19.0909L79.1378 19.0909L79.1378 11.4545L80.2713 11.4545L80.2713 12.6477L80.3707 12.6477Q80.6392 12.066 81.1861 11.7106Q81.733 11.3551 82.598 11.3551Q83.7564 11.3551 84.4698 12.066Q85.1832 12.777 85.1832 14.2386L85.1832 19.0909L84.0099 19.0909L84.0099 14.3182Q84.0099 13.4183 83.5426 12.9137Q83.0753 12.4091 82.2599 12.4091Q81.4197 12.4091 80.8654 12.9535Q80.3111 13.4979 80.3111 14.4972ZM106.649 19.2699Q105.923 19.2699 105.331 18.994Q104.739 18.718 104.391 18.1935Q104.043 17.669 104.043 16.9233Q104.043 16.267 104.302 15.8569Q104.561 15.4467 104.993 15.2131Q105.426 14.9794 105.95 14.8626Q106.475 14.7457 107.007 14.6761Q107.703 14.5866 108.138 14.5394Q108.573 14.4922 108.774 14.3778Q108.975 14.2635 108.975 13.9801L108.975 13.9403Q108.975 13.2045 108.575 12.7969Q108.175 12.3892 107.364 12.3892Q106.524 12.3892 106.047 12.7571Q105.57 13.125 105.376 13.5426L104.262 13.1449Q104.561 12.4489 105.06 12.0586Q105.56 11.6683 106.154 11.5117Q106.748 11.3551 107.325 11.3551Q107.693 11.3551 108.172 11.4421Q108.652 11.5291 109.102 11.7976Q109.552 12.066 109.85 12.608Q110.149 13.1499 110.149 14.0597L110.149 19.0909L108.975 19.0909L108.975 18.0568L108.916 18.0568Q108.796 18.3054 108.518 18.5888Q108.239 18.8722 107.777 19.071Q107.315 19.2699 106.649 19.2699ZM120.696 19.25Q119.622 19.25 118.847 18.7429Q118.071 18.2358 117.654 17.3459Q117.236 16.456 117.236 15.3125Q117.236 14.1491 117.666 13.2567Q118.096 12.3643 118.869 11.8597Q119.642 11.3551 120.676 11.3551Q121.482 11.3551 122.128 11.6534Q122.774 11.9517 123.187 12.4886Q123.6 13.0256 123.699 13.7415L122.526 13.7415Q122.392 13.2195 121.932 12.8143Q121.472 12.4091 120.696 12.4091Q119.667 12.4091 119.038 13.1921Q118.409 13.9751 118.409 15.2727Q118.409 16.6001 119.031 17.3981Q119.652 18.196 120.696 18.196Q121.382 18.196 121.872 17.843Q122.362 17.4901 122.526 16.8636L123.699 16.8636Q123.6 17.5398 123.209 18.0792Q122.819 18.6186 122.18 18.9343Q121.541 19.25 120.696 19.25ZM126.743 18.7578Q127.521 19.25 128.555 19.25Q129.589 19.25 130.368 18.7578Q131.146 18.2656 131.581 17.3807Q132.016 16.4957 132.016 15.3125Q132.016 14.1193 131.581 13.2294Q131.146 12.3395 130.368 11.8473Q129.589 11.3551 128.555 11.3551Q127.521 11.3551 126.743 11.8473Q125.965 12.3395 125.53 13.2294Q125.095 14.1193 125.095 15.3125Q125.095 16.4957 125.53 17.3807Q125.965 18.2656 126.743 18.7578ZM143.883 18.7603Q144.681 19.25 145.785 19.25Q146.948 19.25 147.754 18.718Q148.559 18.1861 148.828 17.321L147.694 17.0028Q147.47 17.5994 146.973 17.8977Q146.476 18.196 145.785 18.196Q144.751 18.196 144.097 17.5447Q143.443 16.8935 143.404 15.6705L148.947 15.6705L148.947 15.1733Q148.947 14.1044 148.663 13.3736Q148.38 12.6428 147.903 12.1978Q147.426 11.7528 146.844 11.554Q146.262 11.3551 145.666 11.3551Q144.632 11.3551 143.858 11.8597Q143.085 12.3643 142.655 13.2617Q142.225 14.1591 142.225 15.3324Q142.225 16.5057 142.655 17.3881Q143.085 18.2706 143.883 18.7603ZM129.848 17.7933Q129.341 18.196 128.555 18.196Q127.77 18.196 127.263 17.7933Q126.756 17.3906 126.512 16.7344Q126.268 16.0781 126.268 15.3125Q126.268 14.5469 126.512 13.8857Q126.756 13.2244 127.263 12.8168Q127.77 12.4091 128.555 12.4091Q129.341 12.4091 129.848 12.8168Q130.355 13.2244 130.599 13.8857Q130.842 14.5469 130.842 15.3125Q130.842 16.0781 130.599 16.7344Q130.355 17.3906 129.848 17.7933ZM136.892 18.196Q137.951 18.196 138.515 17.3832Q139.079 16.5703 139.079 15.2727Q139.079 13.9901 138.522 13.1996Q137.966 12.4091 136.892 12.4091Q136.146 12.4091 135.651 12.7894Q135.157 13.1697 134.911 13.8185Q134.664 14.4673 134.664 15.2727Q134.664 16.0881 134.916 16.7518Q135.167 17.4155 135.661 17.8058Q136.156 18.196 136.892 18.196ZM147.754 14.6562L143.404 14.6562Q143.443 14.0646 143.727 13.5501Q144.01 13.0355 144.502 12.7223Q144.994 12.4091 145.666 12.4091Q146.62 12.4091 147.187 13.0479Q147.754 13.6868 147.754 14.6562ZM99.0878 17.9972L96.6418 17.9972L96.6418 14.4574L99.1474 14.4574Q99.8136 14.4574 100.301 14.7234Q100.788 14.9893 101.052 15.4293Q101.315 15.8693 101.315 16.3864Q101.315 17.0575 100.805 17.5273Q100.296 17.9972 99.0878 17.9972ZM74.8011 17.9425Q74.3213 18.2159 73.6253 18.2159Q72.9243 18.2159 72.4694 17.9052Q72.0145 17.5945 72.0145 16.983Q72.0145 16.5355 72.2556 16.2745Q72.4967 16.0135 72.892 15.8817Q73.2872 15.75 73.7446 15.6903Q73.9335 15.6655 74.2393 15.6282Q74.545 15.5909 74.8707 15.5387Q75.1963 15.4865 75.4474 15.4144Q75.6984 15.3423 75.773 15.2528L75.773 16.3267Q75.773 16.804 75.5269 17.2365Q75.2808 17.669 74.8011 17.9425ZM106.828 18.2159Q107.524 18.2159 108.003 17.9425Q108.483 17.669 108.729 17.2365Q108.975 16.804 108.975 16.3267L108.975 15.2528Q108.901 15.3423 108.65 15.4144Q108.399 15.4865 108.073 15.5387Q107.747 15.5909 107.442 15.6282Q107.136 15.6655 106.947 15.6903Q106.489 15.75 106.094 15.8817Q105.699 16.0135 105.458 16.2745Q105.217 16.5355 105.217 16.983Q105.217 17.5945 105.672 17.9052Q106.127 18.2159 106.828 18.2159Z" />
    </g>
    <g id="Scan-Barcode-Icon">
      <path d="M18.999 0L45.001 0Q45.4674 0 45.9332 0.0228851Q46.3991 0.0457703 46.8632 0.0914854Q47.3274 0.1372 47.7887 0.205635Q48.2501 0.27407 48.7075 0.36506Q49.165 0.45605 49.6174 0.569376Q50.0698 0.682702 50.5161 0.818091Q50.9624 0.953479 51.4016 1.1106Q51.8407 1.26773 52.2716 1.44621Q52.7025 1.6247 53.1241 1.82411Q53.5457 2.02352 53.9571 2.24338Q54.3684 2.46324 54.7684 2.70301Q55.1685 2.94279 55.5563 3.20191Q55.9441 3.46103 56.3187 3.73886Q56.6933 4.01669 57.0538 4.31257Q57.4144 4.60845 57.7599 4.92167Q58.1055 5.23488 58.4353 5.56468Q58.7651 5.89447 59.0783 6.24005Q59.3915 6.58563 59.6874 6.94616Q59.9833 7.30669 60.2611 7.68131Q60.539 8.05592 60.7981 8.44372Q61.0572 8.83152 61.297 9.23156Q61.5368 9.63161 61.7566 10.0429Q61.9765 10.4543 62.1759 10.8759Q62.3753 11.2975 62.5538 11.7284Q62.7323 12.1593 62.8894 12.5984Q63.0465 13.0376 63.1819 13.4839Q63.3173 13.9302 63.4306 14.3826Q63.5439 14.835 63.6349 15.2925Q63.7259 15.7499 63.7944 16.2113Q63.8628 16.6726 63.9085 17.1368Q63.9542 17.6009 63.9771 18.0668Q64 18.5326 64 18.999L64 43.001Q64 43.4674 63.9771 43.9332Q63.9542 44.3991 63.9085 44.8632Q63.8628 45.3274 63.7944 45.7887Q63.7259 46.2501 63.6349 46.7075Q63.5439 47.165 63.4306 47.6174Q63.3173 48.0698 63.1819 48.5161Q63.0465 48.9624 62.8894 49.4016Q62.7323 49.8407 62.5538 50.2716Q62.3753 50.7025 62.1759 51.1241Q61.9765 51.5457 61.7566 51.9571Q61.5368 52.3684 61.297 52.7684Q61.0572 53.1685 60.7981 53.5563Q60.539 53.9441 60.2611 54.3187Q59.9833 54.6933 59.6874 55.0538Q59.3915 55.4144 59.0783 55.7599Q58.7651 56.1055 58.4353 56.4353Q58.1055 56.7651 57.7599 57.0783Q57.4144 57.3915 57.0538 57.6874Q56.6933 57.9833 56.3187 58.2611Q55.9441 58.539 55.5563 58.7981Q55.1685 59.0572 54.7684 59.297Q54.3684 59.5368 53.9571 59.7566Q53.5457 59.9765 53.1241 60.1759Q52.7025 60.3753 52.2716 60.5538Q51.8407 60.7323 51.4016 60.8894Q50.9624 61.0465 50.5161 61.1819Q50.0698 61.3173 49.6174 61.4306Q49.1649 61.5439 48.7075 61.6349Q48.2501 61.7259 47.7887 61.7944Q47.3274 61.8628 46.8632 61.9085Q46.3991 61.9542 45.9332 61.9771Q45.4674 62 45.001 62L18.999 62Q18.5326 62 18.0668 61.9771Q17.6009 61.9542 17.1368 61.9085Q16.6726 61.8628 16.2113 61.7944Q15.7499 61.7259 15.2925 61.6349Q14.835 61.5439 14.3826 61.4306Q13.9302 61.3173 13.4839 61.1819Q13.0376 61.0465 12.5984 60.8894Q12.1593 60.7323 11.7284 60.5538Q11.2975 60.3753 10.8759 60.1759Q10.4543 59.9765 10.0429 59.7566Q9.63161 59.5368 9.23156 59.297Q8.83152 59.0572 8.44372 58.7981Q8.05592 58.539 7.68131 58.2611Q7.30669 57.9833 6.94616 57.6874Q6.58563 57.3915 6.24005 57.0783Q5.89447 56.7651 5.56468 56.4353Q5.23488 56.1055 4.92167 55.7599Q4.60845 55.4144 4.31257 55.0538Q4.01669 54.6933 3.73886 54.3187Q3.46103 53.9441 3.20191 53.5563Q2.94279 53.1685 2.70301 52.7684Q2.46324 52.3684 2.24338 51.9571Q2.02352 51.5457 1.82411 51.1241Q1.6247 50.7025 1.44621 50.2716Q1.26773 49.8407 1.1106 49.4016Q0.953479 48.9624 0.81809 48.5161Q0.682702 48.0698 0.569376 47.6174Q0.45605 47.165 0.36506 46.7075Q0.27407 46.2501 0.205635 45.7887Q0.1372 45.3274 0.0914854 44.8632Q0.0457703 44.3991 0.0228851 43.9332Q0 43.4674 0 43.001L0 18.999Q0 18.5326 0.0228851 18.0668Q0.0457703 17.6009 0.0914854 17.1368Q0.1372 16.6726 0.205635 16.2113Q0.27407 15.7499 0.36506 15.2925Q0.45605 14.835 0.569376 14.3826Q0.682702 13.9302 0.818091 13.4839Q0.953479 13.0376 1.1106 12.5984Q1.26773 12.1593 1.44621 11.7284Q1.6247 11.2975 1.82411 10.8759Q2.02352 10.4543 2.24338 10.0429Q2.46324 9.63161 2.70301 9.23156Q2.94279 8.83152 3.20191 8.44372Q3.46103 8.05592 3.73886 7.68131Q4.01669 7.30669 4.31257 6.94616Q4.60845 6.58563 4.92167 6.24005Q5.23488 5.89447 5.56468 5.56468Q5.89447 5.23488 6.24005 4.92167Q6.58563 4.60845 6.94616 4.31257Q7.30669 4.01669 7.68131 3.73886Q8.05592 3.46103 8.44372 3.20191Q8.83152 2.94279 9.23156 2.70301Q9.63161 2.46324 10.0429 2.24338Q10.4543 2.02352 10.8759 1.82411Q11.2975 1.6247 11.7284 1.44621Q12.1593 1.26773 12.5984 1.1106Q13.0376 0.953479 13.4839 0.81809Q13.9302 0.682702 14.3826 0.569376Q14.835 0.45605 15.2925 0.36506Q15.7499 0.27407 16.2113 0.205635Q16.6726 0.1372 17.1368 0.0914854Q17.6009 0.0457703 18.0668 0.0228851Q18.5326 0 18.999 0Z" id="Rectangle" fill="#FC8B56" fill-rule="evenodd" stroke="none" filter="url(#filter_1)" />
      <g id="barcode" transform="translate(20 21)">
        <path d="M4.09357 0L0.818713 0C0.366784 0 0 0.366784 0 0.818713L0 4.09357C0 4.5455 0.366784 4.91228 0.818713 4.91228C1.27064 4.91228 1.63743 4.5455 1.63743 4.09357L1.63743 1.63743L4.09357 1.63743C4.5455 1.63743 4.91228 1.27064 4.91228 0.818713C4.91228 0.366784 4.5455 0 4.09357 0Z" id="Path" fill="#FFFFFF" stroke="none" />
        <path d="M23.7427 14.7368C23.2908 14.7368 22.924 15.1036 22.924 15.5556L22.924 18.0117L20.4678 18.0117C20.0159 18.0117 19.6491 18.3785 19.6491 18.8304C19.6491 19.2823 20.0159 19.6491 20.4678 19.6491L23.7427 19.6491C24.1946 19.6491 24.5614 19.2823 24.5614 18.8304L24.5614 15.5556C24.5614 15.1036 24.1946 14.7368 23.7427 14.7368Z" id="Path" fill="#FFFFFF" stroke="none" />
        <path d="M23.7427 0L20.4678 0C20.0159 0 19.6491 0.366784 19.6491 0.818713C19.6491 1.27064 20.0159 1.63743 20.4678 1.63743L22.924 1.63743L22.924 4.09357C22.924 4.5455 23.2908 4.91228 23.7427 4.91228C24.1946 4.91228 24.5614 4.5455 24.5614 4.09357L24.5614 0.818713C24.5614 0.366784 24.1946 0 23.7427 0Z" id="Path" fill="#FFFFFF" stroke="none" />
        <path d="M4.09357 18.0117L1.63743 18.0117L1.63743 15.5556C1.63743 15.1036 1.27064 14.7368 0.818713 14.7368C0.366784 14.7368 0 15.1036 0 15.5556L0 18.8304C0 19.2823 0.366784 19.6491 0.818713 19.6491L4.09357 19.6491C4.5455 19.6491 4.91228 19.2823 4.91228 18.8304C4.91228 18.3785 4.5455 18.0117 4.09357 18.0117Z" id="Path" fill="#FFFFFF" stroke="none" />
        <path d="M3.27485 3.27485L4.91228 3.27485L4.91228 16.3743L3.27485 16.3743L3.27485 3.27485Z" id="Rectangle" fill="#FFFFFF" stroke="none" />
        <path d="M6.54971 3.27485L8.18713 3.27485L8.18713 13.0994L6.54971 13.0994L6.54971 3.27485Z" id="Rectangle" fill="#FFFFFF" stroke="none" />
        <path d="M9.82456 3.27485L11.462 3.27485L11.462 13.0994L9.82456 13.0994L9.82456 3.27485Z" id="Rectangle" fill="#FFFFFF" stroke="none" />
        <path d="M13.0994 3.27485L14.7368 3.27485L14.7368 16.3743L13.0994 16.3743L13.0994 3.27485Z" id="Rectangle" fill="#FFFFFF" stroke="none" />
        <path d="M16.3743 3.27485L18.0117 3.27485L18.0117 13.0994L16.3743 13.0994L16.3743 3.27485Z" id="Rectangle" fill="#FFFFFF" stroke="none" />
        <path d="M19.6491 3.27485L21.2865 3.27485L21.2865 16.3743L19.6491 16.3743L19.6491 3.27485Z" id="Rectangle" fill="#FFFFFF" stroke="none" />
        <path d="M6.54971 14.7368L8.18713 14.7368L8.18713 16.3743L6.54971 16.3743L6.54971 14.7368Z" id="Rectangle" fill="#FFFFFF" stroke="none" />
        <path d="M9.82456 14.7368L11.462 14.7368L11.462 16.3743L9.82456 16.3743L9.82456 14.7368Z" id="Rectangle" fill="#FFFFFF" stroke="none" />
        <path d="M16.3743 14.7368L18.0117 14.7368L18.0117 16.3743L16.3743 16.3743L16.3743 14.7368Z" id="Rectangle" fill="#FFFFFF" stroke="none" />
      </g>
    </g>
  </g>
</svg>