<?xml version="1.0" encoding="utf-8"?>
<svg width="342px" height="92px" viewBox="0 0 342 92" version="1.1" xmlns:xlink="http://www.w3.org/1999/xlink" xmlns="http://www.w3.org/2000/svg">
  <defs>
    <linearGradient x1="0" y1="0.5" x2="1" y2="0.5" id="gradient_1">
      <stop offset="0%" stop-color="#FC8B56" />
      <stop offset="100%" stop-color="#FB9D58" />
    </linearGradient>
    <filter filterUnits="userSpaceOnUse" color-interpolation-filters="sRGB" id="filter_1">
      <feFlood flood-opacity="0" result="BackgroundImageFix" />
      <feColorMatrix in="SourceAlpha" type="matrix" values="0 0 0 0 0 0 0 0 0 0 0 0 0 0 0 0 0 0 127 0" />
      <feOffset dx="0" dy="3" />
      <feGaussianBlur stdDeviation="5" />
      <feColorMatrix type="matrix" values="0 0 0 0 1 0 0 0 0 0.7764706 0 0 0 0 0.5647059 0 0 0 1 0" />
      <feBlend mode="normal" in2="BackgroundImageFix" result="effect0_dropShadow" />
      <feBlend mode="normal" in="SourceGraphic" in2="effect0_dropShadow" result="shape" />
    </filter>
    <path d="M41.2222 37.4822C41.2222 38.1978 40.6 38.7778 39.8333 38.7778L23.1667 38.7778L33.675 31.2033C34.0167 30.9311 34.6361 30.9322 34.9708 31.2022L41.2222 36.1778L41.2222 37.4822ZM25.9444 25.4444C27.0944 25.4444 28.0278 26.1911 28.0278 27.1111C28.0278 28.0311 27.0944 28.7778 25.9444 28.7778C24.7944 28.7778 23.8611 28.0311 23.8611 27.1111C23.8611 26.1911 24.7944 25.4444 25.9444 25.4444L25.9444 25.4444ZM39.8333 21L23.1667 21C20.8694 21 19 22.4956 19 24.3333L19 37.6667C19 39.5044 20.8694 41 23.1667 41L39.8333 41C42.1306 41 44 39.5044 44 37.6667L44 24.3333C44 22.4956 42.1306 21 39.8333 21L39.8333 21Z" id="path_1" />
    <clipPath id="mask_1">
      <use xlink:href="#path_1" />
    </clipPath>
  </defs>
  <g id="Scan-Image-Button" transform="translate(15 12)">
    <g id="Group-7" transform="translate(46 4)">
      <path d="M11.999 0L269.001 0Q269.296 0 269.59 0.0144533Q269.884 0.0289066 270.177 0.0577785Q270.47 0.0866503 270.762 0.129871Q271.053 0.173092 271.342 0.230557Q271.631 0.288023 271.917 0.359595Q272.202 0.431167 272.484 0.516673Q272.766 0.602179 273.043 0.701413Q273.321 0.800647 273.593 0.913369Q273.865 1.02609 274.131 1.15203Q274.397 1.27797 274.657 1.41683Q274.917 1.55568 275.17 1.70711Q275.422 1.85855 275.667 2.0222Q275.912 2.18584 276.149 2.36131Q276.385 2.53678 276.613 2.72365Q276.841 2.91051 277.059 3.10833Q277.277 3.30614 277.486 3.51443Q277.694 3.72271 277.892 3.94096Q278.089 4.15922 278.276 4.38691Q278.463 4.61461 278.639 4.8512Q278.814 5.0878 278.978 5.33271Q279.141 5.57763 279.293 5.83028Q279.444 6.08293 279.583 6.34271Q279.722 6.60249 279.848 6.86877Q279.974 7.13504 280.087 7.40718Q280.199 7.67932 280.299 7.95666Q280.398 8.234 280.483 8.51587Q280.569 8.79775 280.64 9.08348Q280.712 9.36921 280.769 9.65811Q280.827 9.94701 280.87 10.2384Q280.913 10.5298 280.942 10.8229Q280.971 11.116 280.986 11.4102Q281 11.7044 281 11.999L281 42.001Q281 42.2956 280.986 42.5898Q280.971 42.884 280.942 43.1771Q280.913 43.4702 280.87 43.7616Q280.827 44.053 280.769 44.3419Q280.712 44.6308 280.64 44.9165Q280.569 45.2022 280.483 45.4841Q280.398 45.766 280.299 46.0433Q280.199 46.3207 280.087 46.5928Q279.974 46.8649 279.848 47.1312Q279.722 47.3975 279.583 47.6573Q279.444 47.9171 279.293 48.1697Q279.141 48.4224 278.978 48.6673Q278.814 48.9122 278.639 49.1488Q278.463 49.3854 278.276 49.6131Q278.089 49.8408 277.892 50.059Q277.694 50.2773 277.486 50.4856Q277.277 50.6939 277.059 50.8917Q276.841 51.0895 276.613 51.2763Q276.385 51.4632 276.149 51.6387Q275.912 51.8141 275.667 51.9778Q275.422 52.1414 275.17 52.2929Q274.917 52.4443 274.657 52.5832Q274.397 52.722 274.131 52.848Q273.865 52.9739 273.593 53.0866Q273.321 53.1993 273.043 53.2986Q272.766 53.3978 272.484 53.4833Q272.202 53.5688 271.917 53.6404Q271.631 53.712 271.342 53.7694Q271.053 53.8269 270.762 53.8701Q270.47 53.9133 270.177 53.9422Q269.884 53.9711 269.59 53.9855Q269.296 54 269.001 54L11.999 54Q11.7044 54 11.4102 53.9855Q11.116 53.9711 10.8229 53.9422Q10.5298 53.9133 10.2384 53.8701Q9.94701 53.8269 9.65811 53.7694Q9.36921 53.712 9.08348 53.6404Q8.79775 53.5688 8.51587 53.4833Q8.234 53.3978 7.95666 53.2986Q7.67932 53.1993 7.40718 53.0866Q7.13504 52.9739 6.86877 52.848Q6.60249 52.722 6.34271 52.5832Q6.08293 52.4443 5.83028 52.2929Q5.57763 52.1414 5.33271 51.9778Q5.0878 51.8141 4.8512 51.6387Q4.61461 51.4632 4.38691 51.2763Q4.15922 51.0895 3.94096 50.8917Q3.72271 50.6939 3.51443 50.4856Q3.30614 50.2773 3.10833 50.059Q2.91051 49.8408 2.72365 49.6131Q2.53678 49.3854 2.36131 49.1488Q2.18584 48.9122 2.0222 48.6673Q1.85855 48.4224 1.70711 48.1697Q1.55568 47.9171 1.41683 47.6573Q1.27797 47.3975 1.15203 47.1312Q1.02609 46.8649 0.913369 46.5928Q0.800647 46.3207 0.701413 46.0433Q0.602179 45.766 0.516673 45.4841Q0.431167 45.2022 0.359595 44.9165Q0.288023 44.6308 0.230557 44.3419Q0.173092 44.053 0.129871 43.7616Q0.0866503 43.4702 0.0577785 43.1771Q0.0289066 42.884 0.0144533 42.5898Q0 42.2956 0 42.001L0 11.999Q0 11.7044 0.0144533 11.4102Q0.0289066 11.116 0.0577785 10.8229Q0.0866503 10.5298 0.129871 10.2384Q0.173092 9.94701 0.230557 9.65811Q0.288023 9.36921 0.359595 9.08348Q0.431167 8.79775 0.516673 8.51587Q0.602179 8.234 0.701413 7.95666Q0.800647 7.67932 0.913369 7.40718Q1.02609 7.13504 1.15203 6.86877Q1.27797 6.60249 1.41683 6.34271Q1.55568 6.08293 1.70711 5.83028Q1.85855 5.57763 2.0222 5.33271Q2.18584 5.0878 2.36131 4.8512Q2.53678 4.61461 2.72365 4.38691Q2.91051 4.15922 3.10833 3.94096Q3.30614 3.72271 3.51443 3.51443Q3.72271 3.30614 3.94096 3.10833Q4.15922 2.91051 4.38691 2.72365Q4.61461 2.53678 4.8512 2.36131Q5.0878 2.18584 5.33271 2.0222Q5.57763 1.85855 5.83028 1.70711Q6.08293 1.55568 6.34271 1.41683Q6.60249 1.27797 6.86877 1.15203Q7.13504 1.02609 7.40718 0.913369Q7.67932 0.800647 7.95666 0.701413Q8.234 0.602179 8.51587 0.516673Q8.79775 0.431167 9.08348 0.359595Q9.36921 0.288023 9.65811 0.230557Q9.94701 0.173092 10.2384 0.129871Q10.5298 0.0866503 10.8229 0.0577785Q11.116 0.0289066 11.4102 0.0144533Q11.7044 0 11.999 0L11.999 0Z" id="Rectangle" fill="url(#gradient_1)" fill-rule="evenodd" stroke="none" />
      <g id="Group-6" transform="translate(219.5668 18)">
        <path d="M3.64049 0L0 0L7.28097 8.94545L0 18L3.64049 18L10.9215 8.94545L3.64049 0Z" id="Path" fill="#FFFFFF" fill-opacity="0.3" stroke="none" />
        <path d="M11.1743 0L7.53378 0L14.8148 8.94545L7.53378 18L11.1743 18L18.4552 8.94545L11.1743 0Z" id="Path" fill="#FFFFFF" fill-opacity="0.5" stroke="none" />
        <path d="M18.7081 0L15.0676 0L22.3485 8.94545L15.0676 18L18.7081 18L25.989 8.94545L18.7081 0Z" id="Path" fill="#FFFFFF" fill-opacity="0.7" stroke="none" />
        <path d="M26.2418 0L22.6013 0L29.8823 8.94545L22.6013 18L26.2418 18L33.5228 8.94545L26.2418 0Z" id="Path-Copy" fill="#FFFFFF" stroke="none" />
      </g>
    </g>
    <g id="Scan-Product-Image" fill="#FFFFFF" transform="translate(73 17)">
      <path d="M40.5562 10.2812Q41.1926 10.6989 41.2821 11.4545L42.4753 11.4545Q42.4504 10.6839 42.0005 10.0774Q41.5506 9.47088 40.7849 9.12038Q40.0193 8.76989 39.0349 8.76989Q38.0605 8.76989 37.2725 9.12535Q36.4845 9.48082 36.0197 10.1197Q35.5548 10.7585 35.5548 11.6136Q35.5548 12.6428 36.2509 13.2791Q36.9469 13.9155 38.1401 14.2585L39.3929 14.6165Q39.9298 14.7656 40.3922 14.9645Q40.8545 15.1634 41.1379 15.4815Q41.4213 15.7997 41.4213 16.3068Q41.4213 16.8636 41.0932 17.2788Q40.7651 17.6939 40.2033 17.9251Q39.6415 18.1563 38.9355 18.1562Q38.329 18.1563 37.8045 17.9748Q37.28 17.7933 36.9394 17.418Q36.5989 17.0426 36.5491 16.4659L35.2764 16.4659Q35.3659 17.7188 36.3304 18.4943Q37.2949 19.2699 38.9355 19.2699Q40.1088 19.2699 40.9316 18.8771Q41.7544 18.4844 42.1844 17.8182Q42.6145 17.152 42.6145 16.3267Q42.6145 15.6108 42.3212 15.1186Q42.0278 14.6264 41.5779 14.3107Q41.128 13.995 40.6383 13.8111Q40.1486 13.6271 39.7509 13.5227L38.7168 13.2443Q38.3389 13.1449 37.879 12.9585Q37.4192 12.772 37.0836 12.4364Q36.748 12.1009 36.748 11.554Q36.748 10.8232 37.3645 10.3434Q37.981 9.86364 38.9952 9.86364Q39.9199 9.86364 40.5562 10.2812ZM72.6588 19.0909L72.6588 8.90909L76.0991 8.90909Q77.2973 8.90909 78.0604 9.33913Q78.8236 9.76918 79.1915 10.5Q79.5594 11.2308 79.5594 12.1307Q79.5594 13.0305 79.194 13.7663Q78.8286 14.5021 78.0679 14.9371Q77.3072 15.3722 76.119 15.3722L73.8918 15.3722L73.8918 19.0909L72.6588 19.0909ZM96.2808 18.7653Q97.0116 19.25 97.9662 19.25Q98.702 19.25 99.1445 19.0039Q99.5869 18.7578 99.8256 18.4421Q100.064 18.1264 100.193 17.9176L100.333 17.9176L100.333 19.0909L101.466 19.0909L101.466 8.90909L100.293 8.90909L100.293 12.6676L100.193 12.6676Q100.064 12.4687 99.833 12.158Q99.6018 11.8473 99.1668 11.6012Q98.7318 11.3551 97.9861 11.3551Q97.0216 11.3551 96.2858 11.8374Q95.55 12.3196 95.1374 13.2045Q94.7247 14.0895 94.7247 15.2926Q94.7247 16.5057 95.1374 17.3931Q95.55 18.2805 96.2808 18.7653ZM130.317 19.0909L130.317 8.90909L129.084 8.90909L129.084 19.0909L130.317 19.0909ZM123.174 11.4545L123.174 12.4489L121.543 12.4489L121.543 16.9034Q121.543 17.4006 121.69 17.6467Q121.837 17.8928 122.068 17.9748Q122.299 18.0568 122.558 18.0568Q122.752 18.0568 122.876 18.0344Q123 18.0121 123.075 17.9972L123.313 19.0511Q123.194 19.0959 122.98 19.1431Q122.766 19.1903 122.438 19.1903Q121.941 19.1903 121.466 18.9766Q120.992 18.7628 120.681 18.3253Q120.37 17.8878 120.37 17.2216L120.37 12.4489L119.217 12.4489L119.217 11.4545L120.37 11.4545L120.37 9.625L121.543 9.625L121.543 11.4545L123.174 11.4545ZM73.8918 14.2784L76.0793 14.2784Q77.3072 14.2784 77.8268 13.6619Q78.3463 13.0455 78.3463 12.1307Q78.3463 11.2109 77.8243 10.6069Q77.3023 10.0028 76.0594 10.0028L73.8918 10.0028L73.8918 14.2784ZM82.5662 11.4545L81.4327 11.4545L81.4327 19.0909L82.606 19.0909L82.606 14.2585Q82.606 13.483 83.1528 12.9759Q83.6997 12.4687 84.5349 12.4687Q84.7686 12.4687 84.9799 12.5011Q85.1912 12.5334 85.2508 12.5483L85.2508 11.3551Q85.1514 11.3452 84.9575 11.3402Q84.7636 11.3352 84.6344 11.3352Q83.9483 11.3352 83.4014 11.6882Q82.8545 12.0412 82.6457 12.608L82.5662 12.608L82.5662 11.4545ZM45.7804 18.7429Q46.556 19.25 47.6298 19.25Q48.475 19.25 49.1138 18.9343Q49.7527 18.6186 50.143 18.0792Q50.5332 17.5398 50.6327 16.8636L49.4594 16.8636Q49.2953 17.4901 48.8056 17.843Q48.3159 18.196 47.6298 18.196Q46.5858 18.196 45.9643 17.3981Q45.3429 16.6001 45.3429 15.2727Q45.3429 13.9751 45.9718 13.1921Q46.6007 12.4091 47.6298 12.4091Q48.4054 12.4091 48.8653 12.8143Q49.3251 13.2195 49.4594 13.7415L50.6327 13.7415Q50.5332 13.0256 50.1206 12.4886Q49.708 11.9517 49.0616 11.6534Q48.4153 11.3551 47.6099 11.3551Q46.5758 11.3551 45.8028 11.8597Q45.0297 12.3643 44.5996 13.2567Q44.1696 14.1491 44.1696 15.3125Q44.1696 16.456 44.5872 17.3459Q45.0048 18.2358 45.7804 18.7429ZM54.6338 19.2699Q53.908 19.2699 53.3163 18.994Q52.7247 18.718 52.3767 18.1935Q52.0287 17.669 52.0287 16.9233Q52.0287 16.267 52.2872 15.8569Q52.5457 15.4467 52.9783 15.2131Q53.4108 14.9794 53.9353 14.8626Q54.4598 14.7457 54.9918 14.6761Q55.6878 14.5866 56.1228 14.5394Q56.5578 14.4922 56.7592 14.3778Q56.9605 14.2635 56.9605 13.9801L56.9605 13.9403Q56.9605 13.2045 56.5603 12.7969Q56.1601 12.3892 55.3497 12.3892Q54.5095 12.3892 54.0322 12.7571Q53.555 13.125 53.3611 13.5426L52.2474 13.1449Q52.5457 12.4489 53.0454 12.0586Q53.545 11.6683 54.1391 11.5117Q54.7332 11.3551 55.3099 11.3551Q55.6778 11.3551 56.1576 11.4421Q56.6374 11.5291 57.0873 11.7976Q57.5372 12.066 57.8355 12.608Q58.1338 13.1499 58.1338 14.0597L58.1338 19.0909L56.9605 19.0909L56.9605 18.0568L56.9009 18.0568Q56.7815 18.3054 56.5031 18.5888Q56.2247 18.8722 55.7624 19.071Q55.3 19.2699 54.6338 19.2699ZM61.4986 19.0909L61.4986 14.4972Q61.4986 13.4979 62.0529 12.9535Q62.6072 12.4091 63.4474 12.4091Q64.2628 12.4091 64.7301 12.9137Q65.1974 13.4183 65.1974 14.3182L65.1974 19.0909L66.3707 19.0909L66.3707 14.2386Q66.3707 12.777 65.6573 12.066Q64.9439 11.3551 63.7855 11.3551Q62.9205 11.3551 62.3736 11.7106Q61.8267 12.066 61.5582 12.6477L61.4588 12.6477L61.4588 11.4545L60.3253 11.4545L60.3253 19.0909L61.4986 19.0909ZM89.7889 19.25Q88.7548 19.25 87.9768 18.7578Q87.1987 18.2656 86.7637 17.3807Q86.3287 16.4957 86.3287 15.3125Q86.3287 14.1193 86.7637 13.2294Q87.1987 12.3395 87.9768 11.8473Q88.7548 11.3551 89.7889 11.3551Q90.823 11.3551 91.6011 11.8473Q92.3791 12.3395 92.8141 13.2294Q93.2491 14.1193 93.2491 15.3125Q93.2491 16.4957 92.8141 17.3807Q92.3791 18.2656 91.6011 18.7578Q90.823 19.25 89.7889 19.25ZM113.247 18.7429Q114.022 19.25 115.096 19.25Q115.941 19.25 116.58 18.9343Q117.219 18.6186 117.609 18.0792Q118 17.5398 118.099 16.8636L116.926 16.8636Q116.762 17.4901 116.272 17.843Q115.782 18.196 115.096 18.196Q114.052 18.196 113.431 17.3981Q112.809 16.6001 112.809 15.2727Q112.809 13.9751 113.438 13.1921Q114.067 12.4091 115.096 12.4091Q115.872 12.4091 116.332 12.8143Q116.792 13.2195 116.926 13.7415L118.099 13.7415Q118 13.0256 117.587 12.4886Q117.174 11.9517 116.528 11.6534Q115.882 11.3551 115.076 11.3551Q114.042 11.3551 113.269 11.8597Q112.496 12.3643 112.066 13.2567Q111.636 14.1491 111.636 15.3125Q111.636 16.456 112.054 17.3459Q112.471 18.2358 113.247 18.7429ZM132.668 11.4545L133.801 11.4545L133.801 12.6477L133.901 12.6477Q134.139 12.0362 134.671 11.6957Q135.203 11.3551 135.949 11.3551Q136.705 11.3551 137.209 11.6957Q137.714 12.0362 137.997 12.6477L138.077 12.6477Q138.37 12.0561 138.957 11.7056Q139.544 11.3551 140.364 11.3551Q141.388 11.3551 142.039 11.994Q142.691 12.6328 142.691 13.9801L142.691 19.0909L141.517 19.0909L141.517 13.9801Q141.517 13.1349 141.055 12.772Q140.593 12.4091 139.966 12.4091Q139.161 12.4091 138.718 12.8938Q138.276 13.3785 138.276 14.1193L138.276 19.0909L137.083 19.0909L137.083 13.8608Q137.083 13.2095 136.66 12.8093Q136.238 12.4091 135.571 12.4091Q135.114 12.4091 134.719 12.6527Q134.323 12.8963 134.082 13.3263Q133.841 13.7564 133.841 14.3182L133.841 19.0909L132.668 19.0909L132.668 11.4545ZM145.812 18.994Q146.403 19.2699 147.129 19.2699Q147.795 19.2699 148.258 19.071Q148.72 18.8722 148.999 18.5888Q149.277 18.3054 149.396 18.0568L149.456 18.0568L149.456 19.0909L150.629 19.0909L150.629 14.0597Q150.629 13.1499 150.331 12.608Q150.033 12.066 149.583 11.7976Q149.133 11.5291 148.653 11.4421Q148.173 11.3551 147.805 11.3551Q147.229 11.3551 146.635 11.5117Q146.04 11.6683 145.541 12.0586Q145.041 12.4489 144.743 13.1449L145.857 13.5426Q146.05 13.125 146.528 12.7571Q147.005 12.3892 147.845 12.3892Q148.656 12.3892 149.056 12.7969Q149.456 13.2045 149.456 13.9403L149.456 13.9801Q149.456 14.2635 149.255 14.3778Q149.053 14.4922 148.618 14.5394Q148.183 14.5866 147.487 14.6761Q146.955 14.7457 146.431 14.8626Q145.906 14.9794 145.474 15.2131Q145.041 15.4467 144.783 15.8569Q144.524 16.267 144.524 16.9233Q144.524 17.669 144.872 18.1935Q145.22 18.718 145.812 18.994ZM155.903 22.1136Q154.625 22.1136 153.882 21.6488Q153.139 21.1839 152.781 20.5824L153.716 19.9261Q153.875 20.1349 154.118 20.4059Q154.362 20.6768 154.787 20.8782Q155.212 21.0795 155.903 21.0795Q156.828 21.0795 157.429 20.6321Q158.031 20.1847 158.031 19.2301L158.031 17.679L157.932 17.679Q157.802 17.8878 157.566 18.1935Q157.33 18.4993 156.89 18.7354Q156.45 18.9716 155.704 18.9716Q154.78 18.9716 154.046 18.5341Q153.313 18.0966 152.888 17.2614Q152.463 16.4261 152.463 15.233Q152.463 14.0597 152.875 13.1871Q153.288 12.3146 154.024 11.8349Q154.76 11.3551 155.724 11.3551Q156.47 11.3551 156.91 11.6012Q157.35 11.8473 157.586 12.158Q157.822 12.4687 157.951 12.6676L158.071 12.6676L158.071 11.4545L159.204 11.4545L159.204 19.3097Q159.204 20.294 158.759 20.913Q158.314 21.532 157.566 21.8228Q156.818 22.1136 155.903 22.1136ZM162.696 18.7603Q163.494 19.25 164.597 19.25Q165.761 19.25 166.566 18.718Q167.372 18.1861 167.64 17.321L166.507 17.0028Q166.283 17.5994 165.786 17.8977Q165.288 18.196 164.597 18.196Q163.563 18.196 162.91 17.5447Q162.256 16.8935 162.216 15.6705L167.759 15.6705L167.759 15.1733Q167.759 14.1044 167.476 13.3736Q167.193 12.6428 166.715 12.1978Q166.238 11.7528 165.656 11.554Q165.075 11.3551 164.478 11.3551Q163.444 11.3551 162.671 11.8597Q161.898 12.3643 161.468 13.2617Q161.038 14.1591 161.038 15.3324Q161.038 16.5057 161.468 17.3881Q161.898 18.2706 162.696 18.7603ZM108.629 15.9687L108.629 11.4545L109.803 11.4545L109.803 19.0909L108.629 19.0909L108.629 17.7983L108.55 17.7983Q108.281 18.38 107.714 18.7852Q107.148 19.1903 106.283 19.1903Q105.209 19.1903 104.513 18.4794Q103.817 17.7685 103.817 16.3068L103.817 11.4545L104.99 11.4545L104.99 16.2273Q104.99 17.0625 105.46 17.5597Q105.93 18.0568 106.661 18.0568Q107.098 18.0568 107.553 17.8331Q108.008 17.6094 108.319 17.147Q108.629 16.6847 108.629 15.9687ZM89.7889 18.196Q90.5744 18.196 91.0815 17.7933Q91.5886 17.3906 91.8322 16.7344Q92.0758 16.0781 92.0758 15.3125Q92.0758 14.5469 91.8322 13.8857Q91.5886 13.2244 91.0815 12.8168Q90.5744 12.4091 89.7889 12.4091Q89.0034 12.4091 88.4963 12.8168Q87.9892 13.2244 87.7456 13.8857Q87.502 14.5469 87.502 15.3125Q87.502 16.0781 87.7456 16.7344Q87.9892 17.3906 88.4963 17.7933Q89.0034 18.196 89.7889 18.196ZM99.7485 17.3832Q99.1842 18.196 98.1253 18.196Q97.3895 18.196 96.8948 17.8058Q96.4001 17.4155 96.1491 16.7518Q95.898 16.0881 95.898 15.2727Q95.898 14.4673 96.1441 13.8185Q96.3902 13.1697 96.8849 12.7894Q97.3795 12.4091 98.1253 12.4091Q99.1991 12.4091 99.756 13.1996Q100.313 13.9901 100.313 15.2727Q100.313 16.5703 99.7485 17.3832ZM155.863 17.9176Q156.922 17.9176 157.487 17.1992Q158.051 16.4808 158.051 15.2131Q158.051 13.9751 157.494 13.1921Q156.937 12.4091 155.863 12.4091Q155.118 12.4091 154.623 12.7869Q154.128 13.1648 153.882 13.8011Q153.636 14.4375 153.636 15.2131Q153.636 16.4062 154.198 17.1619Q154.76 17.9176 155.863 17.9176ZM166.566 14.6562L162.216 14.6562Q162.256 14.0646 162.539 13.5501Q162.823 13.0355 163.315 12.7223Q163.807 12.4091 164.478 12.4091Q165.433 12.4091 165.999 13.0479Q166.566 13.6868 166.566 14.6562ZM54.8128 18.2159Q55.5088 18.2159 55.9886 17.9425Q56.4683 17.669 56.7144 17.2365Q56.9605 16.804 56.9605 16.3267L56.9605 15.2528Q56.8859 15.3423 56.6349 15.4144Q56.3838 15.4865 56.0582 15.5387Q55.7325 15.5909 55.4268 15.6282Q55.121 15.6655 54.9321 15.6903Q54.4747 15.75 54.0795 15.8817Q53.6842 16.0135 53.4431 16.2745Q53.202 16.5355 53.202 16.983Q53.202 17.5945 53.6569 17.9052Q54.1118 18.2159 54.8128 18.2159ZM148.484 17.9425Q148.004 18.2159 147.308 18.2159Q146.607 18.2159 146.152 17.9052Q145.697 17.5945 145.697 16.983Q145.697 16.5355 145.939 16.2745Q146.18 16.0135 146.575 15.8817Q146.97 15.75 147.428 15.6903Q147.616 15.6655 147.922 15.6282Q148.228 15.5909 148.554 15.5387Q148.879 15.4865 149.13 15.4144Q149.381 15.3423 149.456 15.2528L149.456 16.3267Q149.456 16.804 149.21 17.2365Q148.964 17.669 148.484 17.9425Z" />
    </g>
    <g id="Scan-Barcode-Icon">
      <path d="M18.999 0L45.001 0Q45.4674 0 45.9332 0.0228851Q46.3991 0.0457703 46.8632 0.0914854Q47.3274 0.1372 47.7887 0.205635Q48.2501 0.27407 48.7075 0.36506Q49.165 0.45605 49.6174 0.569376Q50.0698 0.682702 50.5161 0.818091Q50.9624 0.953479 51.4016 1.1106Q51.8407 1.26773 52.2716 1.44621Q52.7025 1.6247 53.1241 1.82411Q53.5457 2.02352 53.9571 2.24338Q54.3684 2.46324 54.7684 2.70301Q55.1685 2.94279 55.5563 3.20191Q55.9441 3.46103 56.3187 3.73886Q56.6933 4.01669 57.0538 4.31257Q57.4144 4.60845 57.7599 4.92167Q58.1055 5.23488 58.4353 5.56468Q58.7651 5.89447 59.0783 6.24005Q59.3915 6.58563 59.6874 6.94616Q59.9833 7.30669 60.2611 7.68131Q60.539 8.05592 60.7981 8.44372Q61.0572 8.83152 61.297 9.23156Q61.5368 9.63161 61.7566 10.0429Q61.9765 10.4543 62.1759 10.8759Q62.3753 11.2975 62.5538 11.7284Q62.7323 12.1593 62.8894 12.5984Q63.0465 13.0376 63.1819 13.4839Q63.3173 13.9302 63.4306 14.3826Q63.5439 14.835 63.6349 15.2925Q63.7259 15.7499 63.7944 16.2113Q63.8628 16.6726 63.9085 17.1368Q63.9542 17.6009 63.9771 18.0668Q64 18.5326 64 18.999L64 43.001Q64 43.4674 63.9771 43.9332Q63.9542 44.3991 63.9085 44.8632Q63.8628 45.3274 63.7944 45.7887Q63.7259 46.2501 63.6349 46.7075Q63.5439 47.165 63.4306 47.6174Q63.3173 48.0698 63.1819 48.5161Q63.0465 48.9624 62.8894 49.4016Q62.7323 49.8407 62.5538 50.2716Q62.3753 50.7025 62.1759 51.1241Q61.9765 51.5457 61.7566 51.9571Q61.5368 52.3684 61.297 52.7684Q61.0572 53.1685 60.7981 53.5563Q60.539 53.9441 60.2611 54.3187Q59.9833 54.6933 59.6874 55.0538Q59.3915 55.4144 59.0783 55.7599Q58.7651 56.1055 58.4353 56.4353Q58.1055 56.7651 57.7599 57.0783Q57.4144 57.3915 57.0538 57.6874Q56.6933 57.9833 56.3187 58.2611Q55.9441 58.539 55.5563 58.7981Q55.1685 59.0572 54.7684 59.297Q54.3684 59.5368 53.9571 59.7566Q53.5457 59.9765 53.1241 60.1759Q52.7025 60.3753 52.2716 60.5538Q51.8407 60.7323 51.4016 60.8894Q50.9624 61.0465 50.5161 61.1819Q50.0698 61.3173 49.6174 61.4306Q49.1649 61.5439 48.7075 61.6349Q48.2501 61.7259 47.7887 61.7944Q47.3274 61.8628 46.8632 61.9085Q46.3991 61.9542 45.9332 61.9771Q45.4674 62 45.001 62L18.999 62Q18.5326 62 18.0668 61.9771Q17.6009 61.9542 17.1368 61.9085Q16.6726 61.8628 16.2113 61.7944Q15.7499 61.7259 15.2925 61.6349Q14.835 61.5439 14.3826 61.4306Q13.9302 61.3173 13.4839 61.1819Q13.0376 61.0465 12.5984 60.8894Q12.1593 60.7323 11.7284 60.5538Q11.2975 60.3753 10.8759 60.1759Q10.4543 59.9765 10.0429 59.7566Q9.63161 59.5368 9.23156 59.297Q8.83152 59.0572 8.44372 58.7981Q8.05592 58.539 7.68131 58.2611Q7.30669 57.9833 6.94616 57.6874Q6.58563 57.3915 6.24005 57.0783Q5.89447 56.7651 5.56468 56.4353Q5.23488 56.1055 4.92167 55.7599Q4.60845 55.4144 4.31257 55.0538Q4.01669 54.6933 3.73886 54.3187Q3.46103 53.9441 3.20191 53.5563Q2.94279 53.1685 2.70301 52.7684Q2.46324 52.3684 2.24338 51.9571Q2.02352 51.5457 1.82411 51.1241Q1.6247 50.7025 1.44621 50.2716Q1.26773 49.8407 1.1106 49.4016Q0.953479 48.9624 0.81809 48.5161Q0.682702 48.0698 0.569376 47.6174Q0.45605 47.165 0.36506 46.7075Q0.27407 46.2501 0.205635 45.7887Q0.1372 45.3274 0.0914854 44.8632Q0.0457703 44.3991 0.0228851 43.9332Q0 43.4674 0 43.001L0 18.999Q0 18.5326 0.0228851 18.0668Q0.0457703 17.6009 0.0914854 17.1368Q0.1372 16.6726 0.205635 16.2113Q0.27407 15.7499 0.36506 15.2925Q0.45605 14.835 0.569376 14.3826Q0.682702 13.9302 0.818091 13.4839Q0.953479 13.0376 1.1106 12.5984Q1.26773 12.1593 1.44621 11.7284Q1.6247 11.2975 1.82411 10.8759Q2.02352 10.4543 2.24338 10.0429Q2.46324 9.63161 2.70301 9.23156Q2.94279 8.83152 3.20191 8.44372Q3.46103 8.05592 3.73886 7.68131Q4.01669 7.30669 4.31257 6.94616Q4.60845 6.58563 4.92167 6.24005Q5.23488 5.89447 5.56468 5.56468Q5.89447 5.23488 6.24005 4.92167Q6.58563 4.60845 6.94616 4.31257Q7.30669 4.01669 7.68131 3.73886Q8.05592 3.46103 8.44372 3.20191Q8.83152 2.94279 9.23156 2.70301Q9.63161 2.46324 10.0429 2.24338Q10.4543 2.02352 10.8759 1.82411Q11.2975 1.6247 11.7284 1.44621Q12.1593 1.26773 12.5984 1.1106Q13.0376 0.953479 13.4839 0.81809Q13.9302 0.682702 14.3826 0.569376Q14.835 0.45605 15.2925 0.36506Q15.7499 0.27407 16.2113 0.205635Q16.6726 0.1372 17.1368 0.0914854Q17.6009 0.0457703 18.0668 0.0228851Q18.5326 0 18.999 0Z" id="Rectangle" fill="#FC8B56" fill-rule="evenodd" stroke="none" filter="url(#filter_1)" />
      <path d="M41.2222 37.4822C41.2222 38.1978 40.6 38.7778 39.8333 38.7778L23.1667 38.7778L33.675 31.2033C34.0167 30.9311 34.6361 30.9322 34.9708 31.2022L41.2222 36.1778L41.2222 37.4822ZM25.9444 25.4444C27.0944 25.4444 28.0278 26.1911 28.0278 27.1111C28.0278 28.0311 27.0944 28.7778 25.9444 28.7778C24.7944 28.7778 23.8611 28.0311 23.8611 27.1111C23.8611 26.1911 24.7944 25.4444 25.9444 25.4444L25.9444 25.4444ZM39.8333 21L23.1667 21C20.8694 21 19 22.4956 19 24.3333L19 37.6667C19 39.5044 20.8694 41 23.1667 41L39.8333 41C42.1306 41 44 39.5044 44 37.6667L44 24.3333C44 22.4956 42.1306 21 39.8333 21L39.8333 21Z" id="🎨-Icon-Сolor" fill="#FFFFFF" stroke="none" />
    </g>
  </g>
</svg>