<?xml version="1.0" encoding="utf-8"?>
<svg width="22.06897px" height="21.379333px" viewBox="0 0 22.06897 21.379333" version="1.1" xmlns:xlink="http://www.w3.org/1999/xlink" xmlns="http://www.w3.org/2000/svg">
  <path d="M-163.579 -810C-168.905 -809.994 -173.22 -805.813 -173.227 -800.654C-173.22 -798.641 -172.536 -796.685 -171.279 -795.082L-175.579 -790.916C-175.937 -790.581 -176.081 -790.085 -175.955 -789.618C-175.829 -789.151 -175.453 -788.786 -174.971 -788.664C-174.489 -788.542 -173.976 -788.681 -173.63 -789.028L-169.33 -793.194C-167.676 -791.976 -165.657 -791.314 -163.579 -791.307C-158.251 -791.307 -153.931 -795.492 -153.931 -800.654C-153.931 -805.815 -158.251 -810 -163.579 -810ZM-163.579 -793.977C-167.385 -793.977 -170.47 -796.966 -170.47 -800.654C-170.47 -804.341 -167.385 -807.33 -163.579 -807.33C-159.773 -807.33 -156.688 -804.341 -156.688 -800.654C-156.692 -796.968 -159.775 -793.982 -163.579 -793.977Z" id="Shape" fill="#FFFFFF" stroke="none" />
</svg>