<?xml version="1.0" encoding="utf-8"?>
<svg width="342px" height="92px" viewBox="0 0 342 92" version="1.1" xmlns:xlink="http://www.w3.org/1999/xlink" xmlns="http://www.w3.org/2000/svg">
  <defs>
    <linearGradient x1="0" y1="0.5" x2="1" y2="0.5" id="gradient_1">
      <stop offset="0%" stop-color="#FC8B56" />
      <stop offset="100%" stop-color="#FB9D58" />
    </linearGradient>
    <filter filterUnits="userSpaceOnUse" color-interpolation-filters="sRGB" id="filter_1">
      <feFlood flood-opacity="0" result="BackgroundImageFix" />
      <feColorMatrix in="SourceAlpha" type="matrix" values="0 0 0 0 0 0 0 0 0 0 0 0 0 0 0 0 0 0 127 0" />
      <feOffset dx="0" dy="3" />
      <feGaussianBlur stdDeviation="5" />
      <feColorMatrix type="matrix" values="0 0 0 0 1 0 0 0 0 0.7764706 0 0 0 0 0.5647059 0 0 0 1 0" />
      <feBlend mode="normal" in2="BackgroundImageFix" result="effect0_dropShadow" />
      <feBlend mode="normal" in="SourceGraphic" in2="effect0_dropShadow" result="shape" />
    </filter>
    <path d="M36.0189 29.6567L33.3239 26.9617L35.2719 25.0127L37.9659 27.7067L36.0189 29.6567ZM39.4039 26.3157L39.4029 26.3147L36.6649 23.5767C35.9239 22.8377 34.6509 22.8027 33.9489 23.5077L24.9529 32.5037C24.6269 32.8287 24.4249 33.2607 24.3829 33.7177L24.0039 37.8877C23.9779 38.1827 24.0829 38.4747 24.2929 38.6847C24.4819 38.8737 24.7369 38.9777 24.9999 38.9777C25.0309 38.9777 25.0609 38.9767 25.0909 38.9737L29.2609 38.5947C29.7189 38.5527 30.1499 38.3517 30.4749 38.0267L39.4719 29.0297C40.1999 28.2997 40.1689 27.0817 39.4039 26.3157L39.4039 26.3157Z" id="path_1" />
    <clipPath id="mask_1">
      <use xlink:href="#path_1" />
    </clipPath>
  </defs>
  <g id="Type-Product-Name" transform="translate(15 12)">
    <g id="Group-7" transform="translate(46 4)">
      <path d="M11.999 0L269.001 0Q269.296 0 269.59 0.0144533Q269.884 0.0289066 270.177 0.0577785Q270.47 0.0866503 270.762 0.129871Q271.053 0.173092 271.342 0.230557Q271.631 0.288023 271.917 0.359595Q272.202 0.431167 272.484 0.516673Q272.766 0.602179 273.043 0.701413Q273.321 0.800647 273.593 0.913369Q273.865 1.02609 274.131 1.15203Q274.397 1.27797 274.657 1.41683Q274.917 1.55568 275.17 1.70711Q275.422 1.85855 275.667 2.0222Q275.912 2.18584 276.149 2.36131Q276.385 2.53678 276.613 2.72365Q276.841 2.91051 277.059 3.10833Q277.277 3.30614 277.486 3.51443Q277.694 3.72271 277.892 3.94096Q278.089 4.15922 278.276 4.38691Q278.463 4.61461 278.639 4.8512Q278.814 5.0878 278.978 5.33271Q279.141 5.57763 279.293 5.83028Q279.444 6.08293 279.583 6.34271Q279.722 6.60249 279.848 6.86877Q279.974 7.13504 280.087 7.40718Q280.199 7.67932 280.299 7.95666Q280.398 8.234 280.483 8.51587Q280.569 8.79775 280.64 9.08348Q280.712 9.36921 280.769 9.65811Q280.827 9.94701 280.87 10.2384Q280.913 10.5298 280.942 10.8229Q280.971 11.116 280.986 11.4102Q281 11.7044 281 11.999L281 42.001Q281 42.2956 280.986 42.5898Q280.971 42.884 280.942 43.1771Q280.913 43.4702 280.87 43.7616Q280.827 44.053 280.769 44.3419Q280.712 44.6308 280.64 44.9165Q280.569 45.2022 280.483 45.4841Q280.398 45.766 280.299 46.0433Q280.199 46.3207 280.087 46.5928Q279.974 46.8649 279.848 47.1312Q279.722 47.3975 279.583 47.6573Q279.444 47.9171 279.293 48.1697Q279.141 48.4224 278.978 48.6673Q278.814 48.9122 278.639 49.1488Q278.463 49.3854 278.276 49.6131Q278.089 49.8408 277.892 50.059Q277.694 50.2773 277.486 50.4856Q277.277 50.6939 277.059 50.8917Q276.841 51.0895 276.613 51.2763Q276.385 51.4632 276.149 51.6387Q275.912 51.8141 275.667 51.9778Q275.422 52.1414 275.17 52.2929Q274.917 52.4443 274.657 52.5832Q274.397 52.722 274.131 52.848Q273.865 52.9739 273.593 53.0866Q273.321 53.1993 273.043 53.2986Q272.766 53.3978 272.484 53.4833Q272.202 53.5688 271.917 53.6404Q271.631 53.712 271.342 53.7694Q271.053 53.8269 270.762 53.8701Q270.47 53.9133 270.177 53.9422Q269.884 53.9711 269.59 53.9855Q269.296 54 269.001 54L11.999 54Q11.7044 54 11.4102 53.9855Q11.116 53.9711 10.8229 53.9422Q10.5298 53.9133 10.2384 53.8701Q9.94701 53.8269 9.65811 53.7694Q9.36921 53.712 9.08348 53.6404Q8.79775 53.5688 8.51587 53.4833Q8.234 53.3978 7.95666 53.2986Q7.67932 53.1993 7.40718 53.0866Q7.13504 52.9739 6.86877 52.848Q6.60249 52.722 6.34271 52.5832Q6.08293 52.4443 5.83028 52.2929Q5.57763 52.1414 5.33271 51.9778Q5.0878 51.8141 4.8512 51.6387Q4.61461 51.4632 4.38691 51.2763Q4.15922 51.0895 3.94096 50.8917Q3.72271 50.6939 3.51443 50.4856Q3.30614 50.2773 3.10833 50.059Q2.91051 49.8408 2.72365 49.6131Q2.53678 49.3854 2.36131 49.1488Q2.18584 48.9122 2.0222 48.6673Q1.85855 48.4224 1.70711 48.1697Q1.55568 47.9171 1.41683 47.6573Q1.27797 47.3975 1.15203 47.1312Q1.02609 46.8649 0.913369 46.5928Q0.800647 46.3207 0.701413 46.0433Q0.602179 45.766 0.516673 45.4841Q0.431167 45.2022 0.359595 44.9165Q0.288023 44.6308 0.230557 44.3419Q0.173092 44.053 0.129871 43.7616Q0.0866503 43.4702 0.0577785 43.1771Q0.0289066 42.884 0.0144533 42.5898Q0 42.2956 0 42.001L0 11.999Q0 11.7044 0.0144533 11.4102Q0.0289066 11.116 0.0577785 10.8229Q0.0866503 10.5298 0.129871 10.2384Q0.173092 9.94701 0.230557 9.65811Q0.288023 9.36921 0.359595 9.08348Q0.431167 8.79775 0.516673 8.51587Q0.602179 8.234 0.701413 7.95666Q0.800647 7.67932 0.913369 7.40718Q1.02609 7.13504 1.15203 6.86877Q1.27797 6.60249 1.41683 6.34271Q1.55568 6.08293 1.70711 5.83028Q1.85855 5.57763 2.0222 5.33271Q2.18584 5.0878 2.36131 4.8512Q2.53678 4.61461 2.72365 4.38691Q2.91051 4.15922 3.10833 3.94096Q3.30614 3.72271 3.51443 3.51443Q3.72271 3.30614 3.94096 3.10833Q4.15922 2.91051 4.38691 2.72365Q4.61461 2.53678 4.8512 2.36131Q5.0878 2.18584 5.33271 2.0222Q5.57763 1.85855 5.83028 1.70711Q6.08293 1.55568 6.34271 1.41683Q6.60249 1.27797 6.86877 1.15203Q7.13504 1.02609 7.40718 0.913369Q7.67932 0.800647 7.95666 0.701413Q8.234 0.602179 8.51587 0.516673Q8.79775 0.431167 9.08348 0.359595Q9.36921 0.288023 9.65811 0.230557Q9.94701 0.173092 10.2384 0.129871Q10.5298 0.0866503 10.8229 0.0577785Q11.116 0.0289066 11.4102 0.0144533Q11.7044 0 11.999 0L11.999 0Z" id="Rectangle" fill="url(#gradient_1)" fill-rule="evenodd" stroke="none" />
      <g id="Group-6" transform="translate(219.5668 18)">
        <path d="M3.64049 0L0 0L7.28097 8.94545L0 18L3.64049 18L10.9215 8.94545L3.64049 0Z" id="Path" fill="#FFFFFF" fill-opacity="0.3" stroke="none" />
        <path d="M11.1743 0L7.53378 0L14.8148 8.94545L7.53378 18L11.1743 18L18.4552 8.94545L11.1743 0Z" id="Path" fill="#FFFFFF" fill-opacity="0.5" stroke="none" />
        <path d="M18.7081 0L15.0676 0L22.3485 8.94545L15.0676 18L18.7081 18L25.989 8.94545L18.7081 0Z" id="Path" fill="#FFFFFF" fill-opacity="0.7" stroke="none" />
        <path d="M26.2418 0L22.6013 0L29.8823 8.94545L22.6013 18L26.2418 18L33.5228 8.94545L26.2418 0Z" id="Path-Copy" fill="#FFFFFF" stroke="none" />
      </g>
    </g>
    <g id="Type-Product-Name" fill="#FFFFFF" transform="translate(73 17)">
      <path d="M35.706 10.0028L35.706 8.90909L43.3423 8.90909L43.3423 10.0028L40.1406 10.0028L40.1406 19.0909L38.9077 19.0909L38.9077 10.0028L35.706 10.0028ZM73.844 8.90909L73.844 19.0909L75.077 19.0909L75.077 15.3722L77.3043 15.3722Q78.4925 15.3722 79.2531 14.9371Q80.0138 14.5021 80.3792 13.7663Q80.7446 13.0305 80.7446 12.1307Q80.7446 11.2308 80.3767 10.5Q80.0088 9.76918 79.2457 9.33913Q78.4825 8.90909 77.2844 8.90909L73.844 8.90909ZM99.1514 19.25Q98.1969 19.25 97.4661 18.7653Q96.7352 18.2805 96.3226 17.3931Q95.91 16.5057 95.91 15.2926Q95.91 14.0895 96.3226 13.2045Q96.7352 12.3196 97.471 11.8374Q98.2068 11.3551 99.1713 11.3551Q99.9171 11.3551 100.352 11.6012Q100.787 11.8473 101.018 12.158Q101.249 12.4687 101.379 12.6676L101.478 12.6676L101.478 8.90909L102.651 8.90909L102.651 19.0909L101.518 19.0909L101.518 17.9176L101.379 17.9176Q101.249 18.1264 101.011 18.4421Q100.772 18.7578 100.33 19.0039Q99.8872 19.25 99.1514 19.25ZM138.343 8.90909L138.343 19.0909L137.15 19.0909L131.602 11.0966L131.503 11.0966L131.503 19.0909L130.27 19.0909L130.27 8.90909L131.463 8.90909L137.031 16.9233L137.13 16.9233L137.13 8.90909L138.343 8.90909ZM124.359 12.4489L124.359 11.4545L122.729 11.4545L122.729 9.625L121.555 9.625L121.555 11.4545L120.402 11.4545L120.402 12.4489L121.555 12.4489L121.555 17.2216Q121.555 17.8878 121.866 18.3253Q122.177 18.7628 122.652 18.9766Q123.126 19.1903 123.624 19.1903Q123.952 19.1903 124.165 19.1431Q124.379 19.0959 124.499 19.0511L124.26 17.9972Q124.185 18.0121 124.061 18.0344Q123.937 18.0568 123.743 18.0568Q123.484 18.0568 123.253 17.9748Q123.022 17.8928 122.875 17.6467Q122.729 17.4006 122.729 16.9034L122.729 12.4489L124.359 12.4489ZM77.2645 14.2784L75.077 14.2784L75.077 10.0028L77.2446 10.0028Q78.4875 10.0028 79.0095 10.6069Q79.5315 11.2109 79.5315 12.1307Q79.5315 13.0455 79.012 13.6619Q78.4925 14.2784 77.2645 14.2784ZM82.6179 11.4545L83.7514 11.4545L83.7514 12.608L83.831 12.608Q84.0398 12.0412 84.5866 11.6882Q85.1335 11.3352 85.8196 11.3352Q85.9489 11.3352 86.1428 11.3402Q86.3366 11.3452 86.4361 11.3551L86.4361 12.5483Q86.3764 12.5334 86.1651 12.5011Q85.9538 12.4687 85.7202 12.4687Q84.8849 12.4687 84.3381 12.9759Q83.7912 13.483 83.7912 14.2585L83.7912 19.0909L82.6179 19.0909L82.6179 11.4545ZM52.9753 11.4545L52.9753 21.9545L54.1486 21.9545L54.1486 17.9176L54.248 17.9176Q54.3773 18.1264 54.6159 18.4421Q54.8545 18.7578 55.297 19.0039Q55.7395 19.25 56.4753 19.25Q57.4298 19.25 58.1607 18.7653Q58.8915 18.2805 59.3041 17.3931Q59.7168 16.5057 59.7168 15.2926Q59.7168 14.0895 59.3041 13.2045Q58.8915 12.3196 58.1557 11.8374Q57.4199 11.3551 56.4554 11.3551Q55.7097 11.3551 55.2746 11.6012Q54.8396 11.8473 54.6085 12.158Q54.3773 12.4687 54.248 12.6676L54.1088 12.6676L54.1088 11.4545L52.9753 11.4545ZM64.752 19.25Q63.6483 19.25 62.8504 18.7603Q62.0524 18.2706 61.6224 17.3881Q61.1923 16.5057 61.1923 15.3324Q61.1923 14.1591 61.6224 13.2617Q62.0524 12.3643 62.8255 11.8597Q63.5986 11.3551 64.6327 11.3551Q65.2293 11.3551 65.8109 11.554Q66.3926 11.7528 66.8699 12.1978Q67.3472 12.6428 67.6305 13.3736Q67.9139 14.1044 67.9139 15.1733L67.9139 15.6705L62.3706 15.6705Q62.4104 16.8935 63.0641 17.5447Q63.7179 18.196 64.752 18.196Q65.443 18.196 65.9402 17.8977Q66.4374 17.5994 66.6611 17.0028L67.7946 17.321Q67.5261 18.1861 66.7207 18.718Q65.9153 19.25 64.752 19.25ZM89.162 18.7578Q89.9401 19.25 90.9742 19.25Q92.0082 19.25 92.7863 18.7578Q93.5644 18.2656 93.9994 17.3807Q94.4344 16.4957 94.4344 15.3125Q94.4344 14.1193 93.9994 13.2294Q93.5644 12.3395 92.7863 11.8473Q92.0082 11.3551 90.9742 11.3551Q89.9401 11.3551 89.162 11.8473Q88.384 12.3395 87.9489 13.2294Q87.5139 14.1193 87.5139 15.3125Q87.5139 16.4957 87.9489 17.3807Q88.384 18.2656 89.162 18.7578ZM116.282 19.25Q115.208 19.25 114.432 18.7429Q113.657 18.2358 113.239 17.3459Q112.821 16.456 112.821 15.3125Q112.821 14.1491 113.251 13.2567Q113.681 12.3643 114.454 11.8597Q115.228 11.3551 116.262 11.3551Q117.067 11.3551 117.713 11.6534Q118.36 11.9517 118.772 12.4886Q119.185 13.0256 119.284 13.7415L118.111 13.7415Q117.977 13.2195 117.517 12.8143Q117.057 12.4091 116.282 12.4091Q115.252 12.4091 114.624 13.1921Q113.995 13.9751 113.995 15.2727Q113.995 16.6001 114.616 17.3981Q115.238 18.196 116.282 18.196Q116.968 18.196 117.457 17.843Q117.947 17.4901 118.111 16.8636L119.284 16.8636Q119.185 17.5398 118.795 18.0792Q118.404 18.6186 117.766 18.9343Q117.127 19.25 116.282 19.25ZM141.624 18.994Q142.215 19.2699 142.941 19.2699Q143.607 19.2699 144.07 19.071Q144.532 18.8722 144.811 18.5888Q145.089 18.3054 145.208 18.0568L145.268 18.0568L145.268 19.0909L146.441 19.0909L146.441 14.0597Q146.441 13.1499 146.143 12.608Q145.845 12.066 145.395 11.7976Q144.945 11.5291 144.465 11.4421Q143.985 11.3551 143.617 11.3551Q143.041 11.3551 142.447 11.5117Q141.852 11.6683 141.353 12.0586Q140.853 12.4489 140.555 13.1449L141.668 13.5426Q141.862 13.125 142.34 12.7571Q142.817 12.3892 143.657 12.3892Q144.467 12.3892 144.868 12.7969Q145.268 13.2045 145.268 13.9403L145.268 13.9801Q145.268 14.2635 145.067 14.3778Q144.865 14.4922 144.43 14.5394Q143.995 14.5866 143.299 14.6761Q142.767 14.7457 142.243 14.8626Q141.718 14.9794 141.286 15.2131Q140.853 15.4467 140.595 15.8569Q140.336 16.267 140.336 16.9233Q140.336 17.669 140.684 18.1935Q141.032 18.718 141.624 18.994ZM148.633 11.4545L149.766 11.4545L149.766 12.6477L149.866 12.6477Q150.104 12.0362 150.636 11.6957Q151.168 11.3551 151.914 11.3551Q152.67 11.3551 153.174 11.6957Q153.679 12.0362 153.962 12.6477L154.042 12.6477Q154.335 12.0561 154.922 11.7056Q155.508 11.3551 156.329 11.3551Q157.353 11.3551 158.004 11.994Q158.655 12.6328 158.655 13.9801L158.655 19.0909L157.482 19.0909L157.482 13.9801Q157.482 13.1349 157.02 12.772Q156.557 12.4091 155.931 12.4091Q155.126 12.4091 154.683 12.8938Q154.241 13.3785 154.241 14.1193L154.241 19.0909L153.047 19.0909L153.047 13.8608Q153.047 13.2095 152.625 12.8093Q152.202 12.4091 151.536 12.4091Q151.079 12.4091 150.683 12.6527Q150.288 12.8963 150.047 13.3263Q149.806 13.7564 149.806 14.3182L149.806 19.0909L148.633 19.0909L148.633 11.4545ZM162.147 18.7603Q162.945 19.25 164.049 19.25Q165.212 19.25 166.017 18.718Q166.823 18.1861 167.091 17.321L165.958 17.0028Q165.734 17.5994 165.237 17.8977Q164.74 18.196 164.049 18.196Q163.014 18.196 162.361 17.5447Q161.707 16.8935 161.667 15.6705L167.211 15.6705L167.211 15.1733Q167.211 14.1044 166.927 13.3736Q166.644 12.6428 166.166 12.1978Q165.689 11.7528 165.108 11.554Q164.526 11.3551 163.929 11.3551Q162.895 11.3551 162.122 11.8597Q161.349 12.3643 160.919 13.2617Q160.489 14.1591 160.489 15.3324Q160.489 16.5057 160.919 17.3881Q161.349 18.2706 162.147 18.7603ZM45.8918 21.9545Q45.5935 21.9545 45.3598 21.9073Q45.1261 21.8601 45.0366 21.8153L45.3349 20.7813Q45.7625 20.8906 46.0906 20.8608Q46.4188 20.831 46.6748 20.57Q46.9308 20.3089 47.1446 19.7273L47.3634 19.1307L44.5395 11.4545L45.8122 11.4545L47.9202 17.5398L47.9997 17.5398L50.1077 11.4545L51.3804 11.4545L48.1389 20.2045Q47.4876 21.9545 45.8918 21.9545ZM109.814 11.4545L109.814 15.9687Q109.814 16.6847 109.504 17.147Q109.193 17.6094 108.738 17.8331Q108.283 18.0568 107.846 18.0568Q107.115 18.0568 106.645 17.5597Q106.175 17.0625 106.175 16.2273L106.175 11.4545L105.002 11.4545L105.002 16.3068Q105.002 17.7685 105.698 18.4794Q106.394 19.1903 107.468 19.1903Q108.333 19.1903 108.9 18.7852Q109.466 18.38 109.735 17.7983L109.814 17.7983L109.814 19.0909L110.988 19.0909L110.988 11.4545L109.814 11.4545ZM54.693 17.3832Q54.1287 16.5703 54.1287 15.2727Q54.1287 13.9901 54.6855 13.1996Q55.2423 12.4091 56.3162 12.4091Q57.0619 12.4091 57.5566 12.7894Q58.0513 13.1697 58.2974 13.8185Q58.5435 14.4673 58.5435 15.2727Q58.5435 16.0881 58.2924 16.7518Q58.0413 17.4155 57.5467 17.8058Q57.052 18.196 56.3162 18.196Q55.2572 18.196 54.693 17.3832ZM62.3706 14.6562L66.7207 14.6562Q66.7207 13.6868 66.154 13.0479Q65.5872 12.4091 64.6327 12.4091Q63.9615 12.4091 63.4693 12.7223Q62.9771 13.0355 62.6938 13.5501Q62.4104 14.0646 62.3706 14.6562ZM92.2668 17.7933Q91.7597 18.196 90.9742 18.196Q90.1886 18.196 89.6815 17.7933Q89.1744 17.3906 88.9308 16.7344Q88.6872 16.0781 88.6872 15.3125Q88.6872 14.5469 88.9308 13.8857Q89.1744 13.2244 89.6815 12.8168Q90.1886 12.4091 90.9742 12.4091Q91.7597 12.4091 92.2668 12.8168Q92.7739 13.2244 93.0175 13.8857Q93.2611 14.5469 93.2611 15.3125Q93.2611 16.0781 93.0175 16.7344Q92.7739 17.3906 92.2668 17.7933ZM99.3105 18.196Q100.369 18.196 100.934 17.3832Q101.498 16.5703 101.498 15.2727Q101.498 13.9901 100.941 13.1996Q100.384 12.4091 99.3105 12.4091Q98.5648 12.4091 98.0701 12.7894Q97.5754 13.1697 97.3293 13.8185Q97.0832 14.4673 97.0832 15.2727Q97.0832 16.0881 97.3343 16.7518Q97.5854 17.4155 98.08 17.8058Q98.5747 18.196 99.3105 18.196ZM166.017 14.6562L161.667 14.6562Q161.707 14.0646 161.99 13.5501Q162.274 13.0355 162.766 12.7223Q163.258 12.4091 163.929 12.4091Q164.884 12.4091 165.451 13.0479Q166.017 13.6868 166.017 14.6562ZM144.296 17.9425Q143.816 18.2159 143.12 18.2159Q142.419 18.2159 141.964 17.9052Q141.509 17.5945 141.509 16.983Q141.509 16.5355 141.751 16.2745Q141.992 16.0135 142.387 15.8817Q142.782 15.75 143.24 15.6903Q143.428 15.6655 143.734 15.6282Q144.04 15.5909 144.366 15.5387Q144.691 15.4865 144.942 15.4144Q145.193 15.3423 145.268 15.2528L145.268 16.3267Q145.268 16.804 145.022 17.2365Q144.776 17.669 144.296 17.9425Z" />
    </g>
    <g id="Scan-Barcode-Icon">
      <path d="M18.999 0L45.001 0Q45.4674 0 45.9332 0.0228851Q46.3991 0.0457703 46.8632 0.0914854Q47.3274 0.1372 47.7887 0.205635Q48.2501 0.27407 48.7075 0.36506Q49.165 0.45605 49.6174 0.569376Q50.0698 0.682702 50.5161 0.818091Q50.9624 0.953479 51.4016 1.1106Q51.8407 1.26773 52.2716 1.44621Q52.7025 1.6247 53.1241 1.82411Q53.5457 2.02352 53.9571 2.24338Q54.3684 2.46324 54.7684 2.70301Q55.1685 2.94279 55.5563 3.20191Q55.9441 3.46103 56.3187 3.73886Q56.6933 4.01669 57.0538 4.31257Q57.4144 4.60845 57.7599 4.92167Q58.1055 5.23488 58.4353 5.56468Q58.7651 5.89447 59.0783 6.24005Q59.3915 6.58563 59.6874 6.94616Q59.9833 7.30669 60.2611 7.68131Q60.539 8.05592 60.7981 8.44372Q61.0572 8.83152 61.297 9.23156Q61.5368 9.63161 61.7566 10.0429Q61.9765 10.4543 62.1759 10.8759Q62.3753 11.2975 62.5538 11.7284Q62.7323 12.1593 62.8894 12.5984Q63.0465 13.0376 63.1819 13.4839Q63.3173 13.9302 63.4306 14.3826Q63.5439 14.835 63.6349 15.2925Q63.7259 15.7499 63.7944 16.2113Q63.8628 16.6726 63.9085 17.1368Q63.9542 17.6009 63.9771 18.0668Q64 18.5326 64 18.999L64 43.001Q64 43.4674 63.9771 43.9332Q63.9542 44.3991 63.9085 44.8632Q63.8628 45.3274 63.7944 45.7887Q63.7259 46.2501 63.6349 46.7075Q63.5439 47.165 63.4306 47.6174Q63.3173 48.0698 63.1819 48.5161Q63.0465 48.9624 62.8894 49.4016Q62.7323 49.8407 62.5538 50.2716Q62.3753 50.7025 62.1759 51.1241Q61.9765 51.5457 61.7566 51.9571Q61.5368 52.3684 61.297 52.7684Q61.0572 53.1685 60.7981 53.5563Q60.539 53.9441 60.2611 54.3187Q59.9833 54.6933 59.6874 55.0538Q59.3915 55.4144 59.0783 55.7599Q58.7651 56.1055 58.4353 56.4353Q58.1055 56.7651 57.7599 57.0783Q57.4144 57.3915 57.0538 57.6874Q56.6933 57.9833 56.3187 58.2611Q55.9441 58.539 55.5563 58.7981Q55.1685 59.0572 54.7684 59.297Q54.3684 59.5368 53.9571 59.7566Q53.5457 59.9765 53.1241 60.1759Q52.7025 60.3753 52.2716 60.5538Q51.8407 60.7323 51.4016 60.8894Q50.9624 61.0465 50.5161 61.1819Q50.0698 61.3173 49.6174 61.4306Q49.1649 61.5439 48.7075 61.6349Q48.2501 61.7259 47.7887 61.7944Q47.3274 61.8628 46.8632 61.9085Q46.3991 61.9542 45.9332 61.9771Q45.4674 62 45.001 62L18.999 62Q18.5326 62 18.0668 61.9771Q17.6009 61.9542 17.1368 61.9085Q16.6726 61.8628 16.2113 61.7944Q15.7499 61.7259 15.2925 61.6349Q14.835 61.5439 14.3826 61.4306Q13.9302 61.3173 13.4839 61.1819Q13.0376 61.0465 12.5984 60.8894Q12.1593 60.7323 11.7284 60.5538Q11.2975 60.3753 10.8759 60.1759Q10.4543 59.9765 10.0429 59.7566Q9.63161 59.5368 9.23156 59.297Q8.83152 59.0572 8.44372 58.7981Q8.05592 58.539 7.68131 58.2611Q7.30669 57.9833 6.94616 57.6874Q6.58563 57.3915 6.24005 57.0783Q5.89447 56.7651 5.56468 56.4353Q5.23488 56.1055 4.92167 55.7599Q4.60845 55.4144 4.31257 55.0538Q4.01669 54.6933 3.73886 54.3187Q3.46103 53.9441 3.20191 53.5563Q2.94279 53.1685 2.70301 52.7684Q2.46324 52.3684 2.24338 51.9571Q2.02352 51.5457 1.82411 51.1241Q1.6247 50.7025 1.44621 50.2716Q1.26773 49.8407 1.1106 49.4016Q0.953479 48.9624 0.81809 48.5161Q0.682702 48.0698 0.569376 47.6174Q0.45605 47.165 0.36506 46.7075Q0.27407 46.2501 0.205635 45.7887Q0.1372 45.3274 0.0914854 44.8632Q0.0457703 44.3991 0.0228851 43.9332Q0 43.4674 0 43.001L0 18.999Q0 18.5326 0.0228851 18.0668Q0.0457703 17.6009 0.0914854 17.1368Q0.1372 16.6726 0.205635 16.2113Q0.27407 15.7499 0.36506 15.2925Q0.45605 14.835 0.569376 14.3826Q0.682702 13.9302 0.818091 13.4839Q0.953479 13.0376 1.1106 12.5984Q1.26773 12.1593 1.44621 11.7284Q1.6247 11.2975 1.82411 10.8759Q2.02352 10.4543 2.24338 10.0429Q2.46324 9.63161 2.70301 9.23156Q2.94279 8.83152 3.20191 8.44372Q3.46103 8.05592 3.73886 7.68131Q4.01669 7.30669 4.31257 6.94616Q4.60845 6.58563 4.92167 6.24005Q5.23488 5.89447 5.56468 5.56468Q5.89447 5.23488 6.24005 4.92167Q6.58563 4.60845 6.94616 4.31257Q7.30669 4.01669 7.68131 3.73886Q8.05592 3.46103 8.44372 3.20191Q8.83152 2.94279 9.23156 2.70301Q9.63161 2.46324 10.0429 2.24338Q10.4543 2.02352 10.8759 1.82411Q11.2975 1.6247 11.7284 1.44621Q12.1593 1.26773 12.5984 1.1106Q13.0376 0.953479 13.4839 0.81809Q13.9302 0.682702 14.3826 0.569376Q14.835 0.45605 15.2925 0.36506Q15.7499 0.27407 16.2113 0.205635Q16.6726 0.1372 17.1368 0.0914854Q17.6009 0.0457703 18.0668 0.0228851Q18.5326 0 18.999 0Z" id="Rectangle" fill="#FC8B56" fill-rule="evenodd" stroke="none" filter="url(#filter_1)" />
      <path d="M36.0189 29.6567L33.3239 26.9617L35.2719 25.0127L37.9659 27.7067L36.0189 29.6567ZM39.4039 26.3157L39.4029 26.3147L36.6649 23.5767C35.9239 22.8377 34.6509 22.8027 33.9489 23.5077L24.9529 32.5037C24.6269 32.8287 24.4249 33.2607 24.3829 33.7177L24.0039 37.8877C23.9779 38.1827 24.0829 38.4747 24.2929 38.6847C24.4819 38.8737 24.7369 38.9777 24.9999 38.9777C25.0309 38.9777 25.0609 38.9767 25.0909 38.9737L29.2609 38.5947C29.7189 38.5527 30.1499 38.3517 30.4749 38.0267L39.4719 29.0297C40.1999 28.2997 40.1689 27.0817 39.4039 26.3157L39.4039 26.3157Z" id="🎨-Icon-Сolor" fill="#FFFFFF" stroke="none" />
    </g>
  </g>
</svg>