<?xml version="1.0" encoding="utf-8"?>
<svg width="342px" height="92px" viewBox="0 0 342 92" version="1.1" xmlns:xlink="http://www.w3.org/1999/xlink" xmlns="http://www.w3.org/2000/svg">
  <defs>
    <linearGradient x1="0" y1="0.5" x2="1" y2="0.5" id="gradient_1">
      <stop offset="0%" stop-color="#FC8B56" />
      <stop offset="100%" stop-color="#FB9D58" />
    </linearGradient>
    <filter filterUnits="userSpaceOnUse" color-interpolation-filters="sRGB" id="filter_1">
      <feFlood flood-opacity="0" result="BackgroundImageFix" />
      <feColorMatrix in="SourceAlpha" type="matrix" values="0 0 0 0 0 0 0 0 0 0 0 0 0 0 0 0 0 0 127 0" />
      <feOffset dx="0" dy="3" />
      <feGaussianBlur stdDeviation="5" />
      <feColorMatrix type="matrix" values="0 0 0 0 1 0 0 0 0 0.7764706 0 0 0 0 0.5647059 0 0 0 1 0" />
      <feBlend mode="normal" in2="BackgroundImageFix" result="effect0_dropShadow" />
      <feBlend mode="normal" in="SourceGraphic" in2="effect0_dropShadow" result="shape" />
    </filter>
    <path d="M36.3571 30C36.3571 32.206 34.1787 34 31.5 34C28.8213 34 26.6429 32.206 26.6429 30L26.6429 25C26.6429 22.794 28.8213 21 31.5 21C34.1787 21 36.3571 22.794 36.3571 25L36.3571 30ZM38.7857 29C39.4572 29 40 29.448 40 30C40 33.52 36.8271 36.432 32.7143 36.92L32.7143 39L35.2704 39C35.869 39 36.3571 39.402 36.3571 39.895L36.3571 40.105C36.3571 40.598 35.869 41 35.2704 41L27.7296 41C27.131 41 26.6429 40.598 26.6429 40.105L26.6429 39.895C26.6429 39.402 27.131 39 27.7296 39L30.2857 39L30.2857 36.92C26.1729 36.432 23 33.52 23 30C23 29.448 23.5428 29 24.2143 29C24.8858 29 25.4286 29.448 25.4286 30C25.4286 32.757 28.1522 35 31.5 35C34.8478 35 37.5714 32.757 37.5714 30C37.5714 29.448 38.1142 29 38.7857 29Z" id="path_1" />
    <clipPath id="mask_1">
      <use xlink:href="#path_1" />
    </clipPath>
  </defs>
  <g id="Voice-Search" transform="translate(15 12)">
    <g id="Group-7" transform="translate(46 4)">
      <path d="M11.999 0L269.001 0Q269.296 0 269.59 0.0144533Q269.884 0.0289066 270.177 0.0577785Q270.47 0.0866503 270.762 0.129871Q271.053 0.173092 271.342 0.230557Q271.631 0.288023 271.917 0.359595Q272.202 0.431167 272.484 0.516673Q272.766 0.602179 273.043 0.701413Q273.321 0.800647 273.593 0.913369Q273.865 1.02609 274.131 1.15203Q274.397 1.27797 274.657 1.41683Q274.917 1.55568 275.17 1.70711Q275.422 1.85855 275.667 2.0222Q275.912 2.18584 276.149 2.36131Q276.385 2.53678 276.613 2.72365Q276.841 2.91051 277.059 3.10833Q277.277 3.30614 277.486 3.51443Q277.694 3.72271 277.892 3.94096Q278.089 4.15922 278.276 4.38691Q278.463 4.61461 278.639 4.8512Q278.814 5.0878 278.978 5.33271Q279.141 5.57763 279.293 5.83028Q279.444 6.08293 279.583 6.34271Q279.722 6.60249 279.848 6.86877Q279.974 7.13504 280.087 7.40718Q280.199 7.67932 280.299 7.95666Q280.398 8.234 280.483 8.51587Q280.569 8.79775 280.64 9.08348Q280.712 9.36921 280.769 9.65811Q280.827 9.94701 280.87 10.2384Q280.913 10.5298 280.942 10.8229Q280.971 11.116 280.986 11.4102Q281 11.7044 281 11.999L281 42.001Q281 42.2956 280.986 42.5898Q280.971 42.884 280.942 43.1771Q280.913 43.4702 280.87 43.7616Q280.827 44.053 280.769 44.3419Q280.712 44.6308 280.64 44.9165Q280.569 45.2022 280.483 45.4841Q280.398 45.766 280.299 46.0433Q280.199 46.3207 280.087 46.5928Q279.974 46.8649 279.848 47.1312Q279.722 47.3975 279.583 47.6573Q279.444 47.9171 279.293 48.1697Q279.141 48.4224 278.978 48.6673Q278.814 48.9122 278.639 49.1488Q278.463 49.3854 278.276 49.6131Q278.089 49.8408 277.892 50.059Q277.694 50.2773 277.486 50.4856Q277.277 50.6939 277.059 50.8917Q276.841 51.0895 276.613 51.2763Q276.385 51.4632 276.149 51.6387Q275.912 51.8141 275.667 51.9778Q275.422 52.1414 275.17 52.2929Q274.917 52.4443 274.657 52.5832Q274.397 52.722 274.131 52.848Q273.865 52.9739 273.593 53.0866Q273.321 53.1993 273.043 53.2986Q272.766 53.3978 272.484 53.4833Q272.202 53.5688 271.917 53.6404Q271.631 53.712 271.342 53.7694Q271.053 53.8269 270.762 53.8701Q270.47 53.9133 270.177 53.9422Q269.884 53.9711 269.59 53.9855Q269.296 54 269.001 54L11.999 54Q11.7044 54 11.4102 53.9855Q11.116 53.9711 10.8229 53.9422Q10.5298 53.9133 10.2384 53.8701Q9.94701 53.8269 9.65811 53.7694Q9.36921 53.712 9.08348 53.6404Q8.79775 53.5688 8.51587 53.4833Q8.234 53.3978 7.95666 53.2986Q7.67932 53.1993 7.40718 53.0866Q7.13504 52.9739 6.86877 52.848Q6.60249 52.722 6.34271 52.5832Q6.08293 52.4443 5.83028 52.2929Q5.57763 52.1414 5.33271 51.9778Q5.0878 51.8141 4.8512 51.6387Q4.61461 51.4632 4.38691 51.2763Q4.15922 51.0895 3.94096 50.8917Q3.72271 50.6939 3.51443 50.4856Q3.30614 50.2773 3.10833 50.059Q2.91051 49.8408 2.72365 49.6131Q2.53678 49.3854 2.36131 49.1488Q2.18584 48.9122 2.0222 48.6673Q1.85855 48.4224 1.70711 48.1697Q1.55568 47.9171 1.41683 47.6573Q1.27797 47.3975 1.15203 47.1312Q1.02609 46.8649 0.913369 46.5928Q0.800647 46.3207 0.701413 46.0433Q0.602179 45.766 0.516673 45.4841Q0.431167 45.2022 0.359595 44.9165Q0.288023 44.6308 0.230557 44.3419Q0.173092 44.053 0.129871 43.7616Q0.0866503 43.4702 0.0577785 43.1771Q0.0289066 42.884 0.0144533 42.5898Q0 42.2956 0 42.001L0 11.999Q0 11.7044 0.0144533 11.4102Q0.0289066 11.116 0.0577785 10.8229Q0.0866503 10.5298 0.129871 10.2384Q0.173092 9.94701 0.230557 9.65811Q0.288023 9.36921 0.359595 9.08348Q0.431167 8.79775 0.516673 8.51587Q0.602179 8.234 0.701413 7.95666Q0.800647 7.67932 0.913369 7.40718Q1.02609 7.13504 1.15203 6.86877Q1.27797 6.60249 1.41683 6.34271Q1.55568 6.08293 1.70711 5.83028Q1.85855 5.57763 2.0222 5.33271Q2.18584 5.0878 2.36131 4.8512Q2.53678 4.61461 2.72365 4.38691Q2.91051 4.15922 3.10833 3.94096Q3.30614 3.72271 3.51443 3.51443Q3.72271 3.30614 3.94096 3.10833Q4.15922 2.91051 4.38691 2.72365Q4.61461 2.53678 4.8512 2.36131Q5.0878 2.18584 5.33271 2.0222Q5.57763 1.85855 5.83028 1.70711Q6.08293 1.55568 6.34271 1.41683Q6.60249 1.27797 6.86877 1.15203Q7.13504 1.02609 7.40718 0.913369Q7.67932 0.800647 7.95666 0.701413Q8.234 0.602179 8.51587 0.516673Q8.79775 0.431167 9.08348 0.359595Q9.36921 0.288023 9.65811 0.230557Q9.94701 0.173092 10.2384 0.129871Q10.5298 0.0866503 10.8229 0.0577785Q11.116 0.0289066 11.4102 0.0144533Q11.7044 0 11.999 0L11.999 0Z" id="Rectangle" fill="url(#gradient_1)" fill-rule="evenodd" stroke="none" />
      <g id="Group-6" transform="translate(219.5668 18)">
        <path d="M3.64049 0L0 0L7.28097 8.94545L0 18L3.64049 18L10.9215 8.94545L3.64049 0Z" id="Path" fill="#FFFFFF" fill-opacity="0.3" stroke="none" />
        <path d="M11.1743 0L7.53378 0L14.8148 8.94545L7.53378 18L11.1743 18L18.4552 8.94545L11.1743 0Z" id="Path" fill="#FFFFFF" fill-opacity="0.5" stroke="none" />
        <path d="M18.7081 0L15.0676 0L22.3485 8.94545L15.0676 18L18.7081 18L25.989 8.94545L18.7081 0Z" id="Path" fill="#FFFFFF" fill-opacity="0.7" stroke="none" />
        <path d="M26.2418 0L22.6013 0L29.8823 8.94545L22.6013 18L26.2418 18L33.5228 8.94545L26.2418 0Z" id="Path-Copy" fill="#FFFFFF" stroke="none" />
      </g>
    </g>
    <g id="Voice-Search" fill="#FFFFFF" transform="translate(73 17)">
      <path d="M76.5859 9.94815Q76.832 10.1818 77.175 10.1818Q77.518 10.1818 77.7641 9.94815Q78.0102 9.71449 78.0102 9.38636Q78.0102 9.05824 77.7641 8.82457Q77.518 8.59091 77.175 8.59091Q76.832 8.59091 76.5859 8.82457Q76.3398 9.05824 76.3398 9.38636Q76.3398 9.71449 76.5859 9.94815ZM105.664 11.4545Q105.575 10.6989 104.938 10.2812Q104.302 9.86364 103.377 9.86364Q102.363 9.86364 101.747 10.3434Q101.13 10.8232 101.13 11.554Q101.13 12.1009 101.466 12.4364Q101.801 12.772 102.261 12.9585Q102.721 13.1449 103.099 13.2443L104.133 13.5227Q104.531 13.6271 105.02 13.8111Q105.51 13.995 105.96 14.3107Q106.41 14.6264 106.703 15.1186Q106.997 15.6108 106.997 16.3267Q106.997 17.152 106.567 17.8182Q106.137 18.4844 105.314 18.8771Q104.491 19.2699 103.318 19.2699Q101.677 19.2699 100.713 18.4943Q99.748 17.7188 99.6585 16.4659L100.931 16.4659Q100.981 17.0426 101.322 17.418Q101.662 17.7933 102.187 17.9748Q102.711 18.1563 103.318 18.1562Q104.024 18.1563 104.585 17.9251Q105.147 17.6939 105.475 17.2788Q105.803 16.8636 105.803 16.3068Q105.803 15.7997 105.52 15.4815Q105.237 15.1634 104.774 14.9645Q104.312 14.7656 103.775 14.6165L102.522 14.2585Q101.329 13.9155 100.633 13.2791Q99.9369 12.6428 99.9369 11.6136Q99.9369 10.7585 100.402 10.1197Q100.867 9.48082 101.655 9.12535Q102.443 8.76989 103.417 8.76989Q104.401 8.76989 105.167 9.12038Q105.933 9.47088 106.383 10.0774Q106.833 10.6839 106.857 11.4545L105.664 11.4545ZM59.2494 8.90909L62.2722 17.4801L62.3915 17.4801L65.4142 8.90909L66.7068 8.90909L62.9682 19.0909L61.6955 19.0909L57.9568 8.90909L59.2494 8.90909ZM139.332 19.0909L139.332 14.4972Q139.332 13.4979 139.901 12.9535Q140.47 12.4091 141.34 12.4091Q142.171 12.4091 142.64 12.9087Q143.11 13.4084 143.11 14.3182L143.11 19.0909L144.284 19.0909L144.284 14.2386Q144.284 12.767 143.568 12.0611Q142.852 11.3551 141.678 11.3551Q140.779 11.3551 140.239 11.7056Q139.7 12.0561 139.431 12.6477L139.332 12.6477L139.332 8.90909L138.159 8.90909L138.159 19.0909L139.332 19.0909ZM126.179 11.4545L125.045 11.4545L125.045 19.0909L126.219 19.0909L126.219 14.2585Q126.219 13.483 126.766 12.9759Q127.313 12.4687 128.148 12.4687Q128.381 12.4687 128.593 12.5011Q128.804 12.5334 128.864 12.5483L128.864 11.3551Q128.764 11.3452 128.57 11.3402Q128.376 11.3352 128.247 11.3352Q127.561 11.3352 127.014 11.6882Q126.467 12.0412 126.259 12.608L126.179 12.608L126.179 11.4545ZM71.2847 19.25Q70.2506 19.25 69.4725 18.7578Q68.6945 18.2656 68.2594 17.3807Q67.8244 16.4957 67.8244 15.3125Q67.8244 14.1193 68.2594 13.2294Q68.6945 12.3395 69.4725 11.8473Q70.2506 11.3551 71.2847 11.3551Q72.3187 11.3551 73.0968 11.8473Q73.8749 12.3395 74.3099 13.2294Q74.7449 14.1193 74.7449 15.3125Q74.7449 16.4957 74.3099 17.3807Q73.8749 18.2656 73.0968 18.7578Q72.3187 19.25 71.2847 19.25ZM83.0455 19.25Q81.9716 19.25 81.196 18.7429Q80.4205 18.2358 80.0028 17.3459Q79.5852 16.456 79.5852 15.3125Q79.5852 14.1491 80.0153 13.2567Q80.4453 12.3643 81.2184 11.8597Q81.9915 11.3551 83.0256 11.3551Q83.831 11.3551 84.4773 11.6534Q85.1236 11.9517 85.5362 12.4886Q85.9489 13.0256 86.0483 13.7415L84.875 13.7415Q84.7408 13.2195 84.2809 12.8143Q83.821 12.4091 83.0455 12.4091Q82.0163 12.4091 81.3874 13.1921Q80.7585 13.9751 80.7585 15.2727Q80.7585 16.6001 81.38 17.3981Q82.0014 18.196 83.0455 18.196Q83.7315 18.196 84.2212 17.843Q84.7109 17.4901 84.875 16.8636L86.0483 16.8636Q85.9489 17.5398 85.5586 18.0792Q85.1683 18.6186 84.5295 18.9343Q83.8906 19.25 83.0455 19.25ZM89.1023 18.7603Q89.9003 19.25 91.004 19.25Q92.1673 19.25 92.9727 18.718Q93.7781 18.1861 94.0466 17.321L92.9131 17.0028Q92.6893 17.5994 92.1922 17.8977Q91.695 18.196 91.004 18.196Q89.9699 18.196 89.3161 17.5447Q88.6624 16.8935 88.6226 15.6705L94.1659 15.6705L94.1659 15.1733Q94.1659 14.1044 93.8825 13.3736Q93.5992 12.6428 93.1219 12.1978Q92.6446 11.7528 92.0629 11.554Q91.4812 11.3551 90.8847 11.3551Q89.8506 11.3551 89.0775 11.8597Q88.3044 12.3643 87.8744 13.2617Q87.4443 14.1591 87.4443 15.3324Q87.4443 16.5057 87.8744 17.3881Q88.3044 18.2706 89.1023 18.7603ZM110.21 18.7603Q111.008 19.25 112.111 19.25Q113.275 19.25 114.08 18.718Q114.886 18.1861 115.154 17.321L114.02 17.0028Q113.797 17.5994 113.3 17.8977Q112.802 18.196 112.111 18.196Q111.077 18.196 110.424 17.5447Q109.77 16.8935 109.73 15.6705L115.273 15.6705L115.273 15.1733Q115.273 14.1044 114.99 13.3736Q114.707 12.6428 114.229 12.1978Q113.752 11.7528 113.17 11.554Q112.589 11.3551 111.992 11.3551Q110.958 11.3551 110.185 11.8597Q109.412 12.3643 108.982 13.2617Q108.552 14.1591 108.552 15.3324Q108.552 16.5057 108.982 17.3881Q109.412 18.2706 110.21 18.7603ZM119.354 19.2699Q118.628 19.2699 118.037 18.994Q117.445 18.718 117.097 18.1935Q116.749 17.669 116.749 16.9233Q116.749 16.267 117.007 15.8569Q117.266 15.4467 117.698 15.2131Q118.131 14.9794 118.655 14.8626Q119.18 14.7457 119.712 14.6761Q120.408 14.5866 120.843 14.5394Q121.278 14.4922 121.479 14.3778Q121.681 14.2635 121.681 13.9801L121.681 13.9403Q121.681 13.2045 121.28 12.7969Q120.88 12.3892 120.07 12.3892Q119.23 12.3892 118.752 12.7571Q118.275 13.125 118.081 13.5426L116.968 13.1449Q117.266 12.4489 117.766 12.0586Q118.265 11.6683 118.859 11.5117Q119.453 11.3551 120.03 11.3551Q120.398 11.3551 120.878 11.4421Q121.358 11.5291 121.807 11.7976Q122.257 12.066 122.556 12.608Q122.854 13.1499 122.854 14.0597L122.854 19.0909L121.681 19.0909L121.681 18.0568L121.621 18.0568Q121.502 18.3054 121.223 18.5888Q120.945 18.8722 120.483 19.071Q120.02 19.2699 119.354 19.2699ZM133.402 19.25Q132.328 19.25 131.552 18.7429Q130.777 18.2358 130.359 17.3459Q129.941 16.456 129.941 15.3125Q129.941 14.1491 130.372 13.2567Q130.802 12.3643 131.575 11.8597Q132.348 11.3551 133.382 11.3551Q134.187 11.3551 134.834 11.6534Q135.48 11.9517 135.892 12.4886Q136.305 13.0256 136.405 13.7415L135.231 13.7415Q135.097 13.2195 134.637 12.8143Q134.177 12.4091 133.402 12.4091Q132.373 12.4091 131.744 13.1921Q131.115 13.9751 131.115 15.2727Q131.115 16.6001 131.736 17.3981Q132.358 18.196 133.402 18.196Q134.088 18.196 134.577 17.843Q135.067 17.4901 135.231 16.8636L136.405 16.8636Q136.305 17.5398 135.915 18.0792Q135.525 18.6186 134.886 18.9343Q134.247 19.25 133.402 19.25ZM76.5784 11.4545L76.5784 19.0909L77.7517 19.0909L77.7517 11.4545L76.5784 11.4545ZM71.2847 18.196Q72.0702 18.196 72.5773 17.7933Q73.0844 17.3906 73.328 16.7344Q73.5716 16.0781 73.5716 15.3125Q73.5716 14.5469 73.328 13.8857Q73.0844 13.2244 72.5773 12.8168Q72.0702 12.4091 71.2847 12.4091Q70.4991 12.4091 69.992 12.8168Q69.4849 13.2244 69.2413 13.8857Q68.9977 14.5469 68.9977 15.3125Q68.9977 16.0781 69.2413 16.7344Q69.4849 17.3906 69.992 17.7933Q70.4991 18.196 71.2847 18.196ZM92.9727 14.6562L88.6226 14.6562Q88.6624 14.0646 88.9457 13.5501Q89.2291 13.0355 89.7213 12.7223Q90.2135 12.4091 90.8847 12.4091Q91.8392 12.4091 92.406 13.0479Q92.9727 13.6868 92.9727 14.6562ZM114.08 14.6562L109.73 14.6562Q109.77 14.0646 110.053 13.5501Q110.337 13.0355 110.829 12.7223Q111.321 12.4091 111.992 12.4091Q112.947 12.4091 113.513 13.0479Q114.08 13.6868 114.08 14.6562ZM119.533 18.2159Q120.229 18.2159 120.709 17.9425Q121.188 17.669 121.435 17.2365Q121.681 16.804 121.681 16.3267L121.681 15.2528Q121.606 15.3423 121.355 15.4144Q121.104 15.4865 120.778 15.5387Q120.453 15.5909 120.147 15.6282Q119.841 15.6655 119.652 15.6903Q119.195 15.75 118.8 15.8817Q118.404 16.0135 118.163 16.2745Q117.922 16.5355 117.922 16.983Q117.922 17.5945 118.377 17.9052Q118.832 18.2159 119.533 18.2159Z" />
    </g>
    <g id="Scan-Barcode-Icon">
      <path d="M18.999 0L45.001 0Q45.4674 0 45.9332 0.0228851Q46.3991 0.0457703 46.8632 0.0914854Q47.3274 0.1372 47.7887 0.205635Q48.2501 0.27407 48.7075 0.36506Q49.165 0.45605 49.6174 0.569376Q50.0698 0.682702 50.5161 0.818091Q50.9624 0.953479 51.4016 1.1106Q51.8407 1.26773 52.2716 1.44621Q52.7025 1.6247 53.1241 1.82411Q53.5457 2.02352 53.9571 2.24338Q54.3684 2.46324 54.7684 2.70301Q55.1685 2.94279 55.5563 3.20191Q55.9441 3.46103 56.3187 3.73886Q56.6933 4.01669 57.0538 4.31257Q57.4144 4.60845 57.7599 4.92167Q58.1055 5.23488 58.4353 5.56468Q58.7651 5.89447 59.0783 6.24005Q59.3915 6.58563 59.6874 6.94616Q59.9833 7.30669 60.2611 7.68131Q60.539 8.05592 60.7981 8.44372Q61.0572 8.83152 61.297 9.23156Q61.5368 9.63161 61.7566 10.0429Q61.9765 10.4543 62.1759 10.8759Q62.3753 11.2975 62.5538 11.7284Q62.7323 12.1593 62.8894 12.5984Q63.0465 13.0376 63.1819 13.4839Q63.3173 13.9302 63.4306 14.3826Q63.5439 14.835 63.6349 15.2925Q63.7259 15.7499 63.7944 16.2113Q63.8628 16.6726 63.9085 17.1368Q63.9542 17.6009 63.9771 18.0668Q64 18.5326 64 18.999L64 43.001Q64 43.4674 63.9771 43.9332Q63.9542 44.3991 63.9085 44.8632Q63.8628 45.3274 63.7944 45.7887Q63.7259 46.2501 63.6349 46.7075Q63.5439 47.165 63.4306 47.6174Q63.3173 48.0698 63.1819 48.5161Q63.0465 48.9624 62.8894 49.4016Q62.7323 49.8407 62.5538 50.2716Q62.3753 50.7025 62.1759 51.1241Q61.9765 51.5457 61.7566 51.9571Q61.5368 52.3684 61.297 52.7684Q61.0572 53.1685 60.7981 53.5563Q60.539 53.9441 60.2611 54.3187Q59.9833 54.6933 59.6874 55.0538Q59.3915 55.4144 59.0783 55.7599Q58.7651 56.1055 58.4353 56.4353Q58.1055 56.7651 57.7599 57.0783Q57.4144 57.3915 57.0538 57.6874Q56.6933 57.9833 56.3187 58.2611Q55.9441 58.539 55.5563 58.7981Q55.1685 59.0572 54.7684 59.297Q54.3684 59.5368 53.9571 59.7566Q53.5457 59.9765 53.1241 60.1759Q52.7025 60.3753 52.2716 60.5538Q51.8407 60.7323 51.4016 60.8894Q50.9624 61.0465 50.5161 61.1819Q50.0698 61.3173 49.6174 61.4306Q49.1649 61.5439 48.7075 61.6349Q48.2501 61.7259 47.7887 61.7944Q47.3274 61.8628 46.8632 61.9085Q46.3991 61.9542 45.9332 61.9771Q45.4674 62 45.001 62L18.999 62Q18.5326 62 18.0668 61.9771Q17.6009 61.9542 17.1368 61.9085Q16.6726 61.8628 16.2113 61.7944Q15.7499 61.7259 15.2925 61.6349Q14.835 61.5439 14.3826 61.4306Q13.9302 61.3173 13.4839 61.1819Q13.0376 61.0465 12.5984 60.8894Q12.1593 60.7323 11.7284 60.5538Q11.2975 60.3753 10.8759 60.1759Q10.4543 59.9765 10.0429 59.7566Q9.63161 59.5368 9.23156 59.297Q8.83152 59.0572 8.44372 58.7981Q8.05592 58.539 7.68131 58.2611Q7.30669 57.9833 6.94616 57.6874Q6.58563 57.3915 6.24005 57.0783Q5.89447 56.7651 5.56468 56.4353Q5.23488 56.1055 4.92167 55.7599Q4.60845 55.4144 4.31257 55.0538Q4.01669 54.6933 3.73886 54.3187Q3.46103 53.9441 3.20191 53.5563Q2.94279 53.1685 2.70301 52.7684Q2.46324 52.3684 2.24338 51.9571Q2.02352 51.5457 1.82411 51.1241Q1.6247 50.7025 1.44621 50.2716Q1.26773 49.8407 1.1106 49.4016Q0.953479 48.9624 0.81809 48.5161Q0.682702 48.0698 0.569376 47.6174Q0.45605 47.165 0.36506 46.7075Q0.27407 46.2501 0.205635 45.7887Q0.1372 45.3274 0.0914854 44.8632Q0.0457703 44.3991 0.0228851 43.9332Q0 43.4674 0 43.001L0 18.999Q0 18.5326 0.0228851 18.0668Q0.0457703 17.6009 0.0914854 17.1368Q0.1372 16.6726 0.205635 16.2113Q0.27407 15.7499 0.36506 15.2925Q0.45605 14.835 0.569376 14.3826Q0.682702 13.9302 0.818091 13.4839Q0.953479 13.0376 1.1106 12.5984Q1.26773 12.1593 1.44621 11.7284Q1.6247 11.2975 1.82411 10.8759Q2.02352 10.4543 2.24338 10.0429Q2.46324 9.63161 2.70301 9.23156Q2.94279 8.83152 3.20191 8.44372Q3.46103 8.05592 3.73886 7.68131Q4.01669 7.30669 4.31257 6.94616Q4.60845 6.58563 4.92167 6.24005Q5.23488 5.89447 5.56468 5.56468Q5.89447 5.23488 6.24005 4.92167Q6.58563 4.60845 6.94616 4.31257Q7.30669 4.01669 7.68131 3.73886Q8.05592 3.46103 8.44372 3.20191Q8.83152 2.94279 9.23156 2.70301Q9.63161 2.46324 10.0429 2.24338Q10.4543 2.02352 10.8759 1.82411Q11.2975 1.6247 11.7284 1.44621Q12.1593 1.26773 12.5984 1.1106Q13.0376 0.953479 13.4839 0.81809Q13.9302 0.682702 14.3826 0.569376Q14.835 0.45605 15.2925 0.36506Q15.7499 0.27407 16.2113 0.205635Q16.6726 0.1372 17.1368 0.0914854Q17.6009 0.0457703 18.0668 0.0228851Q18.5326 0 18.999 0Z" id="Rectangle" fill="#FC8B56" fill-rule="evenodd" stroke="none" filter="url(#filter_1)" />
    </g>
    <path d="M36.3571 30C36.3571 32.206 34.1787 34 31.5 34C28.8213 34 26.6429 32.206 26.6429 30L26.6429 25C26.6429 22.794 28.8213 21 31.5 21C34.1787 21 36.3571 22.794 36.3571 25L36.3571 30ZM38.7857 29C39.4572 29 40 29.448 40 30C40 33.52 36.8271 36.432 32.7143 36.92L32.7143 39L35.2704 39C35.869 39 36.3571 39.402 36.3571 39.895L36.3571 40.105C36.3571 40.598 35.869 41 35.2704 41L27.7296 41C27.131 41 26.6429 40.598 26.6429 40.105L26.6429 39.895C26.6429 39.402 27.131 39 27.7296 39L30.2857 39L30.2857 36.92C26.1729 36.432 23 33.52 23 30C23 29.448 23.5428 29 24.2143 29C24.8858 29 25.4286 29.448 25.4286 30C25.4286 32.757 28.1522 35 31.5 35C34.8478 35 37.5714 32.757 37.5714 30C37.5714 29.448 38.1142 29 38.7857 29Z" id="🎨-Icon-Сolor" fill="#FFFFFF" fill-rule="evenodd" stroke="none" />
  </g>
</svg>